<?xml version="1.0" encoding="UTF-8"?>
<svg xmlns="http://www.w3.org/2000/svg" width="298" height="163" viewBox="0 0 298 163" fill="none">
  <g clip-path="url(#clip0_75_49)">
    <g opacity="0.618241">
      <path d="M243.536 124.28L268.013 132.875L259.406 157.316L234.93 148.722L243.536 124.28Z" fill="#DB6332"></path>
      <path d="M253.168 96.9282L277.643 105.523L269.037 129.965L244.561 121.37L253.168 96.9282Z" fill="#95492A"></path>
      <path d="M262.8 69.5747L287.275 78.1699L278.668 102.614L254.193 94.0187L262.8 69.5747Z" fill="#603624"></path>
      <path d="M272.348 42.458L296.823 51.0532L288.217 75.4945L263.742 66.8993L272.348 42.458Z" fill="#31251F"></path>
      <mask id="mask0_75_49" style="mask-type:luminance" maskUnits="userSpaceOnUse" x="259" y="38" width="42" height="42">
        <path d="M300.804 38.3467H259.666V79.4281H300.804V38.3467Z" fill="black"></path>
        <path d="M270.368 38.3467L300.804 49.0346L290.102 79.4283L259.666 68.7405L270.368 38.3467Z" fill="white"></path>
      </mask>
      <g mask="url(#mask0_75_49)">
        <path d="M270.368 38.3467L300.804 49.0346L290.102 79.4283L259.666 68.7405L270.368 38.3467Z" stroke="#F2F4D9" stroke-width="9.3813" stroke-miterlimit="10" stroke-linecap="round" stroke-linejoin="round"></path>
      </g>
      <mask id="mask1_75_49" style="mask-type:luminance" maskUnits="userSpaceOnUse" x="250" y="65" width="42" height="42">
        <path d="M291.186 65.6636H250.048V106.745H291.186V65.6636Z" fill="black"></path>
        <path d="M260.749 65.6636L291.186 76.3523L280.484 106.745L250.048 96.0573L260.749 65.6636Z" fill="white"></path>
      </mask>
      <g mask="url(#mask1_75_49)">
        <path d="M260.749 65.6636L291.186 76.3523L280.484 106.745L250.048 96.0573L260.749 65.6636Z" stroke="#F2F4D9" stroke-width="9.3813" stroke-miterlimit="10" stroke-linecap="round" stroke-linejoin="round"></path>
      </g>
      <mask id="mask2_75_49" style="mask-type:luminance" maskUnits="userSpaceOnUse" x="240" y="92" width="42" height="42">
        <path d="M281.806 92.3018H240.668V133.383H281.806V92.3018Z" fill="black"></path>
        <path d="M251.37 92.3018L281.806 102.99L271.104 133.383L240.668 122.696L251.37 92.3018Z" fill="white"></path>
      </mask>
      <g mask="url(#mask2_75_49)">
        <path d="M251.37 92.3018L281.806 102.99L271.104 133.383L240.668 122.696L251.37 92.3018Z" stroke="#F2F4D9" stroke-width="9.3813" stroke-miterlimit="10" stroke-linecap="round" stroke-linejoin="round"></path>
      </g>
      <mask id="mask3_75_49" style="mask-type:luminance" maskUnits="userSpaceOnUse" x="230" y="120" width="42" height="42">
        <path d="M271.991 120.178H230.853V161.259H271.991V120.178Z" fill="black"></path>
        <path d="M241.554 120.178L271.99 130.866L261.289 161.259L230.853 150.571L241.554 120.178Z" fill="white"></path>
      </mask>
      <g mask="url(#mask3_75_49)">
        <path d="M241.554 120.178L271.99 130.866L261.289 161.259L230.853 150.571L241.554 120.178Z" stroke="#F2F4D9" stroke-width="9.3813" stroke-miterlimit="10" stroke-linecap="round" stroke-linejoin="round"></path>
      </g>
    </g>
    <path d="M228.11 121.208L258.217 127.065L252.351 157.128L222.246 151.271L228.11 121.208Z" fill="#DB6332"></path>
    <path d="M234.674 87.5635L264.78 93.4213L258.915 123.485L228.809 117.627L234.674 87.5635Z" fill="#95492A"></path>
    <path d="M241.239 53.9175L271.344 59.7753L265.479 89.8427L235.372 83.9849L241.239 53.9175Z" fill="#603624"></path>
    <path d="M247.746 20.563L277.851 26.4208L271.987 56.4838L241.88 50.6268L247.746 20.563Z" fill="#31251F"></path>
    <mask id="mask4_75_49" style="mask-type:luminance" maskUnits="userSpaceOnUse" x="237" y="16" width="46" height="45">
      <path d="M282.161 16.0938H237.43V60.7624H282.161V16.0938Z" fill="black"></path>
      <path d="M244.724 16.0938L282.161 23.3782L274.868 60.7628L237.43 53.4792L244.724 16.0938Z" fill="white"></path>
    </mask>
    <g mask="url(#mask4_75_49)">
      <path d="M244.724 16.0938L282.161 23.3782L274.868 60.7628L237.43 53.4792L244.724 16.0938Z" stroke="#F2F4D9" stroke-width="9.3813" stroke-miterlimit="10" stroke-linecap="round" stroke-linejoin="round"></path>
    </g>
    <mask id="mask5_75_49" style="mask-type:luminance" maskUnits="userSpaceOnUse" x="230" y="49" width="46" height="46">
      <path d="M275.606 49.6943H230.875V94.363H275.606V49.6943Z" fill="black"></path>
      <path d="M238.168 49.6943L275.606 56.9788L268.313 94.3634L230.875 87.0789L238.168 49.6943Z" fill="white"></path>
    </mask>
    <g mask="url(#mask5_75_49)">
      <path d="M238.168 49.6943L275.606 56.9788L268.313 94.3634L230.875 87.0789L238.168 49.6943Z" stroke="#F2F4D9" stroke-width="9.3813" stroke-miterlimit="10" stroke-linecap="round" stroke-linejoin="round"></path>
    </g>
    <mask id="mask6_75_49" style="mask-type:luminance" maskUnits="userSpaceOnUse" x="224" y="82" width="46" height="46">
      <path d="M269.214 82.4604H224.483V127.129H269.214V82.4604Z" fill="black"></path>
      <path d="M231.776 82.4604L269.214 89.744L261.92 127.129L224.483 119.845L231.776 82.4604Z" fill="white"></path>
    </mask>
    <g mask="url(#mask6_75_49)">
      <path d="M231.776 82.4604L269.214 89.744L261.92 127.129L224.483 119.845L231.776 82.4604Z" stroke="#F2F4D9" stroke-width="9.3813" stroke-miterlimit="10" stroke-linecap="round" stroke-linejoin="round"></path>
    </g>
    <mask id="mask7_75_49" style="mask-type:luminance" maskUnits="userSpaceOnUse" x="217" y="116" width="46" height="46">
      <path d="M262.524 116.748H217.793V161.416H262.524V116.748Z" fill="black"></path>
      <path d="M225.087 116.748L262.524 124.032L255.231 161.417L217.793 154.133L225.087 116.748Z" fill="white"></path>
    </mask>
    <g mask="url(#mask7_75_49)">
      <path d="M225.087 116.748L262.524 124.032L255.231 161.417L217.793 154.133L225.087 116.748Z" stroke="#F2F4D9" stroke-width="9.3813" stroke-miterlimit="10" stroke-linecap="round" stroke-linejoin="round"></path>
    </g>
    <path d="M27.6049 9.76252C27.6049 4.92891 31.5285 1.01074 36.3687 1.01074H239.88C244.72 1.01074 248.644 4.92891 248.644 9.76252V153.923C248.644 158.756 244.72 162.674 239.88 162.674H36.3687C31.5285 162.674 27.6049 158.756 27.6049 153.923V9.76252Z" fill="#2B2B2B" stroke="#F2F3D9" stroke-width="4.69065" stroke-miterlimit="10" stroke-linejoin="round"></path>
    <path d="M27.4331 9.07789C27.4331 4.24428 31.3566 0.325195 36.1977 0.325195H239.958C244.799 0.325195 248.724 4.24428 248.724 9.07789C248.724 9.07789 248.743 19.7047 248.735 19.7047H27.6661C27.527 19.7047 27.4331 9.07789 27.4331 9.07789Z" fill="#F2F3D9" stroke="#F2F4D9" stroke-width="4.69065" stroke-miterlimit="10" stroke-linejoin="round"></path>
    <path d="M208.199 9.41982C208.199 7.15559 210.038 5.32031 212.304 5.32031C214.571 5.32031 216.409 7.15559 216.409 9.41982C216.409 11.684 214.571 13.5193 212.304 13.5193C210.038 13.5193 208.199 11.684 208.199 9.41982Z" fill="#FDC4AD"></path>
    <path d="M221.424 9.41982C221.424 7.15559 223.261 5.32031 225.529 5.32031C227.795 5.32031 229.634 7.15559 229.634 9.41982C229.634 11.684 227.795 13.5193 225.529 13.5193C223.261 13.5193 221.424 11.684 221.424 9.41982Z" fill="#E19577"></path>
    <path d="M233.7 9.41982C233.7 7.15559 235.539 5.32031 237.805 5.32031C240.072 5.32031 241.91 7.15559 241.91 9.41982C241.91 11.684 240.072 13.5193 237.805 13.5193C235.539 13.5193 233.7 11.684 233.7 9.41982Z" fill="#DB6332"></path>
    <path d="M71.5483 58.7993H204.622V123.659H71.5483V58.7993Z" stroke="#F2F4D9" stroke-width="2.34532" stroke-miterlimit="10" stroke-linejoin="round"></path>
    <path d="M68.7859 59.8382C68.7859 58.3152 70.0231 57.0796 71.5483 57.0796C73.0743 57.0796 74.3107 58.3152 74.3107 59.8382C74.3107 61.3622 73.0743 62.5969 71.5483 62.5969C70.0231 62.5969 68.7859 61.3622 68.7859 59.8382Z" fill="#DB6332" stroke="#F2F4D9" stroke-width="2.34532" stroke-miterlimit="10" stroke-linejoin="round"></path>
    <path d="M68.7859 123.659C68.7859 122.135 70.0231 120.9 71.5483 120.9C73.0743 120.9 74.3107 122.135 74.3107 123.659C74.3107 125.182 73.0743 126.417 71.5483 126.417C70.0231 126.417 68.7859 125.182 68.7859 123.659Z" fill="#DB6332" stroke="#F2F4D9" stroke-width="2.34532" stroke-miterlimit="10" stroke-linejoin="round"></path>
    <path d="M201.859 123.659C201.859 122.135 203.096 120.9 204.622 120.9C206.147 120.9 207.384 122.135 207.384 123.659C207.384 125.182 206.147 126.417 204.622 126.417C203.096 126.417 201.859 125.182 201.859 123.659Z" fill="#DB6332" stroke="#F2F4D9" stroke-width="2.34532" stroke-miterlimit="10" stroke-linejoin="round"></path>
    <path d="M198.719 43.7007C198.719 43.7007 199.3 63.3995 219.069 67.124" stroke="#F2F4D9" stroke-width="1.17266" stroke-miterlimit="10" stroke-linejoin="round"></path>
    <path d="M201.859 58.7992C201.859 57.2761 203.096 56.0405 204.622 56.0405C206.147 56.0405 207.384 57.2761 207.384 58.7992C207.384 60.3231 206.147 61.5578 204.622 61.5578C203.096 61.5578 201.859 60.3231 201.859 58.7992Z" fill="#DB6332" stroke="#F2F4D9" stroke-width="2.34532" stroke-miterlimit="10" stroke-linejoin="round"></path>
    <path d="M197.338 44.7851C197.338 44.0235 197.956 43.4053 198.719 43.4053C199.482 43.4053 200.1 44.0235 200.1 44.7851C200.1 45.5466 199.482 46.1639 198.719 46.1639C197.956 46.1639 197.338 45.5466 197.338 44.7851Z" fill="#DB6332" stroke="#F2F4D9" stroke-width="1.17266" stroke-miterlimit="10" stroke-linejoin="round"></path>
    <path d="M217.688 66.958C217.688 66.1964 218.306 65.5791 219.069 65.5791C219.832 65.5791 220.45 66.1964 220.45 66.958C220.45 67.7204 219.832 68.3377 219.069 68.3377C218.306 68.3377 217.688 67.7204 217.688 66.958Z" fill="#DB6332" stroke="#F2F4D9" stroke-width="1.18439" stroke-miterlimit="10" stroke-linejoin="round"></path>
    <path d="M138.085 58.7987V39.4775" stroke="#DB6332" stroke-width="1.17266" stroke-miterlimit="10" stroke-linejoin="round"></path>
    <path d="M135.819 58.799C135.819 57.5493 136.833 56.5356 138.085 56.5356C139.337 56.5356 140.351 57.5493 140.351 58.799C140.351 60.0496 139.337 61.0632 138.085 61.0632C136.833 61.0632 135.819 60.0496 135.819 58.799Z" fill="#DB6332" stroke="#F2F4D9" stroke-width="2.34532" stroke-miterlimit="10" stroke-linejoin="round"></path>
    <path d="M134.998 41.7025C134.998 39.9999 136.38 38.6201 138.085 38.6201C139.79 38.6201 141.172 39.9999 141.172 41.7025C141.172 43.4051 139.79 44.7848 138.085 44.7848C136.38 44.7848 134.998 43.4051 134.998 41.7025Z" fill="#F2F4D9" stroke="#DB6332" stroke-width="1.17266" stroke-miterlimit="10" stroke-linejoin="round"></path>
    <path d="M135.819 124.153C135.819 122.903 136.833 121.89 138.085 121.89C139.337 121.89 140.351 122.903 140.351 124.153C140.351 125.404 139.337 126.417 138.085 126.417C136.833 126.417 135.819 125.404 135.819 124.153Z" fill="#DB6332" stroke="#F2F4D9" stroke-width="2.34532" stroke-miterlimit="10" stroke-linejoin="round"></path>
    <path d="M202.354 91.2287C202.354 89.978 203.369 88.9653 204.622 88.9653C205.873 88.9653 206.888 89.978 206.888 91.2287C206.888 92.4793 205.873 93.492 204.622 93.492C203.369 93.492 202.354 92.4793 202.354 91.2287Z" fill="#DB6332" stroke="#F2F4D9" stroke-width="2.34532" stroke-miterlimit="10" stroke-linejoin="round"></path>
    <path d="M69.2819 91.2287C69.2819 89.978 70.2968 88.9653 71.5483 88.9653C72.8006 88.9653 73.8156 89.978 73.8156 91.2287C73.8156 92.4793 72.8006 93.492 71.5483 93.492C70.2968 93.492 69.2819 92.4793 69.2819 91.2287Z" fill="#DB6332" stroke="#F2F4D9" stroke-width="2.34532" stroke-miterlimit="10" stroke-linejoin="round"></path>
    <path d="M98.7799 104.731C100.952 104.731 102.773 104.31 104.239 103.467C105.706 102.624 106.44 101.007 106.44 98.6162C106.44 96.2388 105.582 94.6149 103.865 93.7446C102.15 92.8734 99.9632 92.4383 97.3062 92.4383C96.6561 92.4383 96.2442 92.4383 96.0715 92.4383C95.8979 92.4383 95.6314 92.4312 95.2718 92.4179V102.99C95.2718 103.722 95.4799 104.195 95.8944 104.409C96.3098 104.624 97.2716 104.731 98.7799 104.731ZM86.865 105.498C88.5806 105.401 89.6912 105.136 90.1969 104.7C90.7017 104.264 90.9542 103.253 90.9542 101.663V82.7781C90.9542 81.2171 90.7017 80.2114 90.1969 79.7621C89.6912 79.3128 88.5806 79.0475 86.865 78.9643V78.1763H98.7799C102.184 78.1763 104.887 78.722 106.886 79.8143C108.885 80.9057 109.885 82.7852 109.885 85.4528C109.885 87.4561 109.187 88.9765 107.789 90.0131C107 90.6074 105.817 91.0983 104.239 91.4848C106.19 91.9545 107.858 92.739 109.242 93.8375C110.626 94.936 111.317 96.4741 111.317 98.45C111.317 101.767 109.782 104.047 106.709 105.29C105.09 105.941 103.098 106.265 100.731 106.265H86.865V105.498ZM99.3193 90.7383C100.745 90.7109 101.928 90.4827 102.869 90.0546C104.669 89.225 105.568 87.74 105.568 85.5978C105.568 83.0682 104.53 81.3621 102.455 80.4776C101.306 79.9938 99.562 79.7515 97.2229 79.7515C96.3372 79.7515 95.7908 79.8276 95.5835 79.9797C95.3754 80.1318 95.2718 80.5466 95.2718 81.2241V90.8011L99.3193 90.7383Z" fill="#DB6332"></path>
    <path d="M114.68 105.581C115.954 105.47 116.798 105.246 117.213 104.907C117.628 104.568 117.836 103.847 117.836 102.741V93.3914C117.836 92.0231 117.708 91.0458 117.452 90.4585C117.196 89.8712 116.729 89.5775 116.05 89.5775C115.912 89.5775 115.729 89.5944 115.5 89.6289C115.272 89.6633 115.034 89.7084 114.784 89.7642V89.0796C115.573 88.8036 116.383 88.5206 117.213 88.2296C118.043 87.9395 118.618 87.7326 118.936 87.6078C119.628 87.3452 120.341 87.048 121.074 86.7163C121.171 86.7163 121.23 86.7508 121.25 86.8207C121.271 86.8896 121.281 87.0347 121.281 87.2558V90.6557C122.167 89.4254 123.022 88.4649 123.845 87.7741C124.669 87.0825 125.523 86.7375 126.408 86.7375C127.114 86.7375 127.689 86.948 128.132 87.3699C128.575 87.7909 128.796 88.3198 128.796 88.9558C128.796 89.5218 128.626 89.9985 128.288 90.3859C127.949 90.7725 127.523 90.9662 127.011 90.9662C126.485 90.9662 125.956 90.7247 125.423 90.2409C124.89 89.7571 124.471 89.5148 124.167 89.5148C123.682 89.5148 123.087 89.9057 122.382 90.6867C121.676 91.4676 121.323 92.2725 121.323 93.1013V102.451C121.323 103.639 121.6 104.465 122.154 104.927C122.707 105.391 123.627 105.608 124.914 105.581V106.265H114.68V105.581Z" fill="#DB6332"></path>
    <path d="M140.835 94.7813C139.244 95.3058 137.929 95.8869 136.891 96.5219C134.898 97.7522 133.902 99.1479 133.902 100.71C133.902 101.968 134.317 102.893 135.148 103.487C135.687 103.875 136.29 104.068 136.954 104.068C137.867 104.068 138.742 103.813 139.58 103.3C140.417 102.789 140.835 102.14 140.835 101.352V94.7813ZM130.207 102.14C130.207 100.136 131.21 98.4642 133.217 97.1234C134.49 96.2946 137.03 95.1678 140.835 93.7447V91.9829C140.835 90.573 140.697 89.5913 140.42 89.0385C139.949 88.1133 138.974 87.6499 137.493 87.6499C136.787 87.6499 136.116 87.8294 135.48 88.1885C134.843 88.5618 134.525 89.073 134.525 89.7231C134.525 89.8884 134.56 90.1688 134.629 90.5624C134.698 90.956 134.733 91.2089 134.733 91.3195C134.733 92.0934 134.477 92.6321 133.965 92.9363C133.674 93.1159 133.328 93.2052 132.927 93.2052C132.304 93.2052 131.827 93.0018 131.495 92.5941C131.163 92.1863 130.996 91.7334 130.996 91.2364C130.996 90.2688 131.595 89.2569 132.791 88.1991C133.989 87.1422 135.742 86.6133 138.054 86.6133C140.738 86.6133 142.559 87.4845 143.513 89.2251C144.025 90.1794 144.281 91.5681 144.281 93.3918V101.705C144.281 102.506 144.337 103.059 144.448 103.363C144.627 103.902 145.001 104.172 145.568 104.172C145.887 104.172 146.149 104.123 146.357 104.027C146.564 103.929 146.924 103.695 147.437 103.322V104.4C146.994 104.939 146.517 105.381 146.004 105.727C145.229 106.251 144.441 106.514 143.638 106.514C142.697 106.514 142.016 106.21 141.593 105.602C141.171 104.993 140.939 104.268 140.898 103.425C139.846 104.337 138.947 105.015 138.199 105.457C136.94 106.203 135.742 106.577 134.608 106.577C133.418 106.577 132.387 106.158 131.515 105.322C130.644 104.486 130.207 103.425 130.207 102.14Z" fill="#DB6332"></path>
    <path d="M148.288 105.685C149.27 105.561 149.958 105.316 150.353 104.949C150.747 104.583 150.945 103.764 150.945 102.492V91.9832C150.945 91.0987 150.862 90.476 150.695 90.1169C150.432 89.5916 149.893 89.3298 149.076 89.3298C148.952 89.3298 148.824 89.336 148.693 89.3501C148.561 89.3643 148.399 89.3846 148.205 89.412V88.6868C148.771 88.5205 150.114 88.0924 152.232 87.4016L154.183 86.7586C154.279 86.7586 154.339 86.7931 154.359 86.8621C154.38 86.932 154.39 87.0284 154.39 87.1531V90.2001C155.664 89.0114 156.66 88.1959 157.379 87.7537C158.459 87.077 159.58 86.7383 160.742 86.7383C161.684 86.7383 162.541 87.008 163.316 87.5467C164.811 88.5965 165.558 90.4698 165.558 93.1648V102.845C165.558 103.84 165.759 104.558 166.16 105.001C166.561 105.443 167.232 105.671 168.174 105.685V106.266H159.31V105.685C160.32 105.546 161.026 105.267 161.427 104.846C161.829 104.424 162.029 103.509 162.029 102.099V93.2471C162.029 92.0583 161.808 91.0739 161.365 90.293C160.922 89.5129 160.105 89.1219 158.916 89.1219C158.099 89.1219 157.269 89.3987 156.425 89.9515C155.954 90.2691 155.345 90.7944 154.598 91.5268V103.135C154.598 104.13 154.82 104.797 155.263 105.136C155.705 105.474 156.404 105.657 157.359 105.685V106.266H148.288V105.685Z" fill="#DB6332"></path>
    <path d="M178.843 86.6759C179.853 86.6759 180.78 86.897 181.624 87.3393C182.178 87.6294 182.711 88.03 183.223 88.5412V81.9493C183.223 81.1064 183.129 80.5253 182.942 80.2078C182.755 79.8903 182.31 79.7311 181.604 79.7311C181.438 79.7311 181.292 79.7382 181.168 79.7514C181.043 79.7656 180.766 79.793 180.338 79.8346V79.1509L182.04 78.7157C182.662 78.5494 183.285 78.377 183.908 78.1974C184.53 78.017 185.078 77.8445 185.548 77.6791C185.769 77.6101 186.136 77.4784 186.648 77.2847L186.773 77.3262L186.731 79.5029C186.717 80.291 186.704 81.1029 186.69 81.9387C186.675 82.7745 186.668 83.6006 186.668 84.4161L186.628 101.352C186.628 102.25 186.738 102.879 186.96 103.238C187.181 103.598 187.769 103.778 188.724 103.778C188.876 103.778 189.029 103.774 189.18 103.767C189.332 103.76 189.485 103.743 189.637 103.715V104.4C189.554 104.427 188.55 104.772 186.628 105.435L183.368 106.659L183.223 106.472V103.923C182.448 104.766 181.777 105.366 181.209 105.726C180.199 106.348 179.029 106.659 177.701 106.659C175.349 106.659 173.443 105.75 171.982 103.933C170.523 102.116 169.793 100.012 169.793 97.6212C169.793 94.6219 170.668 92.0482 172.419 89.8989C174.169 87.7497 176.31 86.6759 178.843 86.6759ZM179.611 104.42C180.69 104.42 181.562 104.103 182.227 103.467C182.891 102.831 183.223 102.23 183.223 101.663V92.7699C183.223 90.9735 182.742 89.7052 181.78 88.9658C180.818 88.2264 179.881 87.8575 178.967 87.8575C177.224 87.8575 175.868 88.6279 174.899 90.1687C173.931 91.7094 173.446 93.6057 173.446 95.8584C173.446 98.0838 173.962 100.067 174.993 101.808C176.023 103.55 177.563 104.42 179.611 104.42Z" fill="#DB6332"></path>
    <path d="M0.800232 101.91C0.800232 96.7708 4.97084 92.605 10.1148 92.605H44.6594C49.8034 92.605 53.974 96.7708 53.974 101.91V136.407C53.974 141.542 49.8034 145.708 44.6594 145.708H10.1148C4.97084 145.708 0.800232 141.542 0.800232 136.407V101.91Z" fill="#1E1E1D" stroke="#FBFCE1" stroke-width="2.34532" stroke-miterlimit="10" stroke-linejoin="round"></path>
    <path d="M0.800232 101.91C0.800232 96.7708 4.97084 92.605 10.1148 92.605H44.6594C49.8034 92.605 53.974 96.7708 53.974 101.91V128.141C53.974 128.141 51.8121 121.497 36.3811 122.9C32.1954 123.283 29.6172 124.223 24.5485 124.376C21.9907 124.456 17.0062 121.369 11.0687 124.142C5.13203 126.916 0.800232 135.471 0.800232 135.471V101.91Z" fill="#DB6332" stroke="#FBFCE1" stroke-width="2.34532" stroke-miterlimit="10" stroke-linejoin="round"></path>
    <path d="M0.91713 135.591C0.91713 135.591 14.4679 101.414 44.8224 145.238L33.3822 130.633C33.3822 130.633 46.1252 118.154 54.0652 128.21" stroke="#FBFCE1" stroke-width="2.34532" stroke-miterlimit="10" stroke-linejoin="round"></path>
    <path d="M20.9988 123.267C22.3866 118.172 26.8902 114.444 32.2326 114.444C37.8362 114.444 42.5179 118.548 43.648 124.022C43.6825 124.19 40.7076 125.316 37.7565 127.321C36.0463 128.479 33.9357 130.309 33.484 131.45C33.3476 131.793 36.2553 134.716 36.2553 134.716C36.2553 134.716 38.4934 136.83 38.4695 136.844C38.3021 136.957 38.2339 136.826 37.7875 136.356C37.3031 135.849 36.4298 134.974 35.9896 134.515C34.2812 132.729 32.5568 130.791 29.4472 128.129C26.1206 125.283 20.8792 123.705 20.9988 123.267Z" fill="#FCFDE2" stroke="#FBFCE1" stroke-width="2.34532" stroke-miterlimit="10" stroke-linejoin="round"></path>
    <path opacity="0.0286008" d="M39.488 97.1318H68.7859V126.392H39.488V97.1318Z" fill="#DB6332"></path>
    <path d="M0.662048 37.1208C0.662048 31.9962 4.71751 27.8428 9.71977 27.8428H50.6704C55.6727 27.8428 59.7282 31.9962 59.7282 37.1208V71.9838C59.7282 77.1084 55.6727 81.2618 50.6704 81.2618H9.71977C4.71751 81.2618 0.662048 77.1084 0.662048 71.9838V37.1208Z" fill="#31251F" stroke="#DB6332" stroke-width="2.34532" stroke-miterlimit="10" stroke-linejoin="round"></path>
    <path d="M16.5367 64.9428H8.3461V63.073H10.9535L19.6118 41.5752H23.1554L31.0777 63.073H33.5841V64.9428H24.0242V63.073H26.9992L24.8266 57.1984H15.9345L13.6619 63.073H16.5367V64.9428ZM16.7033 55.3286H24.258L21.5169 47.6179L20.6817 44.0791H20.5471L19.5782 47.6842L16.7033 55.3286Z" fill="#DB6332"></path>
    <path d="M49.0948 60.3031C49.0948 60.8143 49.1063 61.3317 49.1285 61.8553C49.1506 62.3781 49.1843 62.8513 49.2285 63.274H51.4347V64.943H46.1872L45.8524 61.7713H45.685C45.5734 62.2171 45.3679 62.6505 45.0668 63.0732C44.7657 63.496 44.3875 63.8746 43.9305 64.2089C43.4735 64.5424 42.9332 64.8095 42.3088 65.0094C41.6853 65.2101 40.9945 65.3101 40.2363 65.3101C39.4791 65.3101 38.7821 65.1986 38.1471 64.9766C37.512 64.7537 36.9612 64.4424 36.4926 64.0417C36.025 63.6411 35.6628 63.1573 35.4068 62.5894C35.1499 62.0225 35.0215 61.3822 35.0215 60.6702C35.0215 59.5796 35.25 58.6783 35.7071 57.9663C36.1641 57.2544 36.838 56.6918 37.729 56.2806C38.6209 55.8684 39.7351 55.5739 41.0724 55.3952C42.4098 55.2174 43.9694 55.1175 45.7523 55.0954C45.7966 54.7389 45.8187 54.4002 45.8187 54.0774C45.8187 53.7545 45.8187 53.437 45.8187 53.1257C45.8187 51.7459 45.5849 50.6943 45.1173 49.9708C44.6488 49.2473 43.8136 48.8864 42.61 48.8864C42.1645 48.8864 41.6853 48.9085 41.1725 48.9528C40.6597 48.997 40.1921 49.1314 39.7687 49.3534V52.4252H36.7601V48.7193C37.5625 48.2965 38.5093 47.9179 39.6013 47.5845C40.6934 47.2502 41.9749 47.083 43.4451 47.083C44.7161 47.083 45.7355 47.2449 46.5042 47.5677C47.273 47.8905 47.8637 48.3133 48.2756 48.836C48.6883 49.3587 48.9558 49.9487 49.078 50.6049C49.2011 51.2621 49.2622 51.9131 49.2622 52.5578C49.2622 53.9606 49.2347 55.3014 49.179 56.5813C49.1223 57.8602 49.0948 59.1011 49.0948 60.3031ZM41.7748 63.0732C42.3088 63.0732 42.788 62.9901 43.2113 62.8229C43.6347 62.6567 44.0084 62.4453 44.3317 62.1888C44.655 61.9332 44.9331 61.6493 45.1669 61.3379C45.4007 61.0266 45.5964 60.7259 45.7523 60.4367V56.4636C44.3033 56.4636 43.1281 56.5583 42.2256 56.7476C41.3231 56.9368 40.6154 57.1871 40.1026 57.4985C39.5907 57.8098 39.2391 58.183 39.0496 58.6173C38.86 59.0507 38.7653 59.5124 38.7653 60.0024C38.7653 61.0036 39.0327 61.766 39.5686 62.2896C40.1026 62.8123 40.8386 63.0732 41.7748 63.0732Z" fill="#DB6332"></path>
    <path d="M55.128 74.8896L54.6081 89.0314L59.4314 86.5787L61.9574 91.8342L64.6675 90.0963L61.6598 85.329L66.7028 82.5111L55.128 74.8896Z" fill="#F2F3D9" stroke="#DB6332" stroke-width="2.34532" stroke-miterlimit="10" stroke-linejoin="round"></path>
    <path d="M51.2355 75.585L47.1136 76.9532" stroke="#F2F4D9" stroke-width="1.17266" stroke-miterlimit="10" stroke-linecap="round" stroke-linejoin="round"></path>
    <path d="M51.301 72.771L47.6273 71.0542" stroke="#F2F4D9" stroke-width="1.17266" stroke-miterlimit="10" stroke-linecap="round" stroke-linejoin="round"></path>
    <path d="M54.098 71.0541L52.9271 67.4331" stroke="#F2F4D9" stroke-width="1.17266" stroke-miterlimit="10" stroke-linecap="round" stroke-linejoin="round"></path>
    <path d="M57.1473 71.4663L59.5608 69.2437" stroke="#F2F4D9" stroke-width="1.17266" stroke-miterlimit="10" stroke-linecap="round" stroke-linejoin="round"></path>
    <path d="M222.363 68.3379C222.363 68.3379 225.929 71.2177 228.978 72.8398C232.025 74.462 234.556 74.8263 234.556 74.8263C234.556 74.8263 233.56 77.6584 233.324 80.3985C233.087 83.1377 233.611 85.7849 233.611 85.7849L228.195 88.1941C228.195 88.1941 226.443 85.968 224.161 84.3556C221.88 82.7423 219.069 81.7429 219.069 81.7429C219.069 81.7429 220.39 79.6396 221.213 76.2884C222.037 72.9371 222.363 68.3379 222.363 68.3379Z" fill="#DB6332" stroke="#F2F4D9" stroke-width="1.17266" stroke-miterlimit="10" stroke-linejoin="round"></path>
    <path d="M227.662 80.0813L222.314 68.3604" stroke="#F2F4D9" stroke-width="0.586331" stroke-miterlimit="10" stroke-linejoin="round"></path>
    <path d="M229.082 79.2473C228.905 80.3423 227.873 81.0852 226.778 80.9084C225.681 80.7315 224.937 79.7011 225.114 78.6061C225.291 77.512 226.323 76.7691 227.42 76.946C228.515 77.1229 229.259 78.1533 229.082 79.2473Z" fill="#F2F3D9" stroke="#F2F4D9" stroke-width="0.0117266" stroke-miterlimit="10" stroke-linejoin="round"></path>
    <path d="M228.539 90.2074L235.362 87.1772L236.431 89.5741L229.606 92.6052L228.539 90.2074Z" fill="#DB6332" stroke="#F2F4D9" stroke-width="1.17266" stroke-miterlimit="10" stroke-linejoin="round"></path>
  </g>
  <defs>
    <clipPath id="clip0_75_49">
      <rect width="296.683" height="163" fill="white" transform="translate(0.658279)"></rect>
    </clipPath>
  </defs>
</svg>
