<?xml version="1.0" encoding="UTF-8"?>
<svg xmlns="http://www.w3.org/2000/svg" width="247" height="156" viewBox="0 0 247 156" fill="none">
  <g clip-path="url(#clip0_125_1500)">
    <path d="M17.7339 9.08619C17.7339 4.52715 21.4296 0.831543 25.9886 0.831543H217.679C222.238 0.831543 225.934 4.52715 225.934 9.08619V145.058C225.934 149.616 222.238 153.312 217.679 153.312H25.9886C21.4296 153.312 17.7339 149.616 17.7339 145.058V9.08619Z" fill="#2B2B2B" stroke="#F2F3D9" stroke-width="3.3369" stroke-miterlimit="10" stroke-linejoin="round"></path>
    <path d="M17.5721 8.44057C17.5721 3.88153 21.2677 0.185059 25.8276 0.185059H217.753C222.313 0.185059 226.009 3.88153 226.009 8.44057C226.009 8.44057 226.027 18.4638 226.02 18.4638H17.7915C17.6605 18.4638 17.5721 8.44057 17.5721 8.44057Z" fill="#F2F3D9" stroke="#F2F4D9" stroke-width="3.3369" stroke-miterlimit="10" stroke-linejoin="round"></path>
    <path d="M187.838 8.7641C187.838 6.62849 189.57 4.89746 191.705 4.89746C193.84 4.89746 195.571 6.62849 195.571 8.7641C195.571 10.8997 193.84 12.6307 191.705 12.6307C189.57 12.6307 187.838 10.8997 187.838 8.7641Z" fill="#FDC4AD"></path>
    <path d="M200.295 8.7641C200.295 6.62849 202.026 4.89746 204.161 4.89746C206.296 4.89746 208.028 6.62849 208.028 8.7641C208.028 10.8997 206.296 12.6307 204.161 12.6307C202.026 12.6307 200.295 10.8997 200.295 8.7641Z" fill="#E19577"></path>
    <path d="M211.858 8.7641C211.858 6.62849 213.59 4.89746 215.725 4.89746C217.86 4.89746 219.591 6.62849 219.591 8.7641C219.591 10.8997 217.86 12.6307 215.725 12.6307C213.59 12.6307 211.858 10.8997 211.858 8.7641Z" fill="#DB6332"></path>
    <path opacity="0.615286" d="M30.4726 41.8079C30.4726 36.9627 34.4001 33.0352 39.2461 33.0352H205.045C209.89 33.0352 213.818 36.9627 213.818 41.8079V115.286C213.818 120.131 209.89 124.058 205.045 124.058H39.2461C34.4001 124.058 30.4726 120.131 30.4726 115.286V41.8079Z" fill="#DB6332"></path>
    <path d="M-0.25528 20.745C-0.25528 15.7347 3.80656 11.6729 8.81691 11.6729H66.2049C71.2161 11.6729 75.2771 15.7347 75.2771 20.745V67.6768C75.2771 72.6872 71.2161 76.749 66.2049 76.749H8.81691C3.80656 76.749 -0.25528 72.6872 -0.25528 67.6768V20.745Z" fill="#974D2F" stroke="#1E1E1D" stroke-width="3.3369" stroke-miterlimit="10" stroke-linejoin="round"></path>
    <path d="M169.02 86.2429C169.02 80.9989 173.27 76.7485 178.513 76.7485H235.059C240.302 76.7485 244.552 80.9989 244.552 86.2429V132.33C244.552 137.574 240.302 141.825 235.059 141.825H178.513C173.27 141.825 169.02 137.574 169.02 132.33V86.2429Z" fill="#1E1E1D" stroke="#F2F4D9" stroke-width="3.3369" stroke-miterlimit="10" stroke-linejoin="round"></path>
    <path d="M29.8168 41.0654C29.8168 36.9602 33.1437 33.6333 37.2489 33.6333C41.3533 33.6333 44.6802 36.9602 44.6802 41.0654C44.6802 45.1698 41.3533 48.4967 37.2489 48.4967C33.1437 48.4967 29.8168 45.1698 29.8168 41.0654Z" fill="#1E1E1D" stroke="#F2F4D9" stroke-width="1.66845" stroke-miterlimit="10" stroke-linejoin="round"></path>
    <path d="M25.4614 59.85C25.4614 54.6436 30.8563 50.4224 37.5109 50.4224C44.1663 50.4224 49.5613 54.6436 49.5613 59.85C49.5613 65.0572 25.4614 65.0572 25.4614 59.85Z" fill="#1E1E1D" stroke="#F2F4D9" stroke-width="1.66845" stroke-miterlimit="10" stroke-linejoin="round"></path>
    <path d="M199.24 101.805C199.24 97.7786 202.503 94.5151 206.529 94.5151C210.554 94.5151 213.818 97.7786 213.818 101.805C213.818 105.83 210.554 109.093 206.529 109.093C202.503 109.093 199.24 105.83 199.24 101.805Z" fill="#974D2F" stroke="#F2F4D9" stroke-width="1.66845" stroke-miterlimit="10" stroke-linejoin="round"></path>
    <path d="M107.085 74.1369C107.085 66.2886 113.447 59.9268 121.295 59.9268C129.143 59.9268 135.506 66.2886 135.506 74.1369C135.506 81.9845 129.143 88.3463 121.295 88.3463C113.447 88.3463 107.085 81.9845 107.085 74.1369Z" fill="#1E1E1D" stroke="#F2F4D9" stroke-width="3.3369" stroke-miterlimit="10" stroke-linejoin="round"></path>
    <path d="M115.131 137.275C115.131 133.593 118.115 130.608 121.797 130.608C125.478 130.608 128.462 133.593 128.462 137.275C128.462 140.956 125.478 143.94 121.797 143.94C118.115 143.94 115.131 140.956 115.131 137.275Z" fill="#F2F3D9" stroke="#F2F4D9" stroke-width="3.3369" stroke-miterlimit="10" stroke-linejoin="round"></path>
    <path d="M117.319 134.812H126.275" stroke="#DB6332" stroke-width="1.66845" stroke-miterlimit="10" stroke-linecap="round" stroke-linejoin="round"></path>
    <path d="M117.319 137.275H126.275" stroke="#DB6332" stroke-width="1.66845" stroke-miterlimit="10" stroke-linecap="round" stroke-linejoin="round"></path>
    <path d="M117.319 139.713H126.275" stroke="#DB6332" stroke-width="1.66845" stroke-miterlimit="10" stroke-linecap="round" stroke-linejoin="round"></path>
    <path d="M194.967 120.228C194.967 115.121 200.259 110.982 206.786 110.982C213.313 110.982 218.604 115.121 218.604 120.228C218.604 125.336 194.967 125.336 194.967 120.228Z" fill="#974D2F" stroke="#F2F4D9" stroke-width="1.66845" stroke-miterlimit="10" stroke-linejoin="round"></path>
    <path d="M98.7571 110.054C98.7571 100.098 109.072 92.0269 121.797 92.0269C134.521 92.0269 144.836 100.098 144.836 110.054C144.836 120.009 98.7571 120.009 98.7571 110.054Z" fill="#1E1E1D" stroke="#F2F4D9" stroke-width="3.3369" stroke-miterlimit="10" stroke-linejoin="round"></path>
    <path d="M86.5541 137.275C86.5541 133.593 89.539 130.608 93.2204 130.608C96.9019 130.608 99.8859 133.593 99.8859 137.275C99.8859 140.956 96.9019 143.94 93.2204 143.94C89.539 143.94 86.5541 140.956 86.5541 137.275Z" fill="#F2F3D9" stroke="#F2F4D9" stroke-width="3.3369" stroke-miterlimit="10" stroke-linejoin="round"></path>
    <path d="M88.769 134.812H95.0883V140.356H88.769V134.812Z" fill="#DB6332" stroke="#DB6332" stroke-width="1.66845" stroke-miterlimit="10" stroke-linejoin="round"></path>
    <path d="M95.0883 137.189L97.6493 135.362L97.6718 139.806L95.0883 138.313V137.189Z" fill="#DB6332" stroke="#DB6332" stroke-width="0.834225" stroke-miterlimit="10" stroke-linejoin="round"></path>
    <path d="M142.328 137.275C142.328 133.593 145.313 130.608 148.994 130.608C152.676 130.608 155.66 133.593 155.66 137.275C155.66 140.956 152.676 143.94 148.994 143.94C145.313 143.94 142.328 140.956 142.328 137.275Z" fill="#DB6332" stroke="#DB6332" stroke-width="3.3369" stroke-miterlimit="10" stroke-linejoin="round"></path>
    <path d="M143.642 139.709C143.086 138.849 143.353 137.689 144.237 137.118C145.121 136.548 146.288 136.782 146.844 137.642C147.398 138.502 147.132 139.662 146.248 140.233C145.364 140.803 144.197 140.569 143.642 139.709Z" fill="#F2F4D9"></path>
    <path d="M150.879 139.484C150.337 138.645 150.598 137.513 151.459 136.957C152.322 136.4 153.46 136.629 154.001 137.468C154.543 138.307 154.282 139.438 153.421 139.994C152.558 140.551 151.42 140.322 150.879 139.484Z" fill="#F2F4D9"></path>
    <path d="M143.366 138.635C143.366 138.635 143.281 134.032 149.707 134.699C156.135 135.366 154.11 139.28 153.909 139.481C153.707 139.68 152.113 137.208 152.006 137.282C151.897 137.355 148.615 135.434 145.671 137.296C142.728 139.159 143.366 138.635 143.366 138.635Z" fill="#F2F4D9"></path>
  </g>
  <defs>
    <clipPath id="clip0_125_1500">
      <rect width="246.93" height="156" fill="white"></rect>
    </clipPath>
  </defs>
</svg>
