<?xml version="1.0" encoding="UTF-8"?>
<svg xmlns="http://www.w3.org/2000/svg" width="358" height="240" viewBox="0 0 358 240" fill="none">
  <g clip-path="url(#clip0_128_26)">
    <path d="M32.9005 14.6838H332.814L329.86 222.618C329.86 222.618 360.685 222.199 286.445 223.207C212.206 224.213 32.9005 226.644 32.9005 226.644V14.6838Z" fill="#2B2B2B"></path>
    <path d="M26.8279 224.288L25.5177 16.9902C25.5177 16.9902 23.5163 5.04813 38.6762 2.63808C53.8373 0.228028 322.254 2.99988 322.254 2.99988C322.254 2.99988 334.092 3.10686 334.573 17.1236C335.054 31.1404 334.694 218.694 334.694 218.694H322.589L323.055 15.799L37.3011 14.7809L37.1052 223.929L26.8279 224.288Z" stroke="#F2F3D9" stroke-width="2.40404" stroke-miterlimit="10" stroke-linejoin="round"></path>
    <path d="M0.439942 218.122L357.942 217.534C357.942 217.534 360.965 235.319 348.14 237.55L8.05832 237.942C8.05832 237.942 -3.0976 231.988 0.439942 218.122Z" fill="#F2F3D9"></path>
    <g opacity="0.340239">
      <path d="M65.105 195.12C61.7586 195.12 59.0396 197.84 59.0396 201.186V217.032H114.211V201.186C114.211 197.84 111.533 195.12 108.187 195.12H65.105ZM126.591 195.12C123.243 195.12 120.566 197.84 120.566 201.186V217.032H175.738V201.186C175.738 197.84 173.019 195.12 169.672 195.12H126.591ZM188.158 195.12C184.812 195.12 182.093 197.84 182.093 201.186V217.032H237.264V201.186C237.264 197.84 234.545 195.12 231.199 195.12H188.158ZM249.396 195.12C246.05 195.12 243.372 197.84 243.372 201.186V217.032H298.543V201.186C298.543 197.84 295.824 195.12 292.478 195.12H249.396Z" fill="#A3512F"></path>
      <path d="M59.0324 139.209C59.0324 136.195 61.4761 133.751 64.4919 133.751H293.092C296.107 133.751 298.551 136.195 298.551 139.209V177.39C298.551 180.405 296.107 182.85 293.092 182.85H64.4919C61.4761 182.85 59.0324 180.405 59.0324 177.39V139.209Z" fill="#A3512F"></path>
      <path opacity="0.176615" d="M59.274 58.0956C59.274 54.7865 61.9557 52.1047 65.2649 52.1047H135.406C138.716 52.1047 141.398 54.7865 141.398 58.0956V114.173C141.398 117.483 138.716 120.164 135.406 120.164H65.2649C61.9557 120.164 59.274 117.483 59.274 114.173V58.0956Z" fill="#F2F4D9"></path>
      <path opacity="0.68604" d="M150.751 57.6701C150.751 54.5965 153.243 52.1047 156.317 52.1047H293.402C296.476 52.1047 298.968 54.5965 298.968 57.6701C298.968 60.7437 296.476 63.2355 293.402 63.2355H156.317C153.243 63.2355 150.751 60.7437 150.751 57.6701Z" fill="#DB6332"></path>
      <path opacity="0.68604" d="M59.274 33.0339C59.274 29.9603 61.7658 27.4685 64.8393 27.4685H99.0368C102.11 27.4685 104.602 29.9603 104.602 33.0339V33.9426C104.602 37.0162 102.11 39.508 99.0368 39.508H64.8393C61.7658 39.508 59.274 37.0162 59.274 33.9426V33.0339Z" fill="#DB6332"></path>
      <path opacity="0.68604" d="M118.733 32.9374C118.733 29.8639 121.225 27.3721 124.298 27.3721H158.497C161.571 27.3721 164.063 29.8639 164.063 32.9374V33.8461C164.063 36.9197 161.571 39.4115 158.497 39.4115H124.298C121.225 39.4115 118.733 36.9197 118.733 33.8461V32.9374Z" fill="#50514C"></path>
      <path opacity="0.68604" d="M168.417 33.0339C168.417 29.9603 170.909 27.4685 173.983 27.4685H208.181C211.255 27.4685 213.746 29.9603 213.746 33.0339V33.9426C213.746 37.0162 211.255 39.508 208.181 39.508H173.983C170.909 39.508 168.417 37.0162 168.417 33.9426V33.0339Z" fill="#50514C"></path>
      <path d="M253.303 33.0339C253.303 29.9603 255.795 27.4685 258.868 27.4685H293.067C296.14 27.4685 298.632 29.9603 298.632 33.0339V33.9426C298.632 37.0162 296.14 39.508 293.067 39.508H258.868C255.795 39.508 253.303 37.0162 253.303 33.9426V33.0339Z" fill="#A3512F"></path>
      <path opacity="0.176615" d="M150.417 76.1574C150.417 73.0838 152.908 70.592 155.981 70.592H293.067C296.14 70.592 298.632 73.0838 298.632 76.1574C298.632 79.231 296.14 81.7228 293.067 81.7228H155.981C152.908 81.7228 150.417 79.231 150.417 76.1574Z" fill="#F2F4D9"></path>
      <path opacity="0.176615" d="M150.751 113.285C150.751 110.212 153.243 107.72 156.317 107.72H293.402C296.476 107.72 298.968 110.212 298.968 113.285C298.968 116.359 296.476 118.851 293.402 118.851H156.317C153.243 118.851 150.751 116.359 150.751 113.285Z" fill="#F2F4D9"></path>
      <path opacity="0.68604" d="M150.751 94.4848C150.751 91.4112 153.243 88.9194 156.317 88.9194H293.402C296.476 88.9194 298.968 91.4112 298.968 94.4848C298.968 97.5584 296.476 100.05 293.402 100.05H156.317C153.243 100.05 150.751 97.5584 150.751 94.4848Z" fill="#DB6332"></path>
    </g>
    <path d="M301.611 176.217C301.611 164.887 310.633 155.702 321.764 155.702C332.895 155.702 341.917 164.887 341.917 176.217C341.917 187.548 332.895 196.732 321.764 196.732C310.633 196.732 301.611 187.548 301.611 176.217Z" fill="#1E1E1D" stroke="#FBFCE1" stroke-width="2.40404" stroke-miterlimit="10" stroke-linejoin="round"></path>
    <path d="M338.486 146.012C321.805 136.775 300.797 142.809 291.56 159.49C282.322 176.172 288.354 197.185 305.035 206.423C321.717 215.659 342.733 209.624 351.969 192.942C361.207 176.26 355.168 155.249 338.486 146.012ZM331.057 159.43C340.328 164.564 343.685 176.24 338.551 185.511C333.418 194.784 321.737 198.138 312.465 193.005C303.194 187.871 299.844 176.192 304.978 166.921C310.112 157.65 321.786 154.296 331.057 159.43Z" fill="#1E1E1D" stroke="#FBFCE1" stroke-width="2.40404" stroke-miterlimit="10" stroke-linecap="round" stroke-linejoin="round"></path>
    <path d="M334.549 153.125C321.795 146.062 305.734 150.676 298.672 163.429C291.61 176.182 296.221 192.249 308.974 199.31C321.728 206.372 337.795 201.758 344.857 189.004C351.919 176.251 347.302 160.187 334.549 153.125ZM328.868 163.383C335.956 167.309 338.524 176.235 334.598 183.324C330.673 190.412 321.744 192.977 314.655 189.051C307.567 185.127 305.005 176.198 308.93 169.11C312.856 162.021 321.78 159.459 328.868 163.383Z" fill="#DB6332" stroke="#FBFCE1" stroke-width="2.40404" stroke-miterlimit="10" stroke-linecap="round" stroke-linejoin="round"></path>
    <path d="M348.103 177.506L336.435 176.199C336.441 178.614 335.85 181.06 334.598 183.322C330.672 190.41 321.744 192.974 314.655 189.05C310.898 186.969 308.426 183.481 307.506 179.608L296.572 184.036C298.518 190.31 302.774 195.877 308.973 199.31C321.727 206.372 337.795 201.756 344.858 189.003C346.883 185.346 347.915 181.417 348.103 177.506Z" fill="#FBFCE1" stroke="#FBFCE1" stroke-width="2.40404" stroke-miterlimit="10" stroke-linecap="round" stroke-linejoin="round"></path>
    <path d="M285.266 47.7898L255.366 65.6698L264.08 70.8902L240.791 108.679L195.316 84.7663L145.825 135.377L118.125 105.35H105.368L144.553 149.435L195.114 96.9969L247.064 122.202L273.659 76.6383L283.201 82.3851L285.266 47.7898Z" fill="#DB6332" stroke="#2B2B2B" stroke-width="3.60606" stroke-miterlimit="10" stroke-linecap="round" stroke-linejoin="round"></path>
    <path d="M-0.252472 135.965C-0.252472 130.401 5.22274 125.891 11.9769 125.891H112.54C119.294 125.891 124.771 130.401 124.771 135.965V200.672C124.771 206.24 119.294 210.75 112.54 210.75H11.9769C5.22274 210.75 -0.252472 206.24 -0.252472 200.672V135.965Z" fill="#1E1E1D" stroke="#DB6332" stroke-width="2.40404" stroke-miterlimit="10" stroke-linejoin="round"></path>
    <path d="M19.7852 140.091L19.8273 196.551L107.136 196.518" stroke="#8C4A2F" stroke-width="2.40404" stroke-miterlimit="10" stroke-linecap="round" stroke-linejoin="round"></path>
    <path opacity="0.796578" d="M24.9106 153.102H38.1978V192.392H24.9106V153.102Z" fill="#DB6332"></path>
    <path opacity="0.553849" d="M40.8242 145.075H54.1113V192.597H40.8242V145.075Z" fill="#DB6332"></path>
    <path opacity="0.796578" d="M56.5334 162.17H69.8193V192.392H56.5334V162.17Z" fill="#DB6332"></path>
    <path opacity="0.553849" d="M72.3436 168.834H85.6307V192.391H72.3436V168.834Z" fill="#DB6332"></path>
    <path opacity="0.796578" d="M88.0984 158.53H101.386V192.392H88.0984V158.53Z" fill="#DB6332"></path>
    <path d="M65.3081 131.825C65.3081 122.093 73.1982 114.203 82.9309 114.203H281.345C291.078 114.203 298.968 122.093 298.968 131.825C298.968 141.558 291.078 149.448 281.345 149.448H82.9309C73.1982 149.448 65.3081 141.558 65.3081 131.825Z" fill="#FBFCE1" stroke="#E36733" stroke-width="2.40404" stroke-miterlimit="10" stroke-linejoin="round"></path>
    <path d="M69.8866 131.825C69.8866 124.154 76.1059 117.935 83.7784 117.935H280.497C288.17 117.935 294.389 124.154 294.389 131.825C294.389 139.498 288.17 145.717 280.497 145.717H83.7784C76.1059 145.717 69.8866 139.498 69.8866 131.825Z" fill="#1E1E1D"></path>
    <path d="M260.585 120.583H279.946C286.155 120.583 291.188 125.617 291.188 131.825C291.188 138.035 286.155 143.068 279.946 143.068H260.585V120.583Z" fill="#FBFCE1"></path>
    <path d="M270.791 130.155C270.791 127.995 272.542 126.243 274.702 126.243C276.864 126.243 278.615 127.995 278.615 130.155C278.615 132.316 276.864 134.067 274.702 134.067C272.542 134.067 270.791 132.316 270.791 130.155Z" stroke="#1E1E1D" stroke-width="2.40404" stroke-miterlimit="10" stroke-linejoin="round"></path>
    <path d="M280.982 136.63L277.263 133.321" stroke="#1E1E1D" stroke-width="2.40404" stroke-miterlimit="10" stroke-linecap="round" stroke-linejoin="round"></path>
    <path d="M100.117 134.76C99.8362 134.76 99.5897 134.665 99.3782 134.477C99.1666 134.289 99.0608 134.031 99.0608 133.703C99.0608 133.411 99.163 133.163 99.3674 132.959C99.5717 132.756 99.8217 132.654 100.117 132.654C100.413 132.654 100.666 132.756 100.875 132.959C101.084 133.163 101.188 133.411 101.188 133.703C101.188 134.036 101.08 134.296 100.864 134.481C100.649 134.666 100.4 134.76 100.117 134.76ZM95.3141 134.76C95.0329 134.76 94.7877 134.666 94.5785 134.481C94.3694 134.296 94.2648 134.036 94.2648 133.703C94.2648 133.407 94.3658 133.158 94.5677 132.956C94.7696 132.755 95.0185 132.654 95.3141 132.654C95.6098 132.654 95.8623 132.756 96.0714 132.959C96.2806 133.163 96.3851 133.411 96.3851 133.703C96.3851 134.036 96.277 134.296 96.0606 134.481C95.8442 134.666 95.5954 134.76 95.3141 134.76ZM104.921 134.76C104.644 134.76 104.399 134.665 104.185 134.477C103.971 134.289 103.864 134.031 103.864 133.703C103.864 133.411 103.966 133.163 104.171 132.959C104.375 132.756 104.625 132.654 104.921 132.654C105.216 132.654 105.469 132.756 105.678 132.959C105.887 133.163 105.992 133.411 105.992 133.703C105.992 134.031 105.885 134.289 105.671 134.477C105.458 134.665 105.208 134.76 104.921 134.76Z" fill="#FBFCE1"></path>
    <path d="M114.542 134.76C114.26 134.76 114.014 134.665 113.802 134.477C113.591 134.289 113.485 134.031 113.485 133.703C113.485 133.411 113.587 133.163 113.792 132.959C113.996 132.756 114.246 132.654 114.542 132.654C114.837 132.654 115.09 132.756 115.299 132.959C115.508 133.163 115.613 133.411 115.613 133.703C115.613 134.036 115.504 134.296 115.288 134.481C115.073 134.666 114.824 134.76 114.542 134.76ZM109.738 134.76C109.457 134.76 109.212 134.666 109.003 134.481C108.794 134.296 108.689 134.036 108.689 133.703C108.689 133.407 108.79 133.158 108.992 132.956C109.194 132.755 109.443 132.654 109.738 132.654C110.034 132.654 110.287 132.756 110.496 132.959C110.705 133.163 110.809 133.411 110.809 133.703C110.809 134.036 110.701 134.296 110.485 134.481C110.268 134.666 110.02 134.76 109.738 134.76ZM119.345 134.76C119.068 134.76 118.823 134.665 118.609 134.477C118.395 134.289 118.288 134.031 118.288 133.703C118.288 133.411 118.391 133.163 118.595 132.959C118.799 132.756 119.049 132.654 119.345 132.654C119.641 132.654 119.893 132.756 120.102 132.959C120.311 133.163 120.416 133.411 120.416 133.703C120.416 134.031 120.309 134.289 120.095 134.477C119.882 134.665 119.632 134.76 119.345 134.76Z" fill="#FBFCE1"></path>
    <path d="M128.966 134.76C128.685 134.76 128.438 134.665 128.227 134.477C128.015 134.289 127.909 134.031 127.909 133.703C127.909 133.411 128.012 133.163 128.216 132.959C128.42 132.756 128.67 132.654 128.966 132.654C129.262 132.654 129.514 132.756 129.723 132.959C129.932 133.163 130.037 133.411 130.037 133.703C130.037 134.036 129.929 134.296 129.712 134.481C129.497 134.666 129.248 134.76 128.966 134.76ZM124.163 134.76C123.881 134.76 123.636 134.666 123.427 134.481C123.218 134.296 123.113 134.036 123.113 133.703C123.113 133.407 123.214 133.158 123.416 132.956C123.618 132.755 123.867 132.654 124.163 132.654C124.458 132.654 124.711 132.756 124.92 132.959C125.129 133.163 125.234 133.411 125.234 133.703C125.234 134.036 125.125 134.296 124.909 134.481C124.693 134.666 124.444 134.76 124.163 134.76ZM133.769 134.76C133.493 134.76 133.248 134.665 133.034 134.477C132.82 134.289 132.713 134.031 132.713 133.703C132.713 133.411 132.815 133.163 133.019 132.959C133.223 132.756 133.473 132.654 133.769 132.654C134.065 132.654 134.317 132.756 134.526 132.959C134.736 133.163 134.84 133.411 134.84 133.703C134.84 134.031 134.733 134.289 134.519 134.477C134.306 134.665 134.056 134.76 133.769 134.76Z" fill="#FBFCE1"></path>
    <path d="M-0.252472 48.8957C-0.252472 41.6235 5.64346 35.7275 12.9157 35.7275H92.1985C99.4719 35.7275 105.368 41.6235 105.368 48.8957V92.1804C105.368 99.4538 99.4719 105.35 92.1985 105.35H12.9157C5.64346 105.35 -0.252472 99.4538 -0.252472 92.1804V48.8957Z" fill="#1E1E1D" stroke="#DB6332" stroke-width="2.40404" stroke-miterlimit="10" stroke-linejoin="round"></path>
    <path d="M89.4964 60.8752L67.616 81.3432L48.7936 66.7339L33.3885 77.3561L21.1315 74.3415L12.8039 82.1931" stroke="#DB6332" stroke-width="2.40404" stroke-miterlimit="10" stroke-linecap="round" stroke-linejoin="round"></path>
    <path d="M18.5051 74.5602C18.5051 73.006 19.7648 71.7451 21.319 71.7451C22.8732 71.7451 24.1341 73.006 24.1341 74.5602C24.1341 76.1144 22.8732 77.3742 21.319 77.3742C19.7648 77.3742 18.5051 76.1144 18.5051 74.5602Z" fill="#DB6332"></path>
    <mask id="mask0_128_26" style="mask-type:luminance" maskUnits="userSpaceOnUse" x="18" y="71" width="7" height="7">
      <path d="M24.1341 71.7451H18.5051V77.3741H24.1341V71.7451Z" fill="black"></path>
      <path d="M18.5051 74.5602C18.5051 73.006 19.7648 71.7451 21.319 71.7451C22.8732 71.7451 24.1341 73.006 24.1341 74.5602C24.1341 76.1144 22.8732 77.3742 21.319 77.3742C19.7648 77.3742 18.5051 76.1144 18.5051 74.5602Z" fill="white"></path>
    </mask>
    <g mask="url(#mask0_128_26)">
      <path d="M18.5051 74.5602C18.5051 73.006 19.7648 71.7451 21.319 71.7451C22.8732 71.7451 24.1341 73.006 24.1341 74.5602C24.1341 76.1144 22.8732 77.3742 21.319 77.3742C19.7648 77.3742 18.5051 76.1144 18.5051 74.5602Z" stroke="#FBFCE1" stroke-width="2.40404" stroke-miterlimit="10" stroke-linejoin="round"></path>
    </g>
    <path d="M29.9459 77.1071C29.9459 75.5529 31.2056 74.2932 32.7598 74.2932C34.314 74.2932 35.5749 75.5529 35.5749 77.1071C35.5749 78.6626 34.314 79.9223 32.7598 79.9223C31.2056 79.9223 29.9459 78.6626 29.9459 77.1071Z" fill="#DB6332"></path>
    <mask id="mask1_128_26" style="mask-type:luminance" maskUnits="userSpaceOnUse" x="29" y="74" width="7" height="6">
      <path d="M35.5749 74.2932H29.9459V79.9222H35.5749V74.2932Z" fill="black"></path>
      <path d="M29.9459 77.1071C29.9459 75.5529 31.2056 74.2932 32.7598 74.2932C34.314 74.2932 35.5749 75.5529 35.5749 77.1071C35.5749 78.6626 34.314 79.9223 32.7598 79.9223C31.2056 79.9223 29.9459 78.6626 29.9459 77.1071Z" fill="white"></path>
    </mask>
    <g mask="url(#mask1_128_26)">
      <path d="M29.9459 77.1071C29.9459 75.5529 31.2056 74.2932 32.7598 74.2932C34.314 74.2932 35.5749 75.5529 35.5749 77.1071C35.5749 78.6626 34.314 79.9223 32.7598 79.9223C31.2056 79.9223 29.9459 78.6626 29.9459 77.1071Z" stroke="#FBFCE1" stroke-width="2.40404" stroke-miterlimit="10" stroke-linejoin="round"></path>
    </g>
    <path d="M45.5205 67.4069C45.5205 65.8527 46.7814 64.5918 48.3356 64.5918C49.8898 64.5918 51.1495 65.8527 51.1495 67.4069C51.1495 68.9612 49.8898 70.2209 48.3356 70.2209C46.7814 70.2209 45.5205 68.9612 45.5205 67.4069Z" fill="#DB6332"></path>
    <mask id="mask2_128_26" style="mask-type:luminance" maskUnits="userSpaceOnUse" x="45" y="64" width="7" height="7">
      <path d="M51.1495 64.5918H45.5205V70.2208H51.1495V64.5918Z" fill="black"></path>
      <path d="M45.5205 67.4069C45.5205 65.8527 46.7814 64.5918 48.3356 64.5918C49.8898 64.5918 51.1495 65.8527 51.1495 67.4069C51.1495 68.9612 49.8898 70.2209 48.3356 70.2209C46.7814 70.2209 45.5205 68.9612 45.5205 67.4069Z" fill="white"></path>
    </mask>
    <g mask="url(#mask2_128_26)">
      <path d="M45.5205 67.4069C45.5205 65.8527 46.7814 64.5918 48.3356 64.5918C49.8898 64.5918 51.1495 65.8527 51.1495 67.4069C51.1495 68.9612 49.8898 70.2209 48.3356 70.2209C46.7814 70.2209 45.5205 68.9612 45.5205 67.4069Z" stroke="#FBFCE1" stroke-width="2.40404" stroke-miterlimit="10" stroke-linejoin="round"></path>
    </g>
    <path d="M64.9547 80.2026C64.9547 78.6471 66.2156 77.3875 67.7698 77.3875C69.3241 77.3875 70.5838 78.6471 70.5838 80.2026C70.5838 81.7568 69.3241 83.0165 67.7698 83.0165C66.2156 83.0165 64.9547 81.7568 64.9547 80.2026Z" fill="#DB6332"></path>
    <mask id="mask3_128_26" style="mask-type:luminance" maskUnits="userSpaceOnUse" x="64" y="77" width="7" height="7">
      <path d="M70.5837 77.3875H64.9547V83.0165H70.5837V77.3875Z" fill="black"></path>
      <path d="M64.9547 80.2026C64.9547 78.6471 66.2156 77.3875 67.7698 77.3875C69.3241 77.3875 70.5838 78.6471 70.5838 80.2026C70.5838 81.7568 69.3241 83.0165 67.7698 83.0165C66.2156 83.0165 64.9547 81.7568 64.9547 80.2026Z" fill="white"></path>
    </mask>
    <g mask="url(#mask3_128_26)">
      <path d="M64.9547 80.2026C64.9547 78.6471 66.2156 77.3875 67.7698 77.3875C69.3241 77.3875 70.5838 78.6471 70.5838 80.2026C70.5838 81.7568 69.3241 83.0165 67.7698 83.0165C66.2156 83.0165 64.9547 81.7568 64.9547 80.2026Z" stroke="#FBFCE1" stroke-width="2.40404" stroke-miterlimit="10" stroke-linejoin="round"></path>
    </g>
    <path d="M86.6824 60.8752C86.6824 59.321 87.9422 58.0613 89.4964 58.0613C91.0506 58.0613 92.3115 59.321 92.3115 60.8752C92.3115 62.4294 91.0506 63.6891 89.4964 63.6891C87.9422 63.6891 86.6824 62.4294 86.6824 60.8752Z" fill="#DB6332"></path>
    <mask id="mask4_128_26" style="mask-type:luminance" maskUnits="userSpaceOnUse" x="86" y="58" width="7" height="6">
      <path d="M92.3114 58.0613H86.6824V63.6903H92.3114V58.0613Z" fill="black"></path>
      <path d="M86.6824 60.8752C86.6824 59.321 87.9422 58.0613 89.4964 58.0613C91.0506 58.0613 92.3115 59.321 92.3115 60.8752C92.3115 62.4294 91.0506 63.6891 89.4964 63.6891C87.9422 63.6891 86.6824 62.4294 86.6824 60.8752Z" fill="white"></path>
    </mask>
    <g mask="url(#mask4_128_26)">
      <path d="M86.6824 60.8752C86.6824 59.321 87.9422 58.0613 89.4964 58.0613C91.0506 58.0613 92.3115 59.321 92.3115 60.8752C92.3115 62.4294 91.0506 63.6891 89.4964 63.6891C87.9422 63.6891 86.6824 62.4294 86.6824 60.8752Z" stroke="#FBFCE1" stroke-width="2.40404" stroke-miterlimit="10" stroke-linejoin="round"></path>
    </g>
    <path d="M235.795 139.089L251.327 145.889L245.934 149.87L251.844 157.623L248.982 159.806L243.035 151.999L237.675 155.939L236.554 145.859L235.795 139.089Z" fill="#1E1E1D" stroke="#F2F3D9" stroke-width="2.40404" stroke-miterlimit="10" stroke-linejoin="round"></path>
  </g>
  <defs>
    <clipPath id="clip0_128_26">
      <rect width="358" height="240" fill="white"></rect>
    </clipPath>
  </defs>
</svg>
