<?xml version="1.0" encoding="UTF-8"?>
<svg xmlns="http://www.w3.org/2000/svg" width="441" height="124" viewBox="0 0 441 124" fill="none">
  <path fill-rule="evenodd" clip-rule="evenodd" d="M68.4971 57.8549C71.2171 53.2895 72.7795 47.9542 72.7795 42.254C72.7795 25.3952 59.1128 11.7285 42.254 11.7285C25.3952 11.7285 11.7285 25.3952 11.7285 42.254C11.7285 49.1489 14.0145 55.5099 17.8699 60.6205L11.652 71.3902C4.43206 63.8094 0 53.5493 0 42.254C0 18.9177 18.9178 0 42.254 0C65.5902 0 84.508 18.9177 84.508 42.254C84.508 52.4142 80.9219 61.7369 74.9464 69.0254L68.4971 57.8549Z" fill="#DB6332"></path>
  <path d="M48.2627 123.253C42.6463 123.253 38.6438 122.06 36.2552 119.673C33.8666 117.287 32.6723 113.546 32.6723 108.45V57.0713H50.8773V106.418C50.8773 107.837 51.1678 108.804 51.7488 109.32C52.3298 109.772 53.2336 109.998 54.4602 109.998C55.2994 109.998 56.1064 109.933 56.8811 109.804C57.7203 109.675 58.495 109.482 59.2051 109.224V121.318C57.5266 121.963 55.8804 122.447 54.2665 122.77C52.7172 123.092 50.7159 123.253 48.2627 123.253Z" fill="#1E1E1E"></path>
  <path d="M77.7922 123.253C72.434 123.253 68.2378 121.738 65.2036 118.706C62.1694 115.674 60.6523 111.223 60.6523 105.353V76.4228H78.8573V103.902C78.8573 107.901 80.8909 109.901 84.958 109.901C86.4428 109.901 87.8953 109.578 89.3156 108.933C90.7358 108.288 91.8655 107.482 92.7048 106.514V76.4228H110.91V122.286H93.8668L93.3826 118.803C91.575 120.093 89.3478 121.157 86.701 121.996C84.1187 122.834 81.1491 123.253 77.7922 123.253Z" fill="#1E1E1E"></path>
  <path d="M119.578 122.286V76.4228H136.427L136.911 80.0996C138.913 78.745 141.14 77.6484 143.593 76.8099C146.111 75.9068 148.855 75.4553 151.824 75.4553C154.794 75.4553 157.118 75.8745 158.796 76.7131C160.475 77.5517 161.83 78.7773 162.863 80.3899C164.929 78.9063 167.253 77.7129 169.835 76.8099C172.482 75.9068 175.581 75.4553 179.132 75.4553C184.49 75.4553 188.428 76.8744 190.945 79.7126C193.463 82.4863 194.722 86.7437 194.722 92.4846V122.286H176.808V94.6133C176.808 92.5491 176.388 91.0978 175.549 90.2592C174.709 89.3561 173.321 88.9046 171.385 88.9046C168.867 88.9046 166.801 89.8077 165.187 91.6138C165.316 92.4524 165.381 93.2587 165.381 94.0327C165.381 94.7423 165.381 95.5486 165.381 96.4517V122.286H148.532V94.323C148.532 92.4524 148.209 91.0978 147.563 90.2592C146.918 89.3561 145.691 88.9046 143.884 88.9046C142.657 88.9046 141.463 89.2271 140.301 89.8722C139.139 90.5172 138.106 91.2913 137.202 92.1943V122.286H119.578Z" fill="#1E1E1E"></path>
  <path d="M207.633 122.286V89.6786H200.951L202.501 76.4228H225.838V122.286H207.633Z" fill="#1E1E1E"></path>
  <path d="M234.57 122.286V76.4228H251.613L252.097 79.9061C253.84 78.745 256.132 77.7129 258.972 76.8099C261.877 75.9068 264.976 75.4553 268.268 75.4553C274.014 75.4553 278.21 76.8744 280.857 79.7126C283.504 82.5508 284.827 86.9372 284.827 92.8717V122.286H266.622V94.71C266.622 92.6459 266.17 91.1623 265.266 90.2592C264.363 89.3561 262.781 88.9046 260.521 88.9046C259.166 88.9046 257.746 89.2271 256.261 89.8722C254.84 90.5172 253.678 91.2913 252.775 92.1943V122.286H234.57Z" fill="#1E1E1E"></path>
  <path d="M293.011 122.286V76.4228H310.538L311.022 80.0996C312.894 79.003 315.283 78.0032 318.188 77.1001C321.093 76.1971 324.03 75.6488 327 75.4553V89.0013C325.322 89.1304 323.482 89.3561 321.48 89.6786C319.544 90.0012 317.639 90.4205 315.767 90.9365C313.96 91.388 312.442 91.9041 311.216 92.4846V122.286H293.011Z" fill="#1E1E1E"></path>
  <path d="M221.11 65.4279C221.11 69.5037 217.803 72.8077 213.724 72.8077C209.645 72.8077 206.339 69.5037 206.339 65.4279C206.339 61.3522 209.645 58.0481 213.724 58.0481C217.803 58.0481 221.11 61.3522 221.11 65.4279Z" fill="#DB6332"></path>
  <path d="M396.117 73.3848C394.191 77.9783 386.457 86.0855 382.971 87.4271C379.019 87.4761 375.779 90.4493 375.315 94.2797C374.289 94.55 373.347 95.0212 372.533 95.6514C371.314 94.8674 369.866 94.4073 368.309 94.4073C363.992 94.4073 360.491 97.9014 360.491 102.211C360.491 102.585 360.527 102.949 360.577 103.309C358.632 103.374 356.869 104.148 355.536 105.382C354.143 103.238 351.73 101.817 348.98 101.817C344.662 101.817 341.162 105.31 341.162 109.619C341.162 110.746 341.406 111.817 341.837 112.784C337.983 113.266 335 116.541 335 120.519C335 121.483 335.184 122.402 335.504 123.254H399.795C399.838 123.23 399.884 123.208 399.928 123.183C399.956 123.209 399.986 123.229 400.014 123.254H438.671C439.51 122.011 440 120.514 440 118.901C440 114.592 436.499 111.099 432.182 111.099C429.941 111.099 427.927 112.046 426.502 113.554C425.333 112.318 423.768 111.467 422.007 111.199C422.124 110.748 422.193 110.279 422.193 109.791C422.193 106.7 419.683 104.194 416.586 104.194C416.021 104.194 415.476 104.28 414.962 104.435C414.53 100.533 411.218 97.4976 407.195 97.4976C405.673 97.4976 404.261 97.9406 403.062 98.6926C397.966 89.8995 401.823 76.4449 401.823 76.4449C398.321 76.4449 396.117 73.3848 396.117 73.3848Z" fill="#1E1E1D" stroke="#FBFCE1" stroke-width="1.30496" stroke-miterlimit="10" stroke-linejoin="round"></path>
  <path d="M396.071 76.8457C396.374 76.3241 396.153 76.6867 396.085 76.8104C396.037 76.8974 395.883 77.1526 395.935 77.0676C396.03 76.9118 396.019 76.9354 396.071 76.8457Z" stroke="#FBFCE1" stroke-width="1.30496" stroke-miterlimit="10" stroke-linecap="round" stroke-linejoin="round"></path>
  <path d="M395.098 78.0566C394.016 79.6801 393.15 81.1953 390.725 83.6618" stroke="#FBFCE1" stroke-width="1.30496" stroke-miterlimit="10" stroke-linecap="round" stroke-linejoin="round"></path>
  <path d="M390.002 84.5723C389.691 85.0251 389.16 85.3399 388.873 85.7987" stroke="#FBFCE1" stroke-width="1.30496" stroke-miterlimit="10" stroke-linecap="round" stroke-linejoin="round"></path>
  <path d="M388.019 86.7021C387.572 87.0117 387.087 87.3743 386.695 87.7519" stroke="#FBFCE1" stroke-width="1.30496" stroke-miterlimit="10" stroke-linecap="round" stroke-linejoin="round"></path>
  <path d="M397.046 80.0049C393.691 86.607 393.591 90.0715 393.469 91.1566C393.428 91.5185 393.39 91.9007 393.39 92.2652C393.39 92.3247 393.39 92.8215 393.39 92.665" stroke="#FBFCE1" stroke-width="1.30496" stroke-miterlimit="10" stroke-linecap="round" stroke-linejoin="round"></path>
  <path d="M399.097 76.7344C399.013 76.9818 398.778 77.1912 398.535 77.7605" stroke="#FBFCE1" stroke-width="1.30496" stroke-miterlimit="10" stroke-linecap="round" stroke-linejoin="round"></path>
  <path d="M393.413 94.5713C393.413 94.9522 393.714 96.4809 394.016 96.7806" stroke="#FBFCE1" stroke-width="1.30496" stroke-miterlimit="10" stroke-linecap="round" stroke-linejoin="round"></path>
  <path d="M398.977 81.5967C398.977 83.5463 398.387 85.4664 398.251 87.4179C398.206 88.056 398.212 88.7222 398.236 89.3623C398.247 89.6607 398.343 90.5442 398.38 90.2477" stroke="#FBFCE1" stroke-width="1.30496" stroke-miterlimit="10" stroke-linecap="round" stroke-linejoin="round"></path>
  <path d="M371.684 97.2286C371.684 95.724 375.592 93.9479 376.767 94.6998" stroke="#FBFCE1" stroke-width="1.30496" stroke-miterlimit="10" stroke-linecap="round" stroke-linejoin="round"></path>
  <path d="M353.095 118.335C353.095 117.482 352.422 116.623 352.722 115.674C353.361 113.653 357.272 112.38 358.817 114.018C358.972 114.183 358.782 113.565 358.782 113.339C358.782 112.998 358.713 112.568 358.789 112.235C359.021 111.226 360.55 109.979 361.522 109.793C363.088 109.494 364.607 109.74 365.928 110.61C366.331 110.876 366.82 111.25 367.016 111.701C367.116 111.932 367.132 112.698 367.132 112.447C367.132 110.418 371.665 109.529 373.051 109.932C374.448 110.339 375.739 111.5 376.091 112.93C376.152 113.177 376.122 115.164 376.192 115.181C376.845 115.339 377.606 115.094 378.275 115.187C379.203 115.318 380.87 116.677 380.87 117.704" stroke="#FBFCE1" stroke-width="1.30496" stroke-miterlimit="10" stroke-linecap="round" stroke-linejoin="round"></path>
  <path d="M364.435 115.269C364.435 114.338 365.346 113.615 366.104 113.257C367.649 112.528 369.283 112.503 370.716 113.575C371.027 113.808 371.463 114.11 371.614 114.489" stroke="#FBFCE1" stroke-width="1.30496" stroke-miterlimit="10" stroke-linecap="round" stroke-linejoin="round"></path>
  <path d="M342.443 116.694C341.719 116.107 341.731 114.944 341.931 114.13C342.339 112.47 343.348 111.185 345.083 110.748C345.46 110.653 345.969 110.504 346.359 110.626" stroke="#FBFCE1" stroke-width="1.30496" stroke-miterlimit="10" stroke-linecap="round" stroke-linejoin="round"></path>
  <path d="M390.588 113.583C390.588 113.767 390.77 113.258 390.9 113.127C391.096 112.931 391.388 112.802 391.642 112.702C392.429 112.393 393.714 112.248 394.526 112.525C395.424 112.832 396.484 113.507 396.784 114.464C396.852 114.679 396.679 115.906 396.848 116.023C396.859 116.03 398.334 115.704 398.569 115.726C400.397 115.894 401.181 117.508 401.181 119.089" stroke="#FBFCE1" stroke-width="1.30496" stroke-miterlimit="10" stroke-linecap="round" stroke-linejoin="round"></path>
  <path d="M375.563 100.609C375.651 100.771 375.569 100.237 375.622 100.06C375.7 99.7941 375.895 99.5415 376.071 99.3321C376.617 98.6862 377.677 97.9467 378.523 97.8047C379.46 97.6476 380.713 97.7359 381.432 98.4349C381.594 98.5919 382.027 99.7529 382.231 99.7752C382.243 99.7771 383.386 98.7883 383.603 98.6953C385.291 97.9735 386.748 99.02 387.5 100.41" stroke="#FBFCE1" stroke-width="1.30496" stroke-miterlimit="10" stroke-linecap="round" stroke-linejoin="round"></path>
  <path d="M397.782 107.09C397.782 104.995 401.216 104.329 402.636 104.329C406.167 104.329 408.487 106.338 408.487 109.86" stroke="#FBFCE1" stroke-width="1.30496" stroke-miterlimit="10" stroke-linecap="round" stroke-linejoin="round"></path>
  <path d="M404.269 111.872C404.715 110.85 406.663 110.379 407.62 110.28C409.857 110.046 412.559 111.61 413.15 113.932C413.303 114.535 413.181 115.201 413.181 115.816" stroke="#FBFCE1" stroke-width="1.30496" stroke-miterlimit="10" stroke-linecap="round" stroke-linejoin="round"></path>
  <path d="M411.871 111.365C411.871 109.653 415.356 109.576 416.402 109.721C419.195 110.108 420.917 112.78 420.917 115.376" stroke="#FBFCE1" stroke-width="1.30496" stroke-miterlimit="10" stroke-linecap="round" stroke-linejoin="round"></path>
  <path d="M419.182 119.968C419.182 116.595 422.708 115.056 425.651 115.723C426.797 115.982 429.023 116.99 429.023 118.457" stroke="#FBFCE1" stroke-width="1.30496" stroke-miterlimit="10" stroke-linecap="round" stroke-linejoin="round"></path>
  <path d="M432.115 113.329C433.182 112.986 434.6 113.495 435.528 113.98C435.853 114.151 436.15 114.373 436.419 114.622C436.549 114.741 436.785 115.179 436.785 115.003" stroke="#FBFCE1" stroke-width="1.30496" stroke-miterlimit="10" stroke-linecap="round" stroke-linejoin="round"></path>
  <path d="M437.552 116.237C437.558 116.224 437.673 116.363 437.692 116.39C437.804 116.55 437.898 116.72 437.982 116.896C438.007 116.948 438.098 117.168 438.099 117.148" stroke="#FBFCE1" stroke-width="1.30496" stroke-miterlimit="10" stroke-linecap="round" stroke-linejoin="round"></path>
  <path d="M364.435 97.7383C363.529 97.7383 362.8 99.0544 362.663 99.8214" stroke="#FBFCE1" stroke-width="1.30496" stroke-miterlimit="10" stroke-linecap="round" stroke-linejoin="round"></path>
  <path d="M362.266 101.089C362.266 101.492 362.229 101.888 362.229 102.288" stroke="#FBFCE1" stroke-width="1.30496" stroke-miterlimit="10" stroke-linecap="round" stroke-linejoin="round"></path>
  <path d="M404.108 100.057C404.788 99.8662 405.304 99.6181 406.039 99.6181C406.077 99.6181 406.255 99.5913 406.26 99.6443" stroke="#FBFCE1" stroke-width="1.30496" stroke-miterlimit="10" stroke-linecap="round" stroke-linejoin="round"></path>
  <path d="M407.659 99.4941C408.525 99.4941 408.958 99.6584 409.699 99.9738" stroke="#FBFCE1" stroke-width="1.30496" stroke-miterlimit="10" stroke-linecap="round" stroke-linejoin="round"></path>
  <path d="M349.436 103.213C350.144 103.213 351.133 103.386 351.753 103.765" stroke="#FBFCE1" stroke-width="1.30496" stroke-miterlimit="10" stroke-linecap="round" stroke-linejoin="round"></path>
  <path d="M348.109 103.398C347.536 103.398 346.62 103.772 346.201 104.175" stroke="#FBFCE1" stroke-width="1.30496" stroke-miterlimit="10" stroke-linecap="round" stroke-linejoin="round"></path>
  <path d="M351.753 98.8563C351.753 97.624 352.754 96.624 353.989 96.624C355.224 96.624 356.225 97.624 356.225 98.8563C356.225 100.089 355.224 101.089 353.989 101.089C352.754 101.089 351.753 100.089 351.753 98.8563Z" fill="#1E1E1D" stroke="#FBFCE1" stroke-width="1.30496" stroke-miterlimit="10" stroke-linecap="round" stroke-linejoin="round"></path>
  <path d="M335.157 109.586C335.157 108.743 335.842 108.06 336.686 108.06C337.53 108.06 338.215 108.743 338.215 109.586C338.215 110.429 337.53 111.112 336.686 111.112C335.842 111.112 335.157 110.429 335.157 109.586Z" fill="#1E1E1D" stroke="#FBFCE1" stroke-width="1.30496" stroke-miterlimit="10" stroke-linecap="round" stroke-linejoin="round"></path>
  <path d="M404.601 91.6861C404.601 90.281 405.743 89.1416 407.15 89.1416C408.558 89.1416 409.699 90.281 409.699 91.6861C409.699 93.0911 408.558 94.2305 407.15 94.2305C405.743 94.2305 404.601 93.0911 404.601 91.6861Z" fill="#1E1E1D" stroke="#FBFCE1" stroke-width="1.30496" stroke-miterlimit="10" stroke-linecap="round" stroke-linejoin="round"></path>
  <path d="M424.986 108.407C424.986 107.738 425.53 107.194 426.201 107.194C426.873 107.194 427.416 107.738 427.416 108.407C427.416 109.077 426.873 109.62 426.201 109.62C425.53 109.62 424.986 109.077 424.986 108.407Z" fill="#1E1E1D" stroke="#FBFCE1" stroke-width="1.30496" stroke-miterlimit="10" stroke-linecap="round" stroke-linejoin="round"></path>
  <path d="M381.489 88.1022C381.288 88.9432 380.441 89.4628 379.598 89.2625C378.755 89.0616 378.235 88.2168 378.436 87.3752C378.637 86.5335 379.483 86.0146 380.326 86.2148C381.169 86.4157 381.69 87.2606 381.489 88.1022Z" fill="#1E1E1D" stroke="#FBFCE1" stroke-width="1.30496" stroke-miterlimit="10" stroke-linecap="round" stroke-linejoin="round"></path>
  <path d="M360.469 95.6022C360.361 96.0518 359.909 96.3293 359.459 96.2219C359.009 96.1146 358.731 95.6637 358.838 95.2141C358.946 94.7645 359.398 94.487 359.848 94.5944C360.298 94.7017 360.576 95.1526 360.469 95.6022Z" fill="#1E1E1D" stroke="#FBFCE1" stroke-width="1.30496" stroke-miterlimit="10" stroke-linecap="round" stroke-linejoin="round"></path>
  <path d="M412.49 38.62C412.49 38.62 413.849 36.1408 416.274 34.9116C418.699 33.6824 422.066 33.819 422.066 33.819C422.066 33.819 423.796 36.3558 424.1 39.053C424.403 41.7503 423.405 44.4923 423.405 44.4923L410.965 67.6158L400.05 61.7435L412.49 38.62Z" fill="#DB6332"></path>
  <path d="M402.208 50.21C402.208 50.21 403.183 48.4154 404.443 47.2632C405.704 46.1111 407.179 45.6943 407.179 45.6943C407.179 45.6943 407.567 47.0636 407.298 48.7493C407.029 50.435 406.175 52.3444 406.175 52.3444L397.189 69.049C397.189 69.049 397.224 70.2715 394.982 69.0653C392.886 67.9377 393.221 66.9148 393.221 66.9148L402.208 50.21Z" fill="#DB6332"></path>
  <path d="M415.344 57.5245C415.344 57.5245 416.318 55.7298 417.58 54.5777C418.841 53.4255 420.315 53.0088 420.315 53.0088C420.315 53.0088 420.703 54.378 420.434 56.0637C420.165 57.7494 419.311 59.6585 419.311 59.6585L410.324 76.3637C410.324 76.3637 409.692 76.7282 407.898 75.8022C406.897 75.2858 406.357 74.2289 406.357 74.2289L415.344 57.5245Z" fill="#DB6332"></path>
  <path d="M396.364 72.168L403.034 75.7144L402.306 77.0841C402.306 77.0841 400.495 76.999 398.392 75.8505C396.319 74.719 395.636 73.5384 395.636 73.5384L396.364 72.168Z" fill="#883513"></path>
  <path d="M396.653 70.1973L404.959 74.5323L404.005 76.3621C404.005 76.3621 401.726 76.3352 399.107 74.9289C396.527 73.5428 395.698 72.0271 395.698 72.0271L396.653 70.1973Z" fill="#DB6332"></path>
  <path d="M410.791 41.7793C410.791 41.7793 410.811 43.7283 415.427 46.2416C419.754 48.597 421.706 47.6516 421.706 47.6516L406.541 75.2534C406.541 75.2534 405.397 76.1107 400.485 73.4282C395.868 70.9059 395.625 69.3811 395.625 69.3811L410.791 41.7793Z" fill="#FBFCE1"></path>
  <path d="M394.893 67.6157L400.05 57.6457L407.393 55.7568L400.275 68.7427L394.893 67.6157Z" fill="#883513" stroke="#883513" stroke-width="1.73995" stroke-miterlimit="10" stroke-linejoin="round"></path>
  <path d="M408.804 74.8303L414.158 64.9653L411.599 57.8281L404.849 71.0091L408.804 74.8303Z" fill="#883513" stroke="#883513" stroke-width="1.73995" stroke-miterlimit="10" stroke-linejoin="round"></path>
  <path d="M409.023 51.59C409.023 49.7076 410.548 48.1816 412.431 48.1816C414.313 48.1816 415.839 49.7076 415.839 51.59C415.839 53.4725 414.313 54.9985 412.431 54.9985C410.548 54.9985 409.023 53.4725 409.023 51.59Z" fill="#1E1E1D" stroke="#DB6332" stroke-width="2.60992" stroke-miterlimit="10" stroke-linejoin="round"></path>
  <mask id="mask0_116_1447" style="mask-type:luminance" maskUnits="userSpaceOnUse" x="409" y="48" width="7" height="7">
    <path d="M409.023 51.59C409.023 49.7076 410.548 48.1816 412.431 48.1816C414.313 48.1816 415.839 49.7076 415.839 51.59C415.839 53.4725 414.313 54.9985 412.431 54.9985C410.548 54.9985 409.023 53.4725 409.023 51.59Z" fill="white"></path>
  </mask>
  <g mask="url(#mask0_116_1447)">
    <path opacity="0.212781" d="M409.121 52.3268L414.515 49.0039L415.093 49.9417L409.699 53.2647L409.121 52.3268Z" fill="#FBFCE1"></path>
    <path opacity="0.212781" d="M409.795 53.697L415.189 50.374L415.415 50.7409L410.021 54.0638L409.795 53.697Z" fill="#FBFCE1"></path>
  </g>
</svg>
