<?xml version="1.0" encoding="UTF-8"?>
<svg xmlns="http://www.w3.org/2000/svg" width="56" height="56" viewBox="0 0 56 56" fill="none">
  <circle cx="28" cy="28" r="28" fill="#DB6332"></circle>
  <path d="M34.336 30.248C34.336 33.392 32.2 35.816 28.288 35.816C24.784 35.816 22.432 33.92 22 30.848H25.672C25.888 32.096 26.776 32.84 28.264 32.84C29.824 32.84 30.664 31.88 30.664 30.296C30.664 28.832 29.944 27.656 28.216 27.656C27.064 27.656 26.32 28.184 25.888 28.856L22.576 28.544L23.056 20H33.472V22.808H26.08L25.912 25.352C26.656 24.968 27.496 24.728 28.552 24.728C32.536 24.728 34.336 27.2 34.336 30.248Z" fill="white"></path>
</svg>
