<?xml version="1.0" encoding="UTF-8"?>
<svg xmlns="http://www.w3.org/2000/svg" width="56" height="56" viewBox="0 0 56 56" fill="none">
  <circle cx="28" cy="28" r="28" fill="#DB6332"></circle>
  <path d="M34.696 30.824C34.696 34.16 32.152 36.2 28.672 36.2C24.688 36.2 22 33.56 22 28.112C22 22.976 24.448 20 28.576 20C31.696 20 33.904 21.752 34.6 24.944H30.856C30.448 23.648 29.584 23.048 28.432 23.048C26.728 23.048 25.72 24.44 25.528 27.032C26.416 26.216 27.592 25.76 28.912 25.76C32.368 25.76 34.696 27.656 34.696 30.824ZM28.552 33.224C30.016 33.224 30.928 32.408 30.928 30.968C30.928 29.528 29.992 28.664 28.552 28.664C27.112 28.664 26.2 29.528 26.2 30.968C26.2 32.384 27.112 33.224 28.552 33.224Z" fill="white"></path>
</svg>
