<?xml version="1.0" encoding="UTF-8"?>
<svg xmlns="http://www.w3.org/2000/svg" width="56" height="56" viewBox="0 0 56 56" fill="none">
  <circle cx="28" cy="28" r="28" fill="#DB6332"></circle>
  <path d="M34.6 31.352C34.6 33.992 32.464 36.2 28.408 36.2C24.856 36.2 22.432 34.232 22 31.04H25.696C25.936 32.384 26.776 33.224 28.384 33.224C29.992 33.224 30.904 32.504 30.904 31.184C30.904 30.152 30.256 29.264 27.784 29.264H26.728V26.6H27.568C30.04 26.6 30.496 25.568 30.496 24.752C30.496 23.672 29.728 22.976 28.408 22.976C26.968 22.976 26.2 23.744 25.984 25.04H22.312C22.72 21.92 25.024 20 28.432 20C32.176 20 34.192 22.184 34.192 24.704C34.192 26.12 33.616 27.104 32.368 27.752C33.928 28.544 34.6 29.768 34.6 31.352Z" fill="#F2F3D9"></path>
</svg>
