<?xml version="1.0" encoding="UTF-8"?>
<svg xmlns="http://www.w3.org/2000/svg" width="146" height="56" viewBox="0 0 146 56" fill="none">
  <path fill-rule="evenodd" clip-rule="evenodd" d="M30.4767 26.3218C31.687 24.2905 32.3821 21.9166 32.3821 19.3803C32.3821 11.8793 26.3013 5.79846 18.8003 5.79846C11.2992 5.79846 5.21841 11.8793 5.21841 19.3803C5.21841 22.4481 6.23556 25.2784 7.95101 27.5523L5.18444 32.3441C1.972 28.9711 0 24.406 0 19.3803C0 8.99721 8.41717 0.580048 18.8003 0.580048C29.1834 0.580048 37.6006 8.99721 37.6006 19.3803C37.6006 23.901 36.005 28.049 33.3462 31.2919L30.4767 26.3218Z" fill="#DB6332"></path>
  <path d="M21.4738 55.42C18.9748 55.42 17.1939 54.889 16.1312 53.8271C15.0684 52.7652 14.537 51.1006 14.537 48.8332V25.9732H22.6371V47.9292C22.6371 48.5606 22.7663 48.9911 23.0248 49.2207C23.2833 49.4216 23.6855 49.5221 24.2312 49.5221C24.6046 49.5221 24.9637 49.4934 25.3084 49.436C25.6818 49.3785 26.0264 49.2924 26.3424 49.1776V54.5589C25.5956 54.8459 24.8631 55.0612 24.1451 55.2047C23.4557 55.3482 22.5653 55.42 21.4738 55.42Z" fill="#F2F3D9"></path>
  <path d="M34.6124 55.42C32.2284 55.42 30.3613 54.7455 29.0113 53.3966C27.6613 52.0476 26.9863 50.0674 26.9863 47.4556V34.5834H35.0864V46.8098C35.0864 48.5893 35.9912 49.479 37.8007 49.479C38.4614 49.479 39.1077 49.3355 39.7396 49.0485C40.3715 48.7615 40.8742 48.4027 41.2476 47.9722V34.5834H49.3476V54.9895H41.7646L41.5492 53.4396C40.7449 54.0136 39.754 54.4872 38.5763 54.8603C37.4273 55.2334 36.1061 55.42 34.6124 55.42Z" fill="#F2F3D9"></path>
  <path d="M53.2044 54.9895V34.5834H60.7013L60.9167 36.2193C61.8071 35.6166 62.7981 35.1287 63.8896 34.7556C65.0098 34.3538 66.2306 34.1529 67.5518 34.1529C68.8731 34.1529 69.9072 34.3394 70.654 34.7125C71.4008 35.0856 72.004 35.631 72.4636 36.3485C73.3827 35.6884 74.4167 35.1574 75.5657 34.7556C76.7434 34.3538 78.1221 34.1529 79.7019 34.1529C82.0859 34.1529 83.8381 34.7843 84.9583 36.0471C86.0785 37.2812 86.6386 39.1755 86.6386 41.7298V54.9895H78.6678V42.677C78.6678 41.7585 78.4811 41.1128 78.1077 40.7397C77.7343 40.3379 77.1168 40.137 76.2551 40.137C75.1348 40.137 74.2157 40.5388 73.4976 41.3424C73.555 41.7155 73.5838 42.0742 73.5838 42.4186C73.5838 42.7344 73.5838 43.0931 73.5838 43.4949V54.9895H66.0869V42.5478C66.0869 41.7155 65.9433 41.1128 65.6561 40.7397C65.3688 40.3379 64.8231 40.137 64.0188 40.137C63.4731 40.137 62.9417 40.2805 62.4247 40.5675C61.9077 40.8545 61.4481 41.1989 61.046 41.6007V54.9895H53.2044Z" fill="#F2F3D9"></path>
  <path d="M92.3831 54.9895V40.4814H89.4102L90.0996 34.5834H100.483V54.9895H92.3831Z" fill="#F2F3D9"></path>
  <path d="M104.368 54.9895V34.5834H111.951L112.167 36.1332C112.942 35.6166 113.962 35.1574 115.226 34.7556C116.518 34.3538 117.897 34.1529 119.362 34.1529C121.918 34.1529 123.785 34.7843 124.963 36.0471C126.141 37.3099 126.729 39.2616 126.729 41.902V54.9895H118.629V42.72C118.629 41.8016 118.428 41.1415 118.026 40.7397C117.624 40.3379 116.92 40.137 115.915 40.137C115.312 40.137 114.68 40.2805 114.019 40.5675C113.387 40.8545 112.87 41.1989 112.468 41.6007V54.9895H104.368Z" fill="#F2F3D9"></path>
  <path d="M130.371 54.9895V34.5834H138.169L138.385 36.2193C139.218 35.7314 140.28 35.2866 141.573 34.8847C142.865 34.4829 144.172 34.239 145.494 34.1529V40.18C144.747 40.2374 143.928 40.3379 143.038 40.4814C142.176 40.6249 141.329 40.8114 140.496 41.041C139.692 41.2419 139.017 41.4715 138.471 41.7298V54.9895H130.371Z" fill="#F2F3D9"></path>
  <path d="M98.3796 29.6914C98.3796 31.5048 96.9083 32.9749 95.0934 32.9749C93.2785 32.9749 91.8073 31.5048 91.8073 29.6914C91.8073 27.8779 93.2785 26.4078 95.0934 26.4078C96.9083 26.4078 98.3796 27.8779 98.3796 29.6914Z" fill="#DB6332"></path>
</svg>
