<?xml version="1.0" encoding="UTF-8"?>
<svg xmlns="http://www.w3.org/2000/svg" width="373" height="230" viewBox="0 0 373 230" fill="none">
  <g clip-path="url(#clip0_128_339)">
    <mask id="mask0_128_339" style="mask-type:luminance" maskUnits="userSpaceOnUse" x="-7" y="-62" width="380" height="354">
      <path d="M373 -62H-7V292H373V-62Z" fill="white"></path>
    </mask>
    <g mask="url(#mask0_128_339)">
      <path d="M162.512 54.5201C162.512 54.5201 159.688 61.1561 142.857 60.9311C142.365 60.9241 124.64 69.2371 124.178 69.2211C108.806 68.6921 126.635 54.8091 132.199 52.8451C137.93 50.8221 162.224 52.1031 162.512 54.5201Z" fill="#FCD8BB" stroke="#DD8D6C" stroke-width="2" stroke-miterlimit="10" stroke-linejoin="round"></path>
      <path d="M165.632 46.7991C165.776 46.9411 168.989 50.1331 168.831 50.9411C168.673 51.7481 157.491 56.3571 144.435 57.4241C143.18 57.5271 112.425 76.1332 110.313 75.7691C108.2 75.4061 139.387 52.4871 139.387 52.4871C139.387 52.4871 165.487 46.6581 165.632 46.7991Z" fill="#FCD8BB" stroke="#DD8D6C" stroke-width="2" stroke-miterlimit="10" stroke-linejoin="round"></path>
      <path d="M173.565 41.2771C173.565 41.2771 132.761 38.9721 126.628 42.9841C120.494 46.9971 99.035 63.8611 80.945 74.2721C62.854 84.6821 39.728 89.3101 39.401 89.3661C39.074 89.4221 53.073 120.868 52.502 121.098C51.932 121.325 87.468 108.336 93.852 107.098C100.235 105.856 125.44 87.2371 129.93 83.8611C134.419 80.4861 155.468 65.8751 151.418 63.2801C147.368 60.6851 113.189 80.5621 110.232 77.9541C107.275 75.3471 139.59 52.8491 139.59 52.8491C139.59 52.8491 160.825 51.3091 173.565 41.2771Z" fill="#FCD8BB" stroke="#DD8D6C" stroke-width="2" stroke-miterlimit="10" stroke-linejoin="round"></path>
      <path d="M168.414 114.831C168.414 114.831 175.007 115.662 178.382 130.157C178.48 130.58 189.755 143.8 189.839 144.198C192.63 157.514 176.302 145.546 173.346 141.242C170.3 136.81 166.292 115.655 168.414 114.831Z" fill="#EABE9C" stroke="#DD8D6C" stroke-width="2" stroke-miterlimit="10" stroke-linejoin="round"></path>
      <path d="M160.779 114.003C160.877 113.844 163.076 110.322 163.839 110.266C164.601 110.206 171.14 118.699 174.879 129.647C175.24 130.695 198.581 152.622 198.701 154.524C198.821 156.425 171.494 135.161 171.494 135.161C171.494 135.161 160.682 114.162 160.779 114.003Z" fill="#EABE9C" stroke="#DD8D6C" stroke-width="2" stroke-miterlimit="10" stroke-linejoin="round"></path>
      <path d="M154.105 108.52C154.105 108.52 160.699 144.089 165.625 148.393C170.552 152.691 190.344 167.062 203.592 180.085C216.838 193.112 225.935 211.849 226.053 212.116C226.176 212.381 251.595 192.822 251.924 193.255C252.252 193.693 232.968 166.315 230.492 161.133C228.016 155.952 205.84 138.793 201.837 135.749C197.836 132.706 180.165 118.151 178.684 122.247C177.202 126.345 202.418 150.904 200.691 154.069C198.964 157.234 171.779 134.9 171.779 134.9C171.779 134.9 165.873 117.047 154.105 108.52Z" fill="#EABE9C" stroke="#DD8D6C" stroke-width="2" stroke-miterlimit="10" stroke-linejoin="round"></path>
      <path d="M170.238 112.049C170.238 110.449 171.535 109.155 173.134 109.155H199.499C201.099 109.155 202.395 110.449 202.395 112.049C202.395 113.648 201.099 114.946 199.499 114.946H173.134C171.535 114.946 170.238 113.648 170.238 112.049Z" fill="#F2F3D9"></path>
      <path d="M175.962 129.669C176.44 134.003 180.903 137.411 186.407 137.411C191.911 137.411 196.373 134.003 196.851 129.669H175.962Z" fill="#F2F3D9"></path>
      <path d="M170.238 125.561C170.238 123.961 171.535 122.664 173.134 122.664H199.499C201.099 122.664 202.395 123.961 202.395 125.561C202.395 127.16 201.099 128.455 199.499 128.455H173.134C171.535 128.455 170.238 127.16 170.238 125.561Z" fill="#F2F3D9"></path>
      <path d="M170.238 118.777C170.238 117.177 171.535 115.88 173.134 115.88H199.499C201.099 115.88 202.395 117.177 202.395 118.777C202.395 120.376 201.099 121.671 199.499 121.671H173.134C171.535 121.671 170.238 120.376 170.238 118.777Z" fill="#F2F3D9"></path>
      <path d="M185.679 36.0069C185.679 36.0069 172.201 35.052 163.62 45.006C155.039 54.96 153.664 62.993 154.818 70.993L160.707 71.0389C160.707 71.0389 162.354 71.1409 161.933 69.5859C161.511 68.0309 158.505 63.3169 163.814 60.9169C163.814 60.9169 169.491 58.83 171.206 64.325C171.206 64.325 171.763 65.8289 170.284 69.1589C170.284 69.1589 168.719 71.0719 172.149 71.0429C175.579 71.0139 185.49 70.9569 185.49 70.9569L185.585 56.7509C185.585 56.7509 185.855 53.3609 190.1 55.0229C194.345 56.6849 196.54 55.0929 196.636 52.1599C196.636 52.1599 195.784 47.3239 190.152 49.8669C190.152 49.8669 186.479 51.7859 185.556 48.5779L185.679 36.0069Z" fill="#F97947" stroke="#F2F3D9" stroke-width="2" stroke-miterlimit="10" stroke-linejoin="round"></path>
      <path d="M185.664 108.137C185.664 108.137 171.769 108.632 170.888 107.608C170.348 106.983 172.018 101.322 168.143 95.7359C162.039 86.9319 154.242 76.7399 154.818 72.7499L160.707 72.7039C160.707 72.7039 163.444 72.9529 163.935 70.8139C164.312 69.1739 161.9 67.7049 162.897 64.0089C163.379 62.2209 165.676 61.9099 166.27 61.8939C167.93 61.8469 169.65 63.0199 169.945 64.2239C170.84 67.8659 168.427 69.0219 168.743 70.8719C168.975 72.2259 171.252 72.6919 172.149 72.6999C175.579 72.7279 185.49 72.7859 185.49 72.7859L185.585 86.3969C185.585 86.3969 185.505 87.8629 184.483 87.6729C182.943 87.3899 180.109 86.0049 177.8 86.7459C175.266 87.5609 174.885 90.0849 174.819 91.2889C174.793 91.7649 175.08 95.1449 178.259 95.8199C180.228 96.2399 182.778 94.9699 184.481 95.0579C185.158 95.0919 185.718 95.5739 185.687 95.6829L185.664 108.137Z" fill="#DB6332" stroke="#F2F3D9" stroke-width="2" stroke-miterlimit="10" stroke-linejoin="round"></path>
      <path d="M200.974 72.1668C197.545 72.1958 187.632 72.2538 187.632 72.2538V72.7888L187.545 84.8578L187.535 86.3939V86.4618C187.535 86.4618 187.268 89.8449 183.023 88.1829C178.777 86.5219 176.583 88.1178 176.488 91.0528C176.488 91.0528 177.332 95.8918 182.964 93.3458C182.964 93.3458 186.641 91.4228 187.564 94.6308L187.438 107.088L187.467 107.07L187.457 108.14C187.457 108.14 201.348 108.635 202.229 107.614C202.769 106.989 201.107 101.319 204.981 95.7298C209.377 89.3908 214.648 82.3338 217.04 77.3888C217.908 75.5938 218.375 74.0958 218.304 72.9928C218.335 72.7198 218.339 72.4578 218.304 72.2148L212.411 72.1758C212.411 72.1758 210.764 72.0708 211.186 73.6258C211.607 75.1798 214.618 79.8908 209.309 82.2898C209.309 82.2898 203.633 84.3818 201.918 78.8868C201.918 78.8868 201.353 77.3838 202.832 74.0538C202.832 74.0538 204.404 72.1378 200.974 72.1668Z" fill="#FA966E" stroke="#F2F3D9" stroke-width="2" stroke-miterlimit="10" stroke-linejoin="round"></path>
      <path d="M154.105 108.52C154.105 108.52 160.699 144.089 165.625 148.393C170.552 152.691 190.344 167.062 203.592 180.085C216.838 193.112 225.935 211.849 226.053 212.116C226.176 212.381 251.595 192.822 251.924 193.255C252.252 193.693 232.968 166.315 230.492 161.133C228.016 155.952 205.84 138.793 201.837 135.749C197.836 132.706 180.165 118.151 178.684 122.247C177.202 126.345 202.418 150.904 200.691 154.069C198.964 157.234 171.779 134.9 171.779 134.9C171.779 134.9 165.873 117.047 154.105 108.52Z" fill="#EABE9C" stroke="#DD8D6C" stroke-width="3" stroke-miterlimit="10" stroke-linejoin="round"></path>
      <path d="M173.565 41.2771C173.565 41.2771 132.761 38.9721 126.628 42.9841C120.494 46.9971 99.035 63.8611 80.945 74.2721C62.854 84.6821 39.728 89.3101 39.401 89.3661C39.074 89.4221 53.073 120.868 52.502 121.098C51.932 121.325 87.468 108.336 93.852 107.098C100.235 105.856 125.44 87.2371 129.93 83.8611C134.419 80.4861 155.468 65.8751 151.418 63.2801C147.368 60.6851 113.189 80.5621 110.232 77.9541C107.275 75.3471 139.59 52.8491 139.59 52.8491C139.59 52.8491 160.825 51.3091 173.565 41.2771Z" fill="#FCD8BB" stroke="#DD8D6C" stroke-width="3" stroke-miterlimit="10" stroke-linejoin="round"></path>
      <path d="M60.4999 79.5C60.4999 79.5 64.2889 113.506 72.4999 118L0.381989 140.5V89.12L60.4999 79.5Z" fill="#F2F3D9" stroke="#1E1E1D" stroke-width="5" stroke-miterlimit="10" stroke-linejoin="round"></path>
      <path d="M208 192C208 192 241.057 180.136 242.5 171L281 230.193H222.5L208 192Z" fill="#DB6332" stroke="#1E1E1D" stroke-width="5" stroke-miterlimit="10" stroke-linejoin="round"></path>
      <path d="M209.742 53.6921C209.742 53.6921 214.946 58.1101 228.263 49.7111C228.652 49.4661 246.481 48.0871 246.842 47.8491C258.861 39.8961 238.471 36.4611 233.162 37.4581C227.694 38.4841 208.896 51.4411 209.742 53.6921Z" fill="#DDB291" stroke="#DD8D6C" stroke-width="2" stroke-miterlimit="10" stroke-linejoin="round"></path>
      <path d="M203.82 48.4699C203.768 48.6649 202.627 53.0169 203.112 53.6449C203.597 54.2739 214.562 52.8489 225.445 47.4189C226.491 46.8959 259.286 48.1569 260.809 46.8099C262.331 45.4629 227.273 40.6479 227.273 40.6479C227.273 40.6479 203.873 48.2759 203.82 48.4699Z" fill="#DDB291" stroke="#DD8D6C" stroke-width="2" stroke-miterlimit="10" stroke-linejoin="round"></path>
      <path d="M195.039 47.514C195.039 47.514 226.543 25.617 233.217 26.132C239.891 26.647 264.502 30.916 283.555 31.191C302.607 31.466 323.102 24.239 323.388 24.128C323.674 24.018 326.509 51.516 327.066 51.438C327.624 51.361 289.433 60.136 283.793 62.165C278.152 64.193 253.05 61.054 247.969 60.295C242.888 59.536 217.978 55.794 220.052 51.555C222.127 47.315 260.648 52.397 261.845 48.679C263.043 44.961 227.272 41.062 227.272 41.062C227.272 41.062 209.659 50.065 195.039 47.514Z" fill="#DDB291" stroke="#DD8D6C" stroke-width="2" stroke-miterlimit="10" stroke-linejoin="round"></path>
      <path d="M199.803 33.368C199.803 33.368 213.281 32.413 221.862 42.367C230.443 52.321 231.818 60.354 230.664 68.354L224.775 68.4C224.775 68.4 222.038 68.151 221.547 70.29C221.17 71.93 223.582 73.399 222.585 77.095C222.103 78.883 219.806 79.194 219.213 79.21C217.552 79.257 215.832 78.084 215.536 76.88C214.642 73.238 217.055 72.082 216.739 70.232C216.507 68.878 214.23 68.412 213.333 68.404C209.904 68.375 199.991 68.318 199.991 68.318L199.897 54.706C199.897 54.706 199.977 53.241 200.999 53.43C202.539 53.716 205.373 55.099 207.682 54.357C210.216 53.543 210.597 51.019 210.663 49.814C210.689 49.34 210.402 45.959 207.224 45.283C205.254 44.865 202.704 46.132 201.001 46.047C200.324 46.013 199.764 45.53 199.795 45.421L199.803 33.368Z" fill="#FFC0A6" stroke="#F2F3D9" stroke-width="3" stroke-miterlimit="10" stroke-linejoin="round"></path>
      <path d="M217.515 35.1059C222.81 28.4219 228.779 22.9059 233.217 23.2479C239.891 23.7629 264.502 28.032 283.555 28.307C302.607 28.582 323.102 21.3549 323.388 21.2439C323.674 21.1339 329.438 51.5629 329.995 51.4849C330.552 51.4079 290.106 60.136 284.465 62.165C278.825 64.193 236.096 60.5159 231.016 59.757C225.935 58.998 218.216 55.7249 220.29 51.4849C222.364 47.2459 254.39 50.623 255.587 46.904C256.784 43.186 233.247 37.902 233.247 37.902C233.247 37.902 231.361 39.904 225.926 42.255C225.23 42.556 223.514 40.154 221.486 38.273C219.925 36.824 217.316 35.3559 217.515 35.1059Z" fill="#DDB291" stroke="#DD8D6C" stroke-width="3" stroke-miterlimit="10" stroke-linecap="square" stroke-linejoin="round"></path>
      <path d="M301.5 22.5C298.592 42.029 303.09 54.723 309 60C313.935 64.406 370 51.5 370 51.5C370.184 54.73 373.196 50.993 370 51.5V-2.50002C366.5 -18.5 374.03 -4.29102 370 -2.50002C370 -2.50002 302.461 16.05 301.5 22.5Z" fill="#904628"></path>
      <path d="M370 51.5C370 51.5 313.935 64.406 309 60C303.09 54.723 298.592 42.029 301.5 22.5C302.461 16.05 370 -2.50002 370 -2.50002M370 51.5C373.196 50.993 370.184 54.73 370 51.5ZM370 51.5V-2.50002M370 -2.50002C366.5 -18.5 374.03 -4.29102 370 -2.50002Z" stroke="#1E1E1D" stroke-width="5" stroke-miterlimit="10" stroke-linejoin="round"></path>
      <path d="M218.558 34.961L217.287 36.087C217.287 36.087 221.867 39.239 224.56 42.661C224.56 42.661 226.623 41 228.059 40.343C229.495 39.685 218.867 34.707 218.867 34.707" fill="#DDB291"></path>
    </g>
  </g>
  <defs>
    <clipPath id="clip0_128_339">
      <rect width="373" height="230" fill="white"></rect>
    </clipPath>
  </defs>
</svg>
