<?xml version="1.0" encoding="UTF-8"?>
<svg xmlns="http://www.w3.org/2000/svg" width="212" height="139" viewBox="0 0 212 139" fill="none">
  <g clip-path="url(#clip0_128_228)">
    <path d="M23.5787 7.66406H191.83L190.172 129.908L23.5787 132.276V7.66406Z" fill="#2B2B2B"></path>
    <path d="M17.2448 130.891L16.4746 9.02045C16.4746 9.02045 15.298 1.99971 24.2104 0.582845C33.1236 -0.834022 190.926 0.795548 190.926 0.795548C190.926 0.795548 197.885 0.858441 198.168 9.09888C198.45 17.3393 198.239 127.602 198.239 127.602H191.122L191.396 8.32014L23.402 7.72158L23.2868 130.679L17.2448 130.891Z" stroke="#E0E2C2" stroke-width="1.41333" stroke-miterlimit="10" stroke-linejoin="round"></path>
    <path d="M1.73136 127.266L211.907 126.921C211.907 126.921 213.684 137.377 206.144 138.688L6.2102 138.919C6.2102 138.919 -0.34836 135.419 1.73136 127.266Z" fill="#E1E3C3"></path>
    <path d="M33.5278 29.8851C33.5278 23.894 38.3847 19.0371 44.3758 19.0371H169.037C175.029 19.0371 179.885 23.894 179.885 29.8851V104.663C179.885 110.655 175.029 115.512 169.037 115.512H44.3758C38.3847 115.512 33.5278 110.655 33.5278 104.663V29.8851Z" fill="#1E1E1D" stroke="#DB6332" stroke-width="1.41333" stroke-miterlimit="10" stroke-linejoin="round"></path>
    <g opacity="0.382257">
      <path d="M42.7462 25.0127H58.5621V40.8286H42.7462V25.0127Z" fill="#2B2B2B"></path>
      <path d="M42.6134 40.0342H58.43V55.8501H42.6134V40.0342Z" fill="#464646"></path>
      <path d="M42.6134 53.6426H58.43V69.4585H42.6134V53.6426Z" fill="#1E1E1D"></path>
      <path d="M42.4812 69.458H58.2971V85.2739H42.4812V69.458Z" fill="#1E1E1D"></path>
      <path d="M42.4812 84.9072H58.2971V100.723H42.4812V84.9072Z" fill="#2B2B2B"></path>
      <path d="M42.7462 99.6943H58.5621V115.51H42.7462V99.6943Z" fill="#1E1E1D"></path>
      <path d="M58.3614 25.0127H74.1773V40.8286H58.3614V25.0127Z" fill="#1E1E1D"></path>
      <path d="M58.2285 40.0342H74.0452V55.8501H58.2285V40.0342Z" fill="#1E1E1D"></path>
      <path d="M58.2285 53.6426H74.0452V69.4585H58.2285V53.6426Z" fill="#464646"></path>
      <path d="M58.0964 69.458H73.9123V85.2739H58.0964V69.458Z" fill="#1E1E1D"></path>
      <path d="M58.0964 84.9072H73.9123V100.723H58.0964V84.9072Z" fill="#464646"></path>
      <path d="M58.3614 99.6943H74.1773V115.51H58.3614V99.6943Z" fill="#1E1E1D"></path>
      <path d="M73.7448 25.0127H89.5608V40.8286H73.7448V25.0127Z" fill="#464646"></path>
      <path d="M73.6127 40.0342H89.4286V55.8501H73.6127V40.0342Z" fill="#2B2B2B"></path>
      <path d="M73.6127 53.6426H89.4286V69.4585H73.6127V53.6426Z" fill="#2B2B2B"></path>
      <path d="M73.4806 69.458H89.2965V85.2739H73.4806V69.458Z" fill="#464646"></path>
      <path d="M73.4806 84.9072H89.2965V100.723H73.4806V84.9072Z" fill="#2B2B2B"></path>
      <path d="M73.7448 99.6943H89.5607V115.51H73.7448V99.6943Z" fill="#1E1E1D"></path>
      <path d="M89.4774 25.0127H105.293V40.8286H89.4774V25.0127Z" fill="#1E1E1D"></path>
      <path d="M89.3452 40.0342H105.161V55.8501H89.3452V40.0342Z" fill="#2B2B2B"></path>
      <path d="M89.3452 53.6426H105.161V69.4585H89.3452V53.6426Z" fill="#1E1E1D"></path>
      <path d="M89.2131 69.458H105.029V85.2739H89.2131V69.458Z" fill="#2B2B2B"></path>
      <path d="M89.2131 84.9072H105.029V100.723H89.2131V84.9072Z" fill="#2B2B2B"></path>
      <path d="M89.4774 99.6943H105.293V115.51H89.4774V99.6943Z" fill="#464646"></path>
      <path d="M105.293 25.0127H121.109V40.8286H105.293V25.0127Z" fill="#1E1E1D"></path>
      <path d="M105.161 40.0342H120.977V55.8501H105.161V40.0342Z" fill="#1E1E1D"></path>
      <path d="M105.161 53.6426H120.977V69.4585H105.161V53.6426Z" fill="#2B2B2B"></path>
      <path d="M105.029 69.458H120.845V85.2739H105.029V69.458Z" fill="#2B2B2B"></path>
      <path d="M105.029 84.9072H120.845V100.723H105.029V84.9072Z" fill="#464646"></path>
      <path d="M105.293 99.6943H121.109V115.51H105.293V99.6943Z" fill="#2B2B2B"></path>
      <path d="M120.663 25.0127H136.479V40.8286H120.663V25.0127Z" fill="#2B2B2B"></path>
      <path d="M120.53 40.0342H136.346V55.8501H120.53V40.0342Z" fill="#464646"></path>
      <path d="M120.53 53.6426H136.346V69.4585H120.53V53.6426Z" fill="#2B2B2B"></path>
      <path d="M120.398 69.458H136.214V85.2739H120.398V69.458Z" fill="#464646"></path>
      <path d="M120.398 84.9072H136.214V100.723H120.398V84.9072Z" fill="#1E1E1D"></path>
      <path d="M120.663 99.6943H136.479V115.51H120.663V99.6943Z" fill="#1E1E1D"></path>
      <path d="M136.474 25.0127H152.289V40.8286H136.474V25.0127Z" fill="#464646"></path>
      <path d="M136.341 40.0342H152.157V55.8501H136.341V40.0342Z" fill="#2B2B2B"></path>
      <path d="M136.341 53.6426H152.157V69.4585H136.341V53.6426Z" fill="#1E1E1D"></path>
      <path d="M136.208 69.458H152.024V85.2739H136.208V69.458Z" fill="#1E1E1D"></path>
      <path d="M136.208 84.9072H152.024V100.723H136.208V84.9072Z" fill="#1E1E1D"></path>
      <path d="M136.474 99.6943H152.289V115.51H136.474V99.6943Z" fill="#1E1E1D"></path>
      <path d="M152.289 25.0127H168.105V40.8286H152.289V25.0127Z" fill="#2B2B2B"></path>
      <path d="M152.157 40.0342H167.973V55.8501H152.157V40.0342Z" fill="#464646"></path>
      <path d="M152.157 53.6426H167.973V69.4585H152.157V53.6426Z" fill="#1E1E1D"></path>
      <path d="M152.024 69.458H167.84V85.2739H152.024V69.458Z" fill="#464646"></path>
      <path d="M152.024 84.9072H167.84V100.723H152.024V84.9072Z" fill="#1E1E1D"></path>
      <path d="M152.289 99.6943H168.105V115.51H152.289V99.6943Z" fill="#464646"></path>
    </g>
    <path d="M155.822 50.4277L129.279 82.3535L100.875 65.5221L81.5309 82.791L64.1582 80.7664L54.0663 93.0002" stroke="#DB6332" stroke-width="1.41333" stroke-miterlimit="10" stroke-linecap="round" stroke-linejoin="round"></path>
    <path d="M60.6376 81.9533C60.4426 80.4043 61.5408 78.9902 63.0891 78.7959C64.6381 78.6008 66.0521 79.6983 66.2464 81.2473C66.4415 82.7963 65.344 84.2104 63.795 84.4047C62.246 84.5997 60.8327 83.5023 60.6376 81.9533Z" fill="#DB6332"></path>
    <mask id="mask0_128_228" style="mask-type:luminance" maskUnits="userSpaceOnUse" x="60" y="78" width="7" height="7">
      <path d="M66.2689 78.7725H60.615V84.4264H66.2689V78.7725Z" fill="black"></path>
      <path d="M60.6376 81.9523C60.4426 80.4033 61.5408 78.9892 63.0891 78.7949C64.6381 78.5999 66.0521 79.6973 66.2464 81.2463C66.4415 82.7953 65.344 84.2094 63.795 84.4037C62.246 84.5988 60.8327 83.5013 60.6376 81.9523Z" fill="white"></path>
    </mask>
    <g mask="url(#mask0_128_228)">
      <path d="M60.6376 81.9523C60.4426 80.4033 61.5408 78.9892 63.0891 78.7949C64.6381 78.5999 66.0521 79.6973 66.2464 81.2463C66.4415 82.7953 65.344 84.2094 63.795 84.4037C62.246 84.5988 60.8327 83.5013 60.6376 81.9523Z" stroke="#FBFCE1" stroke-width="1.41333" stroke-miterlimit="10" stroke-linejoin="round"></path>
    </g>
    <path d="M77.568 82.716C77.3729 81.167 78.4704 79.7536 80.0194 79.5586C81.5684 79.3635 82.9818 80.4617 83.1768 82.01C83.3718 83.559 82.2737 84.9731 80.7254 85.1674C79.1764 85.3624 77.7623 84.265 77.568 82.716Z" fill="#DB6332"></path>
    <mask id="mask1_128_228" style="mask-type:luminance" maskUnits="userSpaceOnUse" x="77" y="79" width="7" height="7">
      <path d="M83.1993 79.5391H77.5454V85.193H83.1993V79.5391Z" fill="black"></path>
      <path d="M77.568 82.7189C77.373 81.1699 78.4704 79.7565 80.0194 79.5615C81.5684 79.3665 82.9818 80.4646 83.1768 82.0129C83.3719 83.5619 82.2737 84.976 80.7254 85.1703C79.1764 85.3654 77.7623 84.2679 77.568 82.7189Z" fill="white"></path>
    </mask>
    <g mask="url(#mask1_128_228)">
      <path d="M77.568 82.7189C77.373 81.1699 78.4704 79.7565 80.0194 79.5615C81.5684 79.3665 82.9818 80.4646 83.1768 82.0129C83.3719 83.5619 82.2737 84.976 80.7254 85.1703C79.1764 85.3654 77.7623 84.2679 77.568 82.7189Z" stroke="#FBFCE1" stroke-width="1.41333" stroke-miterlimit="10" stroke-linejoin="round"></path>
    </g>
    <path d="M97.4924 66.9884C97.2974 65.4394 98.3955 64.0261 99.9445 63.831C101.494 63.636 102.907 64.7335 103.102 66.2825C103.296 67.8315 102.199 69.2455 100.65 69.4398C99.1008 69.6349 97.6874 68.5374 97.4924 66.9884Z" fill="#DB6332"></path>
    <mask id="mask2_128_228" style="mask-type:luminance" maskUnits="userSpaceOnUse" x="97" y="63" width="7" height="7">
      <path d="M103.124 63.8105H97.4698V69.4645H103.124V63.8105Z" fill="black"></path>
      <path d="M97.4924 66.9904C97.2974 65.4414 98.3956 64.028 99.9446 63.833C101.494 63.638 102.907 64.7354 103.102 66.2844C103.296 67.8334 102.199 69.2475 100.65 69.4418C99.1008 69.6368 97.6875 68.5394 97.4924 66.9904Z" fill="white"></path>
    </mask>
    <g mask="url(#mask2_128_228)">
      <path d="M97.4924 66.9904C97.2974 65.4414 98.3955 64.028 99.9445 63.833C101.494 63.638 102.907 64.7354 103.102 66.2844C103.296 67.8334 102.199 69.2475 100.65 69.4418C99.1008 69.6368 97.6874 68.5394 97.4924 66.9904Z" stroke="#FBFCE1" stroke-width="1.41333" stroke-miterlimit="10" stroke-linejoin="round"></path>
    </g>
    <path d="M125.785 81.8224C125.591 80.2734 126.688 78.8601 128.237 78.665C129.786 78.47 131.2 79.5674 131.395 81.1164C131.59 82.6655 130.492 84.0795 128.943 84.2738C127.394 84.4689 125.98 83.3714 125.785 81.8224Z" fill="#DB6332"></path>
    <mask id="mask3_128_228" style="mask-type:luminance" maskUnits="userSpaceOnUse" x="125" y="78" width="7" height="7">
      <path d="M131.417 78.6426H125.763V84.2965H131.417V78.6426Z" fill="black"></path>
      <path d="M125.785 81.8224C125.591 80.2734 126.688 78.8601 128.237 78.665C129.786 78.47 131.2 79.5674 131.395 81.1164C131.59 82.6655 130.492 84.0795 128.943 84.2738C127.394 84.4689 125.98 83.3714 125.785 81.8224Z" fill="white"></path>
    </mask>
    <g mask="url(#mask3_128_228)">
      <path d="M125.785 81.8224C125.591 80.2734 126.688 78.8601 128.237 78.665C129.786 78.47 131.2 79.5674 131.395 81.1164C131.59 82.6655 130.492 84.0795 128.943 84.2738C127.394 84.4689 125.98 83.3714 125.785 81.8224Z" stroke="#FBFCE1" stroke-width="1.41333" stroke-miterlimit="10" stroke-linejoin="round"></path>
    </g>
    <path d="M152.491 51.5031C152.296 49.9541 153.394 48.54 154.942 48.3457C156.491 48.1507 157.905 49.2481 158.1 50.7971C158.295 52.3461 157.197 53.7595 155.648 53.9545C154.099 54.1496 152.686 53.0514 152.491 51.5031Z" fill="#DB6332"></path>
    <mask id="mask4_128_228" style="mask-type:luminance" maskUnits="userSpaceOnUse" x="152" y="48" width="7" height="6">
      <path d="M158.122 48.3242H152.468V53.9781H158.122V48.3242Z" fill="black"></path>
      <path d="M152.491 51.5041C152.296 49.9551 153.394 48.541 154.942 48.3467C156.491 48.1516 157.905 49.2491 158.1 50.7981C158.295 52.3471 157.197 53.7604 155.648 53.9555C154.099 54.1505 152.686 53.0524 152.491 51.5041Z" fill="white"></path>
    </mask>
    <g mask="url(#mask4_128_228)">
      <path d="M152.491 51.5041C152.296 49.9551 153.394 48.541 154.942 48.3467C156.491 48.1516 157.905 49.2491 158.1 50.7981C158.295 52.3471 157.197 53.7604 155.648 53.9555C154.099 54.1505 152.686 53.0524 152.491 51.5041Z" stroke="#FBFCE1" stroke-width="1.41333" stroke-miterlimit="10" stroke-linejoin="round"></path>
    </g>
    <path d="M0.78656 30.2896C0.78656 27.3754 3.65492 25.0137 7.19249 25.0137H59.8639C63.4015 25.0137 66.2691 27.3754 66.2691 30.2896V64.1814C66.2691 67.0971 63.4015 69.4595 59.8639 69.4595H7.19249C3.65492 69.4595 0.78656 67.0971 0.78656 64.1814V30.2896Z" fill="#1E1E1D" stroke="#DB6332" stroke-width="1.41333" stroke-miterlimit="10" stroke-linejoin="round"></path>
    <path d="M11.282 32.4512L11.3039 62.0224L57.033 62.0061" stroke="#8C4A2F" stroke-width="1.41333" stroke-miterlimit="10" stroke-linecap="round" stroke-linejoin="round"></path>
    <path opacity="0.796578" d="M13.9666 39.2656H20.9258V59.8438H13.9666V39.2656Z" fill="#DB6332"></path>
    <path opacity="0.553849" d="M22.3017 35.0605H29.2603V59.9508H22.3017V35.0605Z" fill="#DB6332"></path>
    <path opacity="0.796578" d="M30.5287 44.0156H37.488V59.8443H30.5287V44.0156Z" fill="#DB6332"></path>
    <path opacity="0.553849" d="M38.8102 47.5059H45.7694V59.8443H38.8102V47.5059Z" fill="#DB6332"></path>
    <path opacity="0.796578" d="M47.0619 42.1074H54.0212V59.8433H47.0619V42.1074Z" fill="#DB6332"></path>
    <path d="M168.021 94.2309C168.021 85.1771 175.231 77.8369 184.126 77.8369C193.02 77.8369 200.23 85.1771 200.23 94.2309C200.23 103.285 193.02 110.625 184.126 110.625C175.231 110.625 168.021 103.285 168.021 94.2309Z" fill="#1E1E1D" stroke="#FBFCE1" stroke-width="1.41333" stroke-miterlimit="10" stroke-linejoin="round"></path>
    <path d="M197.489 70.0932C184.159 62.7121 167.37 67.5336 159.989 80.8642C152.607 94.1947 157.427 110.987 170.758 118.369C184.088 125.751 200.882 120.927 208.264 107.596C215.646 94.2661 210.82 77.475 197.489 70.0932ZM191.552 80.8161C198.961 84.919 201.644 94.2499 197.541 101.659C193.439 109.068 184.104 111.749 176.695 107.646C169.286 103.543 166.609 94.211 170.711 86.8023C174.814 79.3929 184.143 76.7132 191.552 80.8161Z" fill="#1E1E1D" stroke="#FBFCE1" stroke-width="1.41333" stroke-miterlimit="10" stroke-linecap="round" stroke-linejoin="round"></path>
    <path d="M194.343 75.778C184.151 70.1345 171.315 73.8212 165.672 84.0128C160.028 94.2043 163.713 107.042 173.905 112.686C184.097 118.329 196.937 114.641 202.58 104.45C208.224 94.258 204.534 81.4214 194.343 75.778ZM189.803 83.976C195.468 87.1122 197.518 94.246 194.382 99.9107C191.245 105.575 184.109 107.625 178.445 104.488C172.78 101.352 170.734 94.2163 173.87 88.5517C177.007 82.8878 184.138 80.8391 189.803 83.976Z" fill="#DB6332" stroke="#FBFCE1" stroke-width="1.41333" stroke-miterlimit="10" stroke-linecap="round" stroke-linejoin="round"></path>
    <path d="M205.174 95.2605L195.85 94.2168C195.854 96.146 195.382 98.1013 194.381 99.909C191.244 105.574 184.109 107.623 178.445 104.486C175.442 102.824 173.468 100.035 172.731 96.941L163.994 100.48C165.549 105.492 168.951 109.942 173.904 112.686C184.096 118.329 196.937 114.641 202.58 104.449C204.199 101.527 205.023 98.3868 205.174 95.2605Z" fill="#FBFCE1" stroke="#FBFCE1" stroke-width="1.41333" stroke-miterlimit="10" stroke-linecap="round" stroke-linejoin="round"></path>
  </g>
  <defs>
    <clipPath id="clip0_128_228">
      <rect width="212" height="138.507" fill="white" transform="translate(0 0.207031)"></rect>
    </clipPath>
  </defs>
</svg>
