<?xml version="1.0" encoding="UTF-8"?>
<svg xmlns="http://www.w3.org/2000/svg" width="231" height="156" viewBox="0 0 231 156" fill="none">
  <g clip-path="url(#clip0_128_150)">
    <path d="M30.3704 4.89525C28.6027 6.25108 23.9593 11.5687 22.7509 13.3372C22.3418 13.9346 26.9887 15.5888 26.6472 16.2221C25.0082 19.258 24.1556 22.6699 24.1556 26.1206C24.1563 26.7741 18.7373 25.36 18.7998 26.0135C19.0349 28.4757 20.3972 36.0183 21.5532 38.3418C21.7868 38.8112 26.8054 36.2512 27.0779 36.7092C28.7795 39.5668 31.0555 41.8658 33.6759 43.5473C34.1353 43.842 30.7327 48.5084 31.2115 48.765C33.5335 50.008 40.555 52.3775 43.161 52.6758C43.7584 52.7448 43.7483 46.8226 44.3507 46.8391C48.1443 46.9434 52.017 46.0045 55.5188 43.919C56.0033 43.63 58.2311 47.3193 58.6833 46.9987C60.7947 45.5012 65.479 41.0571 66.8485 39.0032C67.1239 38.5898 62.6912 36.7803 62.9356 36.3497C65.0305 32.6575 65.9621 29.5181 65.5624 25.2716C65.5207 24.8259 70.6371 24.7116 70.5652 24.268C70.2086 22.0437 68.8018 16.2998 67.6824 14.215C67.5358 13.9411 62.8817 15.752 62.7214 15.4824C61.0327 12.6471 58.7768 10.356 56.1816 8.67734C55.9077 8.50049 58.7509 4.05629 58.4698 3.89238C55.5892 2.21664 49.158 0.366207 45.8424 0.2023C45.1897 0.169949 44.6016 5.34023 43.946 5.37042C40.6434 5.51995 37.3272 6.45884 34.2877 8.26902C33.5745 8.69388 31.0131 4.40209 30.3704 4.89525ZM39.9504 16.5313C44.8993 13.5845 51.2981 15.2063 54.2449 20.1545C57.1916 25.1033 55.5741 31.5087 50.6252 34.4562C45.6771 37.4029 39.2739 35.7739 36.3272 30.825C33.3804 25.8769 35.0022 19.478 39.9504 16.5313Z" fill="#DB6332" stroke="#DB6332" stroke-width="2.87558" stroke-miterlimit="10" stroke-linejoin="round"></path>
    <path d="M32.7291 5.12667C31.0002 6.45303 26.4596 11.6521 25.2777 13.381C24.8788 13.9655 29.4222 15.583 29.0879 16.202C27.4855 19.171 26.6516 22.5074 26.6523 25.8819C26.6523 26.5202 21.354 25.1378 21.4151 25.7769C21.6445 28.1845 22.9773 35.5603 24.1074 37.8313C24.336 38.2907 29.2432 35.7875 29.5099 36.2354C31.1734 39.029 33.3991 41.277 35.9612 42.9218C36.4105 43.2101 33.0835 47.7729 33.5515 48.0238C35.8218 49.2395 42.6879 51.5557 45.2364 51.8483C45.8201 51.9152 45.8101 46.1245 46.3996 46.141C50.1083 46.2424 53.8955 45.3244 57.3196 43.2849C57.7933 43.003 59.9716 46.6105 60.4137 46.297C62.4783 44.8326 67.0592 40.4869 68.3977 38.4783C68.6673 38.0743 64.3331 36.3051 64.5718 35.8838C66.6206 32.2735 67.5315 29.2031 67.1411 25.0508C67.1001 24.6152 72.1022 24.5037 72.0332 24.0695C71.6838 21.8949 70.3086 16.2782 69.2137 14.2401C69.0699 13.9719 64.5193 15.7426 64.3626 15.4795C62.7113 12.7067 60.5057 10.4659 57.968 8.82467C57.6999 8.65214 60.4798 4.30571 60.2052 4.14611C57.3886 2.50775 51.1004 0.698283 47.8575 0.537251C47.2191 0.506338 46.6447 5.56234 46.0035 5.5911C42.7742 5.73775 39.5313 6.65577 36.5594 8.42569C35.862 8.84049 33.3574 4.64429 32.7291 5.12667ZM42.097 16.5046C46.9352 13.6233 53.1924 15.2092 56.0737 20.048C58.9558 24.8862 57.3735 31.1506 52.5346 34.032C47.6965 36.9133 41.4349 35.3202 38.5536 30.4821C35.6722 25.6432 37.2581 19.386 42.097 16.5046Z" fill="#1E1E1D" stroke="#DB6332" stroke-width="1.43779" stroke-miterlimit="10" stroke-linejoin="round"></path>
    <path d="M30.379 27.2394C30.379 23.3107 33.5637 20.126 37.4925 20.126H202.682C206.611 20.126 209.796 23.3107 209.796 27.2394V144.413C209.796 148.341 206.611 151.526 202.682 151.526H37.4925C33.5637 151.526 30.379 148.341 30.379 144.413V27.2394Z" fill="#2B2B2B" stroke="#F2F3D9" stroke-width="2.87558" stroke-miterlimit="10" stroke-linejoin="round"></path>
    <path d="M30.2396 26.6826C30.2396 22.7538 33.4243 19.5684 37.3537 19.5684H202.745C206.675 19.5684 209.86 22.7538 209.86 26.6826C209.86 26.6826 209.876 35.3201 209.87 35.3201H30.4286C30.3158 35.3201 30.2396 26.6826 30.2396 26.6826Z" fill="#F2F3D9" stroke="#F2F4D9" stroke-width="2.87558" stroke-miterlimit="10" stroke-linejoin="round"></path>
    <path d="M176.967 26.961C176.967 25.1206 178.459 23.6289 180.299 23.6289C182.139 23.6289 183.631 25.1206 183.631 26.961C183.631 28.8014 182.139 30.2931 180.299 30.2931C178.459 30.2931 176.967 28.8014 176.967 26.961Z" fill="#FDC4AD"></path>
    <path d="M187.701 26.961C187.701 25.1206 189.193 23.6289 191.033 23.6289C192.873 23.6289 194.365 25.1206 194.365 26.961C194.365 28.8014 192.873 30.2931 191.033 30.2931C189.193 30.2931 187.701 28.8014 187.701 26.961Z" fill="#E19577"></path>
    <path d="M197.666 26.961C197.666 25.1206 199.158 23.6289 200.998 23.6289C202.838 23.6289 204.33 25.1206 204.33 26.961C204.33 28.8014 202.838 30.2931 200.998 30.2931C199.158 30.2931 197.666 28.8014 197.666 26.961Z" fill="#DB6332"></path>
    <path opacity="0.307701" d="M46.2731 129.051C46.2731 126.548 44.2422 124.517 41.7383 124.517C39.2336 124.517 37.2035 126.548 37.2035 129.051C37.2035 131.556 39.2336 133.586 41.7383 133.586C44.2422 133.586 46.2731 131.556 46.2731 129.051Z" fill="#F2F3D9" stroke="#F2F4D9" stroke-width="1.43779" stroke-miterlimit="10" stroke-linejoin="round"></path>
    <path d="M42.8339 127.747L40.2782 129.423L42.7627 130.954" stroke="#F2F3D9" stroke-width="0.718894" stroke-miterlimit="10" stroke-linecap="round" stroke-linejoin="round"></path>
    <path opacity="0.307701" d="M193.838 129.051C193.838 126.548 195.868 124.517 198.372 124.517C200.877 124.517 202.907 126.548 202.907 129.051C202.907 131.556 200.877 133.586 198.372 133.586C195.868 133.586 193.838 131.556 193.838 129.051Z" fill="#F2F3D9" stroke="#F2F4D9" stroke-width="1.43779" stroke-miterlimit="10" stroke-linejoin="round"></path>
    <path d="M197.277 127.747L199.832 129.423L197.348 130.954" stroke="#F2F3D9" stroke-width="0.718894" stroke-miterlimit="10" stroke-linecap="round" stroke-linejoin="round"></path>
    <path d="M58.1628 138.161C56.3412 138.16 54.8603 139.641 54.8603 141.463V150.09H84.8971V141.463C84.8971 139.641 83.4384 138.16 81.6168 138.161H58.1628ZM91.6367 138.161C89.8143 138.16 88.3564 139.641 88.3564 141.463V150.09H118.393V141.463C118.393 139.641 116.912 138.16 115.091 138.161H91.6367ZM125.155 138.161C123.333 138.16 121.853 139.641 121.853 141.463V150.09H151.889V141.463C151.889 139.641 150.408 138.161 148.587 138.161H125.155ZM158.494 138.161C156.672 138.16 155.214 139.641 155.214 141.463V150.09H185.25V141.463C185.25 139.641 183.769 138.161 181.948 138.161H158.494Z" fill="#A3512F"></path>
    <path d="M54.8574 107.723C54.8574 106.082 56.1873 104.751 57.8286 104.751H182.282C183.923 104.751 185.253 106.082 185.253 107.723V128.509C185.253 130.15 183.923 131.482 182.282 131.482H57.8286C56.1873 131.482 54.8574 130.15 54.8574 128.509V107.723Z" fill="#A3512F"></path>
    <path opacity="0.176615" d="M54.9882 63.5624C54.9882 61.7609 56.449 60.3008 58.2498 60.3008H96.436C98.2376 60.3008 99.6977 61.7609 99.6977 63.5624V94.0917C99.6977 95.8932 98.2376 97.3533 96.436 97.3533H58.2498C56.449 97.3533 54.9882 95.8932 54.9882 94.0917V63.5624Z" fill="#F2F4D9"></path>
    <path opacity="0.68604" d="M104.79 63.3309C104.79 61.6573 106.147 60.3008 107.82 60.3008H182.451C184.124 60.3008 185.48 61.6573 185.48 63.3309C185.48 65.0038 184.124 66.3604 182.451 66.3604H107.82C106.147 66.3604 104.79 65.0038 104.79 63.3309Z" fill="#DB6332"></path>
    <path opacity="0.68604" d="M54.9882 49.9181C54.9882 48.2452 56.3447 46.8887 58.0183 46.8887H76.6363C78.3091 46.8887 79.6657 48.2452 79.6657 49.9181V50.4134C79.6657 52.0863 78.3091 53.4428 76.6363 53.4428H58.0183C56.3447 53.4428 54.9882 52.0863 54.9882 50.4134V49.9181Z" fill="#DB6332"></path>
    <path opacity="0.68604" d="M87.3593 49.8661C87.3593 48.1925 88.7151 46.8359 90.3887 46.8359H109.007C110.68 46.8359 112.037 48.1925 112.037 49.8661V50.3607C112.037 52.0342 110.68 53.3901 109.007 53.3901H90.3887C88.7151 53.3901 87.3593 52.0342 87.3593 50.3607V49.8661Z" fill="#50514C"></path>
    <path opacity="0.68604" d="M114.408 49.9181C114.408 48.2452 115.764 46.8887 117.437 46.8887H136.055C137.729 46.8887 139.085 48.2452 139.085 49.9181V50.4134C139.085 52.0863 137.729 53.4428 136.055 53.4428H117.437C115.764 53.4428 114.408 52.0863 114.408 50.4134V49.9181Z" fill="#50514C"></path>
    <path d="M160.62 49.9181C160.62 48.2452 161.977 46.8887 163.65 46.8887H182.268C183.941 46.8887 185.298 48.2452 185.298 49.9181V50.4134C185.298 52.0863 183.941 53.4428 182.268 53.4428H163.65C161.977 53.4428 160.62 52.0863 160.62 50.4134V49.9181Z" fill="#A3512F"></path>
    <path opacity="0.176615" d="M104.608 73.3966C104.608 71.7237 105.964 70.3672 107.637 70.3672H182.268C183.941 70.3672 185.298 71.7237 185.298 73.3966C185.298 75.0702 183.941 76.4267 182.268 76.4267H107.637C105.964 76.4267 104.608 75.0702 104.608 73.3966Z" fill="#F2F4D9"></path>
    <path opacity="0.176615" d="M104.79 93.6083C104.79 91.9347 106.147 90.5781 107.82 90.5781H182.451C184.124 90.5781 185.48 91.9347 185.48 93.6083C185.48 95.2811 184.124 96.6377 182.451 96.6377H107.82C106.147 96.6377 104.79 95.2811 104.79 93.6083Z" fill="#F2F4D9"></path>
    <path opacity="0.68604" d="M104.79 83.3732C104.79 81.7003 106.147 80.3438 107.82 80.3438H182.451C184.124 80.3438 185.48 81.7003 185.48 83.3732C185.48 85.0467 184.124 86.4033 182.451 86.4033H107.82C106.147 86.4033 104.79 85.0467 104.79 83.3732Z" fill="#DB6332"></path>
    <path d="M147.323 88.7344C147.323 86.9739 148.751 85.5469 150.511 85.5469H224.544C226.305 85.5469 227.733 86.9739 227.733 88.7344V140.117C227.733 141.878 226.305 143.306 224.544 143.306H150.511C148.751 143.306 147.323 141.878 147.323 140.117V88.7344Z" fill="#1E1E1D" stroke="#DB6332" stroke-width="1.43779" stroke-miterlimit="10" stroke-linejoin="round"></path>
    <path d="M170.11 93.833C170.11 93.833 170.11 117.656 170.11 128.322C170.11 138.989 170.11 136.501 170.11 136.501" stroke="#474747" stroke-width="1.43779" stroke-miterlimit="10" stroke-linecap="round" stroke-linejoin="round"></path>
    <path d="M157.5 101.091V101.886L154.675 100.661V99.9821L157.5 98.7578V99.5579L155.531 100.316L157.5 101.091Z" fill="#DB6332"></path>
    <path d="M159.247 98.741L158.46 101.979C158.434 102.086 158.411 102.17 158.392 102.232C158.372 102.294 158.342 102.342 158.302 102.376C158.262 102.411 158.203 102.428 158.126 102.428C157.935 102.428 157.84 102.346 157.84 102.182C157.84 102.138 157.858 102.031 157.896 101.858L158.679 98.6202C158.72 98.4484 158.76 98.3305 158.797 98.2665C158.835 98.2032 158.908 98.1709 159.016 98.1709C159.11 98.1709 159.182 98.1939 159.231 98.2385C159.281 98.2838 159.305 98.3456 159.305 98.4239C159.305 98.4822 159.286 98.5879 159.247 98.741Z" fill="#DB6332"></path>
    <path d="M162.468 100.662L159.643 101.892V101.098L161.617 100.323L159.643 99.5588V98.7695L162.468 99.9888V100.662Z" fill="#DB6332"></path>
    <path d="M150.698 110.247C150.698 109.788 151.07 109.416 151.529 109.416H158.114C158.572 109.416 158.945 109.788 158.945 110.247V110.266C158.945 110.724 158.572 111.096 158.114 111.096H151.529C151.07 111.096 150.698 110.724 150.698 110.266V110.247Z" fill="#6F6D6D"></path>
    <path d="M159.408 110.247C159.408 109.788 159.78 109.416 160.239 109.416H166.436C166.896 109.416 167.267 109.788 167.267 110.247C167.267 110.706 166.896 111.078 166.436 111.078H160.239C159.78 111.078 159.408 110.706 159.408 110.247Z" fill="#6F6D6D"></path>
    <path d="M150.698 113.946C150.698 113.488 151.07 113.115 151.529 113.115H155.01C155.469 113.115 155.841 113.488 155.841 113.946C155.841 114.406 155.469 114.777 155.01 114.777H151.529C151.07 114.777 150.698 114.406 150.698 113.946Z" fill="#6F6D6D"></path>
    <path d="M150.621 129.153C150.621 128.695 150.993 128.322 151.452 128.322H155.01C155.469 128.322 155.841 128.695 155.841 129.153C155.841 129.612 155.469 129.984 155.01 129.984H151.452C150.993 129.984 150.621 129.612 150.621 129.153Z" fill="#DB6332"></path>
    <path d="M163.058 113.946C163.058 113.488 163.43 113.115 163.889 113.115H166.436C166.896 113.115 167.267 113.488 167.267 113.946C167.267 114.406 166.896 114.777 166.436 114.777H163.889C163.43 114.777 163.058 114.406 163.058 113.946Z" fill="#6F6D6D"></path>
    <path d="M156.292 113.946C156.292 113.488 156.664 113.115 157.123 113.115H161.78C162.239 113.115 162.611 113.488 162.611 113.946C162.611 114.406 162.239 114.777 161.78 114.777H157.123C156.664 114.777 156.292 114.406 156.292 113.946Z" fill="#DB6332"></path>
    <path d="M156.292 129.153C156.292 128.695 156.661 128.322 157.117 128.322H166.442C166.898 128.322 167.267 128.695 167.267 129.153C167.267 129.612 166.898 129.984 166.442 129.984H157.117C156.661 129.984 156.292 129.612 156.292 129.153Z" fill="#6F6D6D"></path>
    <path d="M161.459 117.653C161.459 117.195 161.83 116.822 162.29 116.822H166.436C166.896 116.822 167.267 117.195 167.267 117.653C167.267 118.112 166.896 118.484 166.436 118.484H162.29C161.83 118.484 161.459 118.112 161.459 117.653Z" fill="#DB6332"></path>
    <path d="M150.698 117.653C150.698 117.195 151.07 116.822 151.529 116.822H160.154C160.612 116.822 160.985 117.195 160.985 117.653C160.985 118.112 160.612 118.484 160.154 118.484H151.529C151.07 118.484 150.698 118.112 150.698 117.653Z" fill="#6F6D6D"></path>
    <path d="M150.621 121.439C150.621 120.98 150.993 120.608 151.452 120.608H166.436C166.896 120.608 167.267 120.98 167.267 121.439C167.267 121.898 166.896 122.27 166.436 122.27H151.452C150.993 122.27 150.621 121.898 150.621 121.439Z" fill="#DB6332"></path>
    <path d="M150.621 125.118C150.621 124.659 150.993 124.287 151.452 124.287H156.892C157.351 124.287 157.722 124.659 157.722 125.118C157.722 125.577 157.351 125.948 156.892 125.948H151.452C150.993 125.948 150.621 125.577 150.621 125.118Z" fill="#6F6D6D"></path>
    <path d="M158.283 125.118C158.283 124.659 158.656 124.287 159.114 124.287H162.507C162.966 124.287 163.338 124.659 163.338 125.118C163.338 125.577 162.966 125.948 162.507 125.948H159.114C158.656 125.948 158.283 125.577 158.283 125.118Z" fill="#6F6D6D"></path>
    <path d="M163.763 125.118C163.763 124.659 164.135 124.287 164.594 124.287H166.436C166.896 124.287 167.267 124.659 167.267 125.118C167.267 125.577 166.896 125.948 166.436 125.948H164.594C164.135 125.948 163.763 125.577 163.763 125.118Z" fill="#6F6D6D"></path>
    <path d="M150.621 132.656C150.621 132.198 150.993 131.825 151.452 131.825H161.704C162.162 131.825 162.534 132.198 162.534 132.656C162.534 133.115 162.162 133.487 161.704 133.487H151.452C150.993 133.487 150.621 133.115 150.621 132.656Z" fill="#6F6D6D"></path>
    <path d="M174.423 132.24C174.423 132.929 174.981 133.487 175.67 133.487H196.951C197.64 133.487 198.198 132.929 198.198 132.24V132.213C198.198 131.525 197.64 130.967 196.951 130.967H175.67C174.981 130.967 174.423 131.525 174.423 132.213V132.24Z" fill="#6F6D6D"></path>
    <path d="M199.535 132.242C199.535 132.93 200.093 133.488 200.781 133.488H220.946C221.635 133.488 222.193 132.93 222.193 132.242C222.193 131.554 221.635 130.995 220.946 130.995H200.781C200.093 130.995 199.535 131.554 199.535 132.242Z" fill="#6F6D6D"></path>
    <path d="M174.423 126.691C174.423 127.379 174.981 127.937 175.67 127.937H188.005C188.693 127.937 189.252 127.379 189.252 126.691C189.252 126.002 188.693 125.444 188.005 125.444H175.67C174.981 125.444 174.423 126.002 174.423 126.691Z" fill="#6F6D6D"></path>
    <path d="M174.202 103.882C174.202 104.57 174.76 105.129 175.448 105.129H188.005C188.693 105.129 189.252 104.57 189.252 103.882C189.252 103.194 188.693 102.636 188.005 102.636H175.448C174.76 102.636 174.202 103.194 174.202 103.882Z" fill="#DB6332"></path>
    <path d="M210.058 126.691C210.058 127.379 210.616 127.937 211.305 127.937H220.946C221.635 127.937 222.193 127.379 222.193 126.691C222.193 126.002 221.635 125.444 220.946 125.444H211.305C210.616 125.444 210.058 126.002 210.058 126.691Z" fill="#6F6D6D"></path>
    <path d="M190.551 126.691C190.551 127.379 191.109 127.937 191.797 127.937H207.522C208.21 127.937 208.768 127.379 208.768 126.691C208.768 126.002 208.21 125.444 207.522 125.444H191.797C191.109 125.444 190.551 126.002 190.551 126.691Z" fill="#DB6332"></path>
    <path d="M190.551 103.882C190.551 104.57 191.109 105.129 191.797 105.129H220.946C221.635 105.129 222.193 104.57 222.193 103.882C222.193 103.194 221.635 102.636 220.946 102.636H191.797C191.109 102.636 190.551 103.194 190.551 103.882Z" fill="#6F6D6D"></path>
    <path d="M205.446 121.132C205.446 121.82 206.004 122.378 206.692 122.378H220.946C221.635 122.378 222.193 121.82 222.193 121.132C222.193 120.444 221.635 119.886 220.946 119.886H206.692C206.004 119.886 205.446 120.444 205.446 121.132Z" fill="#DB6332"></path>
    <path d="M174.423 121.132C174.423 121.82 174.981 122.378 175.67 122.378H202.833C203.522 122.378 204.08 121.82 204.08 121.132C204.08 120.444 203.522 119.886 202.833 119.886H175.67C174.981 119.886 174.423 120.444 174.423 121.132Z" fill="#6F6D6D"></path>
    <path d="M174.202 115.454C174.202 116.142 174.76 116.7 175.448 116.7H220.946C221.635 116.7 222.193 116.142 222.193 115.454C222.193 114.766 221.635 114.207 220.946 114.207H175.448C174.76 114.207 174.202 114.766 174.202 115.454Z" fill="#DB6332"></path>
    <path d="M174.202 109.935C174.202 110.624 174.76 111.182 175.448 111.182H193.429C194.118 111.182 194.676 110.624 194.676 109.935C194.676 109.247 194.118 108.688 193.429 108.688H175.448C174.76 108.688 174.202 109.247 174.202 109.935Z" fill="#6F6D6D"></path>
    <path d="M196.292 109.935C196.292 110.624 196.85 111.182 197.538 111.182H209.617C210.306 111.182 210.864 110.624 210.864 109.935C210.864 109.247 210.306 108.688 209.617 108.688H197.538C196.85 108.688 196.292 109.247 196.292 109.935Z" fill="#6F6D6D"></path>
    <path d="M212.091 109.935C212.091 110.624 212.649 111.182 213.337 111.182H220.946C221.635 111.182 222.193 110.624 222.193 109.935C222.193 109.247 221.635 108.688 220.946 108.688H213.337C212.649 108.688 212.091 109.247 212.091 109.935Z" fill="#6F6D6D"></path>
    <path d="M174.202 98.6267C174.202 99.3154 174.76 99.8733 175.448 99.8733H207.301C207.99 99.8733 208.548 99.3154 208.548 98.6267C208.548 97.9387 207.99 97.3809 207.301 97.3809H175.448C174.76 97.3809 174.202 97.9387 174.202 98.6267Z" fill="#6F6D6D"></path>
    <path d="M21.4647 32.4332C19.6948 32.7589 14.398 34.8782 12.8783 35.7064C12.3643 35.986 15.0997 38.8853 14.6216 39.2146C12.3254 40.7976 10.4578 42.9384 9.18892 45.4222C8.94881 45.8924 5.57001 42.8824 5.37447 43.3755C4.63832 45.2339 2.84539 51.1626 2.82311 53.2589C2.81808 53.683 7.37082 53.6859 7.39886 54.1158C7.57283 56.798 8.36505 59.289 9.63246 61.4622C9.8546 61.8432 5.69006 63.9503 5.94096 64.3104C7.15373 66.0595 11.3362 70.3455 13.1011 71.5188C13.5059 71.7876 15.6755 67.5225 16.1032 67.7561C18.7948 69.2255 21.927 69.9739 25.2138 69.7611C25.6681 69.7316 25.9147 73.2053 26.3583 73.1406C28.428 72.8394 33.4329 71.3635 35.1733 70.3894C35.5242 70.1931 32.9994 67.2608 33.3337 67.0415C36.1985 65.1544 38.023 63.2378 39.2976 60.0352C39.4306 59.6994 43.1545 61.4981 43.2666 61.1523C43.8274 59.4205 44.9273 54.7707 44.8878 52.8585C44.8827 52.6076 40.8684 52.1992 40.8519 51.9469C40.6793 49.2856 39.8986 46.8075 38.6478 44.6451C38.5162 44.4172 42.1962 42.2641 42.0539 42.0434C40.5974 39.7782 36.6499 36.0823 34.3243 34.7445C33.8664 34.4814 31.5422 37.9867 31.0591 37.7667C28.6278 36.6603 25.896 36.1161 23.0434 36.3009C22.3741 36.3447 22.1089 32.3146 21.4647 32.4332ZM24.0808 44.3288C28.7249 44.0276 32.7334 47.548 33.0346 52.192C33.3358 56.8361 29.8161 60.8511 25.1721 61.1523C20.5273 61.4535 16.5187 57.9267 16.2175 53.2826C15.9163 48.6386 19.4368 44.63 24.0808 44.3288Z" fill="#FFFFEC" stroke="#FFFFEC" stroke-width="2.87558" stroke-miterlimit="10" stroke-linejoin="round"></path>
    <path d="M14.7654 52.6208C14.7654 46.8876 19.7689 42.2393 25.9406 42.2393C32.1123 42.2393 37.1158 46.8876 37.1158 52.6208C37.1158 58.354 32.1123 63.0024 25.9406 63.0024C19.7689 63.0024 14.7654 58.354 14.7654 52.6208Z" fill="#1E1E1D" stroke="#FFFFEC" stroke-width="1.43779" stroke-miterlimit="10" stroke-linejoin="round"></path>
    <path d="M23.2196 32.1041C21.4497 32.4305 16.1528 34.5491 14.6331 35.3773C14.1191 35.6569 16.8545 38.5562 16.3764 38.8862C14.0803 40.4685 12.2126 42.6093 10.9437 45.0931C10.7036 45.5633 7.32482 42.5533 7.12928 43.0464C6.39313 44.9048 4.60022 50.8335 4.57794 52.9305C4.57362 53.3539 9.12565 53.3568 9.15369 53.7867C9.32766 56.4689 10.1199 58.9599 11.3873 61.1338C11.6094 61.5141 7.44559 63.6212 7.69576 63.9821C8.90854 65.7304 13.0911 70.0165 14.856 71.1897C15.2607 71.4586 17.4303 67.1941 17.8581 67.427C20.5496 68.8964 23.6818 69.6448 26.9686 69.432C27.4229 69.4025 27.6695 72.8762 28.1131 72.8115C30.1828 72.5103 35.1877 71.0351 36.9282 70.0603C37.279 69.864 34.7542 66.9324 35.0885 66.7124C37.9533 64.826 39.7779 62.9087 41.0525 59.7061C41.1855 59.3703 44.9093 61.169 45.0215 60.8232C45.5822 59.0914 46.6821 54.4416 46.6426 52.5294C46.6375 52.2785 42.6232 51.8708 42.6067 51.6178C42.4342 48.9565 41.6534 46.4784 40.4026 44.316C40.271 44.0881 43.951 41.935 43.8087 41.7143C42.3522 39.4498 38.4048 35.7532 36.0792 34.4161C35.6212 34.1523 33.297 37.6576 32.8139 37.4376C30.3826 36.3312 27.6508 35.787 24.7983 35.9725C24.129 36.0156 23.8637 31.9855 23.2196 32.1041ZM25.8356 43.9997C30.4797 43.6985 34.4882 47.2189 34.7895 51.8629C35.0907 56.5077 31.571 60.522 26.9269 60.8232C22.2821 61.1244 18.2736 57.5976 17.9724 52.9535C17.6711 48.3095 21.1916 44.3009 25.8356 43.9997Z" fill="#1E1E1D" stroke="#FFFFEC" stroke-width="1.43779" stroke-miterlimit="10" stroke-linejoin="round"></path>
  </g>
  <defs>
    <clipPath id="clip0_128_150">
      <rect width="230.765" height="156" fill="white"></rect>
    </clipPath>
  </defs>
</svg>
