<?xml version="1.0" encoding="UTF-8"?>
<svg xmlns="http://www.w3.org/2000/svg" width="251" height="159" viewBox="0 0 251 159" fill="none">
  <g clip-path="url(#clip0_125_1535)">
    <path d="M24.3737 9.39472C24.3737 4.68092 28.1948 0.859863 32.9086 0.859863H231.106C235.82 0.859863 239.641 4.68092 239.641 9.39472V149.982C239.641 154.695 235.82 158.516 231.106 158.516H32.9086C28.1948 158.516 24.3737 154.695 24.3737 149.982V9.39472Z" fill="#2B2B2B" stroke="#F2F3D9" stroke-width="3.45017" stroke-miterlimit="10" stroke-linejoin="round"></path>
    <path d="M24.2064 8.72715C24.2064 4.01336 28.0275 0.191406 32.7421 0.191406H231.182C235.897 0.191406 239.719 4.01336 239.719 8.72715C239.719 8.72715 239.738 19.0906 239.73 19.0906H24.4332C24.2978 19.0906 24.2064 8.72715 24.2064 8.72715Z" fill="#F2F3D9" stroke="#F2F4D9" stroke-width="3.45017" stroke-miterlimit="10" stroke-linejoin="round"></path>
    <path d="M200.252 9.06137C200.252 6.85326 202.043 5.06348 204.25 5.06348C206.458 5.06348 208.248 6.85326 208.248 9.06137C208.248 11.2695 206.458 13.0593 204.25 13.0593C202.043 13.0593 200.252 11.2695 200.252 9.06137Z" fill="#FDC4AD"></path>
    <path d="M213.132 9.06137C213.132 6.85326 214.922 5.06348 217.13 5.06348C219.337 5.06348 221.128 6.85326 221.128 9.06137C221.128 11.2695 219.337 13.0593 217.13 13.0593C214.922 13.0593 213.132 11.2695 213.132 9.06137Z" fill="#E19577"></path>
    <path d="M225.087 9.06137C225.087 6.85326 226.878 5.06348 229.085 5.06348C231.293 5.06348 233.083 6.85326 233.083 9.06137C233.083 11.2695 231.293 13.0593 229.085 13.0593C226.878 13.0593 225.087 11.2695 225.087 9.06137Z" fill="#DB6332"></path>
    <path opacity="0.68604" d="M53.7433 67.0823C53.7433 64.8957 55.515 63.124 57.7007 63.124H85.8368C88.0234 63.124 89.795 64.8957 89.795 67.0823V91.2378C89.795 93.4235 88.0234 95.1951 85.8368 95.1951H57.7007C55.515 95.1951 53.7433 93.4235 53.7433 91.2378V67.0823Z" fill="#DB6332"></path>
    <path opacity="0.68604" d="M93.9249 67.0823C93.9249 64.8957 95.6965 63.124 97.8831 63.124H126.018C128.205 63.124 129.977 64.8957 129.977 67.0823V91.2378C129.977 93.4235 128.205 95.1951 126.018 95.1951H97.8831C95.6965 95.1951 93.9249 93.4235 93.9249 91.2378V67.0823Z" fill="#DB6332"></path>
    <path opacity="0.68604" d="M134.119 67.0823C134.119 64.8957 135.892 63.124 138.078 63.124H166.214C168.4 63.124 170.172 64.8957 170.172 67.0823V91.2378C170.172 93.4235 168.4 95.1951 166.214 95.1951H138.078C135.892 95.1951 134.119 93.4235 134.119 91.2378V67.0823Z" fill="#DB6332"></path>
    <path opacity="0.68604" d="M174.143 67.0823C174.143 64.8957 175.915 63.124 178.101 63.124H206.237C208.423 63.124 210.195 64.8957 210.195 67.0823V91.2378C210.195 93.4235 208.423 95.1951 206.237 95.1951H178.101C175.915 95.1951 174.143 93.4235 174.143 91.2378V67.0823Z" fill="#DB6332"></path>
    <path opacity="0.68604" d="M53.7433 105.961C53.7433 103.992 55.339 102.395 57.3082 102.395H206.63C208.599 102.395 210.195 103.992 210.195 105.961V130.9C210.195 132.87 208.599 134.467 206.63 134.467H57.3082C55.339 134.467 53.7433 132.87 53.7433 130.9V105.961Z" fill="#DB6332"></path>
    <path opacity="0.68604" d="M103.602 47.8795C103.602 45.7999 105.289 44.1128 107.369 44.1128H158.565C160.645 44.1128 162.331 45.7999 162.331 47.8795V48.2168C162.331 50.2972 160.645 51.9835 158.565 51.9835H107.369C105.289 51.9835 103.602 50.2972 103.602 48.2168V47.8795Z" fill="#DB6332"></path>
    <path opacity="0.307701" d="M48.2092 93.872C48.2092 90.0768 45.1326 87.001 41.3382 87.001C37.5439 87.001 34.4672 90.0768 34.4672 93.872C34.4672 97.6663 37.5439 100.742 41.3382 100.742C45.1326 100.742 48.2092 97.6663 48.2092 93.872Z" fill="#F2F3D9" stroke="#F2F4D9" stroke-width="1.72509" stroke-miterlimit="10" stroke-linejoin="round"></path>
    <path d="M42.9986 91.894L39.1258 94.4325L42.8908 96.7536" stroke="#F2F3D9" stroke-width="0.862543" stroke-miterlimit="10" stroke-linecap="round" stroke-linejoin="round"></path>
    <path opacity="0.307701" d="M217.326 93.872C217.326 90.0768 220.403 87.001 224.197 87.001C227.992 87.001 231.068 90.0768 231.068 93.872C231.068 97.6663 227.992 100.742 224.197 100.742C220.403 100.742 217.326 97.6663 217.326 93.872Z" fill="#F2F3D9" stroke="#F2F4D9" stroke-width="1.72509" stroke-miterlimit="10" stroke-linejoin="round"></path>
    <path d="M222.537 91.894L226.41 94.4325L222.645 96.7536" stroke="#F2F3D9" stroke-width="0.862543" stroke-miterlimit="10" stroke-linecap="round" stroke-linejoin="round"></path>
    <path d="M5.77386 24.2937C5.77386 19.1133 9.97358 14.9136 15.154 14.9136H54.3316C59.512 14.9136 63.7117 19.1133 63.7117 24.2937V55.4505C63.7117 60.6309 59.512 64.8306 54.3316 64.8306H15.154C9.97358 64.8306 5.77386 60.6309 5.77386 55.4505V24.2937Z" fill="#F2F3D9" stroke="#1E1E1D" stroke-width="3.45017" stroke-miterlimit="10" stroke-linejoin="round"></path>
    <path d="M32.6153 56.7122C32.6153 55.5513 33.5564 54.6094 34.7182 54.6094C35.8792 54.6094 36.8202 55.5513 36.8202 56.7122C36.8202 57.8732 35.8792 58.8143 34.7182 58.8143C33.5564 58.8143 32.6153 57.8732 32.6153 56.7122Z" fill="#DB6332" stroke="#DB6332" stroke-width="3.45017" stroke-miterlimit="10" stroke-linejoin="round"></path>
    <path d="M33.3054 55.9351H36.1302" stroke="#F2F3D9" stroke-width="0.431271" stroke-miterlimit="10" stroke-linecap="round" stroke-linejoin="round"></path>
    <path d="M33.3054 56.7119H36.1302" stroke="#F2F3D9" stroke-width="0.431271" stroke-miterlimit="10" stroke-linecap="round" stroke-linejoin="round"></path>
    <path d="M33.3054 57.481H36.1302" stroke="#F2F3D9" stroke-width="0.431271" stroke-miterlimit="10" stroke-linecap="round" stroke-linejoin="round"></path>
    <path d="M23.6026 56.7122C23.6026 55.5513 24.5436 54.6094 25.7046 54.6094C26.8656 54.6094 27.8075 55.5513 27.8075 56.7122C27.8075 57.8732 26.8656 58.8143 25.7046 58.8143C24.5436 58.8143 23.6026 57.8732 23.6026 56.7122Z" fill="#DB6332" stroke="#DB6332" stroke-width="3.45017" stroke-miterlimit="10" stroke-linejoin="round"></path>
    <path d="M24.3004 55.9351H26.2938V57.6834H24.3004V55.9351Z" fill="#F2F3D9"></path>
    <path d="M26.2938 56.6851L27.1019 56.1089L27.1088 57.5105L26.2938 57.0396V56.6851Z" fill="#F2F3D9"></path>
    <path d="M41.1933 56.7122C41.1933 55.5513 42.1352 54.6094 43.2962 54.6094C44.4572 54.6094 45.3982 55.5513 45.3982 56.7122C45.3982 57.8732 44.4572 58.8143 43.2962 58.8143C42.1352 58.8143 41.1933 57.8732 41.1933 56.7122Z" fill="#DB6332" stroke="#DB6332" stroke-width="3.45017" stroke-miterlimit="10" stroke-linejoin="round"></path>
    <path d="M41.6082 57.4798C41.4331 57.209 41.5168 56.8424 41.7954 56.663C42.0748 56.4827 42.4423 56.5569 42.6174 56.8277C42.7925 57.0994 42.7088 57.4651 42.4302 57.6454C42.1507 57.8248 41.7833 57.7515 41.6082 57.4798Z" fill="#F2F4D9"></path>
    <path d="M43.8905 57.4088C43.7197 57.144 43.8016 56.7868 44.0733 56.6118C44.3459 56.4358 44.7047 56.5083 44.8755 56.7731C45.0463 57.037 44.9644 57.3941 44.6918 57.5692C44.4201 57.7451 44.0613 57.6727 43.8905 57.4088Z" fill="#F2F4D9"></path>
    <path d="M41.5211 57.1405C41.5211 57.1405 41.4944 55.6888 43.5213 55.8993C45.5483 56.1097 44.91 57.344 44.8462 57.407C44.7824 57.47 44.2795 56.6911 44.2459 56.7135C44.2122 56.7368 43.1763 56.1313 42.2482 56.7187C41.3201 57.3061 41.5211 57.1405 41.5211 57.1405Z" fill="#F2F4D9"></path>
    <path d="M23.6026 47.2551C23.6026 42.4412 28.5907 38.5391 34.7432 38.5391C40.8949 38.5391 45.883 42.4412 45.883 47.2551C45.883 52.0681 23.6026 52.0681 23.6026 47.2551Z" fill="#1E1E1D" stroke="#F2F4D9" stroke-width="1.72509" stroke-miterlimit="10" stroke-linejoin="round"></path>
    <path d="M27.6298 31.6142C27.6298 27.819 30.7056 24.7432 34.5 24.7432C38.2952 24.7432 41.371 27.819 41.371 31.6142C41.371 35.4085 38.2952 38.4843 34.5 38.4843C30.7056 38.4843 27.6298 35.4085 27.6298 31.6142Z" fill="#1E1E1D" stroke="#F2F4D9" stroke-width="1.72509" stroke-miterlimit="10" stroke-linejoin="round"></path>
    <path d="M230.233 109.322L246.592 118.282L240.294 122.121L246.016 131.192L242.669 133.307L236.911 124.171L230.655 127.969L230.405 116.813L230.233 109.322Z" fill="#1E1E1D" stroke="#E1E3C3" stroke-width="1.72509" stroke-miterlimit="10" stroke-linejoin="round"></path>
  </g>
  <defs>
    <clipPath id="clip0_125_1535">
      <rect width="251" height="158.708" fill="white"></rect>
    </clipPath>
  </defs>
</svg>
