<?xml version="1.0" encoding="UTF-8"?>
<svg xmlns="http://www.w3.org/2000/svg" width="408" height="257" viewBox="0 0 408 257" fill="none">
  <g clip-path="url(#clip0_128_502)">
    <mask id="mask0_128_502" style="mask-type:luminance" maskUnits="userSpaceOnUse" x="-71" y="0" width="568" height="284">
      <path d="M496.638 0H-70.7092V283.899H496.638V0Z" fill="white"></path>
    </mask>
    <g mask="url(#mask0_128_502)">
      <path d="M380.141 57.789L334.764 123.093L248.762 41.3284L163.618 116.995L111.82 75.5223L0.252777 202.115L14.892 216.052L113.903 104.094L163.988 146.089L246.024 68.1962L337.395 154.233L337.609 153.879L338.173 154.312L393.586 73.5092L380.141 57.789Z" fill="#65301A" stroke="#1E1E1D" stroke-width="2.43825" stroke-miterlimit="10" stroke-linecap="round" stroke-linejoin="round"></path>
      <path d="M173.614 121.092C173.614 121.092 169.564 77.663 175.176 45.7301C178.137 28.8778 190.674 15.2845 192.912 12.8398C204.106 0.606291 243.706 -9.96269 266.593 16.2103C269.221 19.2158 271.635 22.7903 273.848 26.7947C294.657 64.4323 293.027 174.986 293.027 174.986L173.502 144.616L173.614 121.092Z" fill="#313131"></path>
      <path d="M216.004 101.42L217.208 139.789L253.055 139.464L251.221 100.109L216.004 101.42Z" fill="#FAFAE8" stroke="#1E1E1D" stroke-width="1.6255" stroke-miterlimit="10" stroke-linejoin="round"></path>
      <path d="M164.835 199.406C164.835 199.406 151.514 197.296 158.322 199.468C158.322 199.468 81.2782 208.021 68.5131 196.05C68.5131 196.05 54.542 188.623 56.3308 173.845C58.1189 159.066 70.2402 151.077 113.4 144.843C156.559 138.609 158.591 120.216 178.363 131.481C178.363 131.481 179.745 128.654 187.52 131.664C187.52 131.664 196.405 129.382 201.8 131.843C207.195 134.302 202.596 131.141 202.596 131.141C202.596 131.141 198.845 121.318 207.761 122.817C207.761 122.817 258.455 124.768 260.243 124.575C260.243 124.575 265.654 123.97 264.308 133.227C262.962 142.484 265.027 131.998 265.027 131.998C265.027 131.998 269.792 130.347 270.454 133.038C270.454 133.038 285.675 136.339 297.94 144.616C297.94 144.616 331.988 163.353 322.027 196.05C322.027 196.05 324.256 210.091 254.219 201.165C184.182 192.24 189.504 203.191 189.504 203.191L164.835 199.406Z" fill="#E36733" stroke="#1E1E1D" stroke-width="1.6255" stroke-miterlimit="10" stroke-linejoin="round"></path>
      <path d="M185.924 196.05C185.924 196.05 156.902 204.815 158.71 205.392C158.71 205.392 152.509 205.644 137.833 206.074C124.293 206.471 102.682 207.186 91.7561 204.135C81.8764 201.375 75.4605 199.673 71.5967 196.05C71.5967 196.05 55.7066 184.858 57.4947 170.08C59.2836 155.302 82.0145 154.68 125.174 148.446C168.333 142.212 158.964 149.426 178.737 160.691L189.504 203.19L185.924 196.05Z" fill="#E36733"></path>
      <path d="M177.992 72.6053C177.992 65.3256 182.223 59.2029 187.961 57.4242C188.348 57.3044 188.709 69.9009 191.402 71.3296C196.358 73.9585 204.813 66.9864 204.813 72.6053C204.813 81.2777 198.809 88.3078 191.402 88.3078C183.996 88.3078 177.992 81.2777 177.992 72.6053Z" fill="#FAFAE8" stroke="#1E1E1D" stroke-width="1.6255" stroke-miterlimit="10" stroke-linejoin="round"></path>
      <path d="M190.569 45.73C190.569 45.73 178.396 120.627 238.4 116.432C238.4 116.432 255.152 115.804 264.035 98.6139C267.109 92.6662 267.868 87.554 267.868 87.554C267.868 87.554 272.642 93.9983 281.159 89.9768C282.139 89.5136 284.708 86.5413 285.547 84.8801C287.23 81.5527 289.107 75.5587 286.586 67.8945C283.948 59.8759 276.534 59.8572 271.695 62.7156C269.3 64.1306 267.563 68.2082 267.296 68.5113C267.296 68.5113 264.884 54.0094 264.884 50.4228C264.884 50.4228 263.352 54.9823 262.891 59.5833C262.891 59.5833 259.21 63.3114 248.933 61.9183C248.933 61.9183 248.067 50.9429 248.067 48.7729C248.067 48.7729 246.101 59.2484 246.101 60.0092C246.101 60.0092 246.221 61.3461 238.838 61.9224L237.439 48.5364C237.439 48.5364 238.576 61.7574 230.108 62.1264C221.64 62.4954 216.32 62.0825 216.32 62.0825L216.419 47.4416L213.038 62.3881C213.038 62.3881 207.34 64.4988 200.791 61.62L198.843 46.815C198.843 46.815 197.708 60.4554 197.97 61.3177C197.97 61.3177 190.76 62.5701 189.504 61.247L190.569 45.73Z" fill="#FAFAE8" stroke="#1E1E1D" stroke-width="1.6255" stroke-miterlimit="10" stroke-linejoin="round"></path>
      <path d="M281.117 165.953C281.117 165.953 284.903 173.272 278.079 176.441C271.255 179.61 259.091 175.107 255.477 168.146C251.864 161.185 251.037 171.895 252.645 176.863C252.645 176.863 254.652 184.173 264.759 186.141C264.759 186.141 257.949 187.233 252.22 178.188C252.22 178.188 250.071 183.631 251.904 192.445" stroke="#1E1E1D" stroke-width="1.6255" stroke-miterlimit="10" stroke-linejoin="round"></path>
      <path d="M168.78 177.732C168.78 177.732 157.843 172.653 150.891 181.525C143.939 190.396 148.931 194.087 157.985 198.517C157.985 198.517 160.786 208.143 173.261 215.055C173.261 215.055 175.246 221.209 175.246 221.266C175.246 221.266 173.047 218.653 170.924 219.996C170.924 219.996 170.045 228.058 169.155 231.48C169.155 231.48 168.789 237.19 177.191 237.151C177.191 237.151 178.158 244.502 186.597 242.503C186.597 242.503 191.184 248.445 198.503 243.545C198.503 243.545 206.151 237.416 206.401 229.847C206.401 229.847 214.266 236.411 217.34 238.349C217.34 238.349 226.325 253.089 238.196 250.756C238.196 250.756 225.088 234.862 220.666 231.281C220.666 231.281 203.948 210.376 203.447 209.526C202.946 208.676 184.035 182.405 168.78 177.732Z" fill="#FBFCE1" stroke="#1E1E1D" stroke-width="1.6255" stroke-miterlimit="10" stroke-linejoin="round"></path>
      <path d="M208.212 80.4177C208.212 80.4177 213.03 74.9032 219.466 80.7086" stroke="#1E1E1D" stroke-width="1.6255" stroke-miterlimit="10" stroke-linecap="round" stroke-linejoin="round"></path>
      <path d="M244.813 83.1467C244.813 80.65 245.952 78.6262 247.358 78.6262C248.765 78.6262 249.904 80.65 249.904 83.1467C249.904 85.6435 248.765 87.6681 247.358 87.6681C245.952 87.6681 244.813 85.6435 244.813 83.1467Z" fill="#65301A" stroke="#1E1E1D" stroke-width="2.43825" stroke-miterlimit="10" stroke-linecap="round" stroke-linejoin="round"></path>
      <path d="M224.449 100.109C224.449 97.425 229.663 95.2493 233.587 95.2493C237.511 95.2493 240.692 97.425 240.692 100.109C240.692 102.793 237.511 104.969 233.587 104.969C229.663 104.969 224.449 102.793 224.449 100.109Z" fill="#313131" stroke="#1E1E1D" stroke-width="1.6255" stroke-miterlimit="10" stroke-linecap="round" stroke-linejoin="round"></path>
      <path d="M241.94 102.571C242.087 101.328 245.573 104.066 245.573 104.066C245.573 104.066 248.718 102.29 248.592 103.357L243.717 144.637C243.445 146.948 241.735 148.645 239.898 148.428C238.061 148.211 236.792 146.163 237.066 143.851L241.94 102.571Z" fill="#DB6332" stroke="#1E1E1D" stroke-width="3.251" stroke-miterlimit="10" stroke-linejoin="round"></path>
      <path d="M225.611 53.0325C236.906 39.6157 256.939 37.8959 270.356 49.1915C283.773 60.4863 285.494 80.5197 274.198 93.9366C262.902 107.353 242.87 109.073 229.454 97.7776C216.036 86.4837 214.315 66.4502 225.611 53.0325Z" stroke="#DB6332" stroke-width="3.251" stroke-miterlimit="10" stroke-linejoin="round"></path>
      <path d="M227.415 54.5518C237.871 42.1314 256.417 40.5392 268.837 50.9952C281.257 61.452 282.85 79.9974 272.394 92.4178C261.938 104.838 243.392 106.43 230.972 95.9736C218.551 85.5176 216.959 66.9731 227.415 54.5518Z" fill="#F2F3D9" fill-opacity="0.536464" stroke="#1E1E1D" stroke-width="3.251" stroke-miterlimit="10" stroke-linejoin="round"></path>
      <mask id="mask1_128_502" style="mask-type:luminance" maskUnits="userSpaceOnUse" x="220" y="44" width="60" height="59">
        <path d="M227.415 54.5518C237.871 42.1314 256.417 40.5392 268.837 50.9952C281.257 61.452 282.85 79.9974 272.394 92.4178C261.938 104.838 243.392 106.43 230.972 95.9736C218.551 85.5176 216.959 66.9731 227.415 54.5518Z" fill="white"></path>
      </mask>
      <g mask="url(#mask1_128_502)">
        <path d="M189.735 44.6711C189.735 44.6711 176.805 124.225 240.542 119.769C240.542 119.769 258.335 119.102 267.77 100.843C271.036 94.5252 271.841 89.096 271.841 89.096C271.841 89.096 276.913 95.9402 285.958 91.6692C287 91.1774 289.728 88.0199 290.62 86.2555C292.407 82.7216 294.401 76.3545 291.722 68.2141C288.92 59.6964 281.045 59.6769 275.906 62.7134C273.363 64.2161 271.518 68.5473 271.234 68.8691C271.234 68.8691 268.672 53.4651 268.672 49.6557C268.672 49.6557 267.044 54.4989 266.555 59.386C266.555 59.386 262.645 63.3457 251.729 61.8657C251.729 61.8657 250.809 50.2084 250.809 47.9034C250.809 47.9034 248.721 59.03 248.721 59.8387C248.721 59.8387 248.849 61.2585 241.007 61.8705L239.52 47.6523C239.52 47.6523 240.727 61.6958 231.733 62.0867C222.739 62.4785 217.089 62.0404 217.089 62.0404L217.193 46.4893L213.602 62.3655C213.602 62.3655 207.549 64.6071 200.594 61.5487L198.525 45.8236C198.525 45.8236 197.318 60.3117 197.597 61.2277C197.597 61.2277 189.939 62.5581 188.605 61.1529L189.735 44.6711Z" fill="#FAFAE8" stroke="#1E1E1D" stroke-width="1.6255" stroke-miterlimit="10" stroke-linejoin="round"></path>
        <path d="M247.353 82.8642C247.353 79.3547 249.188 79.3799 251.164 79.3799C253.14 79.3799 254.507 79.3547 254.507 82.8642C254.507 86.3728 252.906 89.2166 250.93 89.2166C248.955 89.2166 247.353 86.3728 247.353 82.8642Z" fill="#65301A" stroke="#1E1E1D" stroke-width="2.43825" stroke-miterlimit="10" stroke-linecap="round" stroke-linejoin="round"></path>
        <path d="M243.847 74.8635C243.847 74.8635 250.112 67.6918 258.481 75.2414" stroke="#1E1E1D" stroke-width="1.6255" stroke-miterlimit="10" stroke-linecap="round" stroke-linejoin="round"></path>
      </g>
      <path d="M227.415 54.5518C237.871 42.1314 256.417 40.5392 268.837 50.9952C281.257 61.452 282.85 79.9974 272.394 92.4178C261.938 104.838 243.392 106.43 230.972 95.9736C218.551 85.5176 216.959 66.9731 227.415 54.5518Z" fill="#F2F3D9" fill-opacity="0.536464" stroke="#1E1E1D" stroke-width="3.251" stroke-miterlimit="10" stroke-linejoin="round"></path>
      <path d="M224.449 121.234C224.449 121.234 235.574 112.12 237.323 111.868C239.071 111.616 256.06 119.761 257.059 120.886C258.058 122.011 268.295 132.6 274.437 145.265C280.579 157.931 280.731 168.136 281.627 171.548C282.523 174.961 265.588 186.868 251.755 161.791L249.66 156.565L249.151 155.292C249.151 155.292 245.297 151.139 244.989 150.645C244.989 150.645 241.449 151.808 240.479 151.432C240.479 151.432 247.362 156.218 244.721 160.228C244.721 160.228 234.186 157.17 233.657 156.843C233.127 156.517 229.86 151.753 231.549 149.369C231.549 149.369 227.837 144.463 230.895 141.108C230.895 141.108 225.559 138.02 228.524 133.791L234.321 128.534C234.321 128.534 245.579 125.47 248.084 125.47C248.084 125.47 240.519 121.838 239.357 120.391C239.357 120.391 226.901 125.006 224.449 121.234Z" fill="#FAFAE8" stroke="#1E1E1D" stroke-width="1.6255" stroke-miterlimit="10" stroke-linejoin="round"></path>
      <path d="M231.255 140.68C231.255 140.68 237.641 131.841 249.32 133.556" stroke="#1E1E1D" stroke-width="1.6255" stroke-miterlimit="10" stroke-linecap="round" stroke-linejoin="round"></path>
      <path d="M279.859 160.7C279.859 160.7 287.418 160.231 290.291 166.156C290.291 166.156 294.756 174.075 292.278 179.469" stroke="#1E1E1D" stroke-width="1.6255" stroke-miterlimit="10" stroke-linejoin="round"></path>
      <path d="M180.108 184.244L177.246 179.996L173.312 174.987C173.312 174.987 167.344 167.762 154.207 167.059C135.325 166.05 125.202 183.255 128.479 194.08C128.479 194.08 131.4 212.983 161.211 204.293" stroke="#1E1E1D" stroke-width="1.6255" stroke-miterlimit="10" stroke-linejoin="round"></path>
      <path d="M137.833 205.392C137.833 205.392 84.5657 209.832 71.3943 196.05C71.3943 196.05 55.5181 190.275 57.6321 174.296C57.6321 174.296 56.5674 163.937 67.3777 157.709" stroke="#1E1E1D" stroke-width="1.6255" stroke-miterlimit="10" stroke-linejoin="round"></path>
      <path d="M125.193 156.764C125.193 156.764 130.956 159.435 146.167 161.571C161.379 163.706 170.8 170.933 172.392 173.549C173.984 176.165 173.026 174.411 173.026 174.411" stroke="#1E1E1D" stroke-width="1.6255" stroke-miterlimit="10" stroke-linejoin="round"></path>
      <path d="M407.805 36.052L399.764 98.1095L351.647 64.512L407.805 36.052Z" fill="#65301A" stroke="#1E1E1D" stroke-width="2.43825" stroke-miterlimit="10" stroke-linecap="round" stroke-linejoin="round"></path>
      <path d="M175.414 237.415C175.414 237.415 182.875 237.415 186.531 228.657" stroke="#1E1E1D" stroke-width="1.6255" stroke-miterlimit="10" stroke-linecap="round" stroke-linejoin="round"></path>
      <path d="M184.946 243.282C184.946 243.282 193.804 240.593 194.677 234.013" stroke="#1E1E1D" stroke-width="1.6255" stroke-miterlimit="10" stroke-linecap="round" stroke-linejoin="round"></path>
      <path d="M175.414 221.781L175.677 224.076" stroke="#1E1E1D" stroke-width="1.6255" stroke-miterlimit="10" stroke-linecap="round" stroke-linejoin="round"></path>
      <path d="M231.394 149.213C231.394 149.213 239.508 136.241 253.455 143.392" stroke="#1E1E1D" stroke-width="1.6255" stroke-miterlimit="10" stroke-linecap="round" stroke-linejoin="round"></path>
    </g>
  </g>
  <defs>
    <clipPath id="clip0_128_502">
      <rect width="408" height="256.016" fill="white"></rect>
    </clipPath>
  </defs>
</svg>
