<?xml version="1.0" encoding="UTF-8"?>
<svg xmlns="http://www.w3.org/2000/svg" width="275" height="181" viewBox="0 0 275 181" fill="none">
  <g clip-path="url(#clip0_18_284)">
    <path d="M26.0187 10.5957H254.868L252.613 169.26C252.613 169.26 276.135 168.941 219.486 169.709C162.838 170.477 26.0187 172.332 26.0187 172.332V10.5957Z" fill="#2B2B2B"></path>
    <path d="M21.385 170.534L20.3852 12.3556C20.3852 12.3556 18.8581 3.24324 30.4259 1.40425C41.9945 -0.434738 246.81 1.68033 246.81 1.68033C246.81 1.68033 255.843 1.76196 256.21 12.4574C256.577 23.1529 256.302 166.266 256.302 166.266H247.065L247.421 11.4467L29.3766 10.6698L29.2271 170.26L21.385 170.534Z" stroke="#F2F3D9" stroke-width="1.8344" stroke-miterlimit="10" stroke-linejoin="round"></path>
    <path d="M1.24966 165.829L274.042 165.381C274.042 165.381 276.349 178.952 266.562 180.654L7.06287 180.953C7.06287 180.953 -1.44966 176.41 1.24966 165.829Z" fill="#F2F3D9"></path>
    <g opacity="0.340239">
      <path d="M50.5923 148.277C48.0388 148.277 45.9641 150.353 45.9641 152.906V164.997H88.0628V152.906C88.0628 150.353 86.0193 148.277 83.4658 148.277H50.5923ZM97.509 148.277C94.9546 148.277 92.912 150.353 92.912 152.906V164.997H135.011V152.906C135.011 150.353 132.936 148.277 130.382 148.277H97.509ZM144.488 148.277C141.935 148.277 139.86 150.353 139.86 152.906V164.997H181.959V152.906C181.959 150.353 179.884 148.277 177.33 148.277H144.488ZM191.216 148.277C188.662 148.277 186.619 150.353 186.619 152.906V164.997H228.718V152.906C228.718 150.353 226.643 148.277 224.089 148.277H191.216Z" fill="#A3512F"></path>
      <path d="M45.9586 105.615C45.9586 103.314 47.8233 101.45 50.1246 101.45H224.558C226.858 101.45 228.723 103.314 228.723 105.615V134.749C228.723 137.049 226.858 138.915 224.558 138.915H50.1246C47.8233 138.915 45.9586 137.049 45.9586 134.749V105.615Z" fill="#A3512F"></path>
      <path opacity="0.176615" d="M46.143 43.7212C46.143 41.1962 48.1893 39.1499 50.7143 39.1499H104.236C106.761 39.1499 108.808 41.1962 108.808 43.7212V86.5115C108.808 89.0365 106.761 91.0828 104.236 91.0828H50.7143C48.1893 91.0828 46.143 89.0365 46.143 86.5115V43.7212Z" fill="#F2F4D9"></path>
      <path opacity="0.68604" d="M115.945 43.3966C115.945 41.0513 117.846 39.1499 120.191 39.1499H224.795C227.14 39.1499 229.041 41.0513 229.041 43.3966C229.041 45.7418 227.14 47.6432 224.795 47.6432H120.191C117.846 47.6432 115.945 45.7418 115.945 43.3966Z" fill="#DB6332"></path>
      <path opacity="0.68604" d="M46.143 24.5977C46.143 22.2524 48.0444 20.3511 50.3897 20.3511H76.4841C78.8293 20.3511 80.7307 22.2524 80.7307 24.5977V25.2911C80.7307 27.6364 78.8293 29.5378 76.4841 29.5378H50.3897C48.0444 29.5378 46.143 27.6364 46.143 25.2911V24.5977Z" fill="#DB6332"></path>
      <path opacity="0.68604" d="M91.5133 24.524C91.5133 22.1787 93.4147 20.2773 95.76 20.2773H121.855C124.201 20.2773 126.102 22.1787 126.102 24.524V25.2174C126.102 27.5627 124.201 29.464 121.855 29.464H95.76C93.4147 29.464 91.5133 27.5627 91.5133 25.2174V24.524Z" fill="#50514C"></path>
      <path opacity="0.68604" d="M129.425 24.5977C129.425 22.2524 131.326 20.3511 133.672 20.3511H159.767C162.112 20.3511 164.013 22.2524 164.013 24.5977V25.2911C164.013 27.6364 162.112 29.5378 159.767 29.5378H133.672C131.326 29.5378 129.425 27.6364 129.425 25.2911V24.5977Z" fill="#50514C"></path>
      <path d="M194.197 24.5977C194.197 22.2524 196.098 20.3511 198.443 20.3511H224.539C226.884 20.3511 228.785 22.2524 228.785 24.5977V25.2911C228.785 27.6364 226.884 29.5378 224.539 29.5378H198.443C196.098 29.5378 194.197 27.6364 194.197 25.2911V24.5977Z" fill="#A3512F"></path>
      <path opacity="0.176615" d="M115.69 57.503C115.69 55.1577 117.59 53.2563 119.936 53.2563H224.539C226.884 53.2563 228.785 55.1577 228.785 57.503C228.785 59.8483 226.884 61.7496 224.539 61.7496H119.936C117.59 61.7496 115.69 59.8483 115.69 57.503Z" fill="#F2F4D9"></path>
      <path opacity="0.176615" d="M115.945 85.8336C115.945 83.4883 117.846 81.5869 120.191 81.5869H224.795C227.14 81.5869 229.041 83.4883 229.041 85.8336C229.041 88.1788 227.14 90.0802 224.795 90.0802H120.191C117.846 90.0802 115.945 88.1788 115.945 85.8336Z" fill="#F2F4D9"></path>
      <path opacity="0.68604" d="M115.945 71.4874C115.945 69.1421 117.846 67.2407 120.191 67.2407H224.795C227.14 67.2407 229.041 69.1421 229.041 71.4874C229.041 73.8327 227.14 75.734 224.795 75.734H120.191C117.846 75.734 115.945 73.8327 115.945 71.4874Z" fill="#DB6332"></path>
    </g>
    <path d="M209.936 54.5479L179.647 67.2639L187.088 73.2964L160.323 105.476L121.051 77.1064L65.064 130.727L119.236 88.4981L164.381 118.934L195.265 79.9351L203.408 86.5683L209.936 54.5479Z" fill="#DB6332" stroke="#2B2B2B" stroke-width="1.8344" stroke-miterlimit="10" stroke-linecap="round" stroke-linejoin="round"></path>
  </g>
  <defs>
    <clipPath id="clip0_18_284">
      <rect width="273.326" height="180.689" fill="white" transform="translate(0.836914)"></rect>
    </clipPath>
  </defs>
</svg>
