<?xml version="1.0" encoding="UTF-8"?>
<svg xmlns="http://www.w3.org/2000/svg" width="18" height="18" viewBox="0 0 18 18" fill="none">
  <path d="M9.92521 0C10.9377 0.00269986 11.4515 0.00809959 11.8952 0.0206989L12.0698 0.0269986C12.2714 0.0341982 12.4703 0.0431977 12.7106 0.0539972C13.6681 0.0989949 14.3215 0.250187 14.8948 0.472476C15.4887 0.701064 15.9891 1.01065 16.4895 1.51012C16.9471 1.96001 17.3012 2.5042 17.5271 3.10484C17.7494 3.67811 17.9006 4.33148 17.9456 5.28993C17.9564 5.52932 17.9654 5.72821 17.9726 5.9307L17.978 6.10529C17.9915 6.54807 17.9969 7.06194 17.9987 8.07439L17.9996 8.74575V9.92469C18.0018 10.5811 17.9949 11.2376 17.9789 11.8938L17.9735 12.0684C17.9663 12.2709 17.9573 12.4698 17.9465 12.7091C17.9015 13.6676 17.7485 14.3201 17.5271 14.8942C17.3018 15.4952 16.9477 16.0395 16.4895 16.489C16.0395 16.9464 15.4953 17.3005 14.8948 17.5266C14.3215 17.7489 13.6681 17.9001 12.7106 17.9451C12.497 17.9551 12.2834 17.9641 12.0698 17.9721L11.8952 17.9775C11.4515 17.9901 10.9377 17.9964 9.92521 17.9982L9.25385 17.9991H8.07581C7.41907 18.0013 6.76234 17.9944 6.10581 17.9784L5.93122 17.973C5.71758 17.9649 5.50398 17.9556 5.29045 17.9451C4.3329 17.9001 3.67953 17.7489 3.10536 17.5266C2.50479 17.3011 1.96081 16.9469 1.51154 16.489C1.05351 16.0392 0.699085 15.495 0.472995 14.8942C0.250707 14.321 0.0995141 13.6676 0.0545165 12.7091C0.0444899 12.4956 0.0354903 12.282 0.0275179 12.0684L0.0230182 11.8938C0.0064339 11.2376 -0.00106652 10.5811 0.000519274 9.92469V8.07439C-0.00199247 7.41796 0.0046079 6.76153 0.0203183 6.10529L0.026618 5.9307C0.0338176 5.72821 0.0428171 5.52932 0.0536166 5.28993C0.0986143 4.33148 0.249806 3.67901 0.472095 3.10484C0.698086 2.50359 1.05321 1.95922 1.51244 1.51012C1.9616 1.05247 2.50522 0.698353 3.10536 0.472476C3.67953 0.250187 4.332 0.0989949 5.29045 0.0539972C5.52984 0.0431977 5.72963 0.0341982 5.93122 0.0269986L6.10581 0.0215988C6.76205 0.00560915 7.41848 -0.00129116 8.07491 0.000899889L9.92521 0ZM9.00006 4.49977C7.80665 4.49977 6.66211 4.97385 5.81824 5.81772C4.97437 6.66159 4.50029 7.80613 4.50029 8.99954C4.50029 10.193 4.97437 11.3375 5.81824 12.1814C6.66211 13.0252 7.80665 13.4993 9.00006 13.4993C10.1935 13.4993 11.338 13.0252 12.1819 12.1814C13.0257 11.3375 13.4998 10.193 13.4998 8.99954C13.4998 7.80613 13.0257 6.66159 12.1819 5.81772C11.338 4.97385 10.1935 4.49977 9.00006 4.49977ZM9.00006 6.29968C9.35461 6.29962 9.7057 6.36939 10.0333 6.50502C10.3609 6.64065 10.6585 6.83947 10.9093 7.09013C11.16 7.34079 11.3589 7.63839 11.4947 7.96593C11.6304 8.29347 11.7003 8.64454 11.7004 8.99909C11.7004 9.35364 11.6307 9.70473 11.495 10.0323C11.3594 10.3599 11.1606 10.6576 10.9099 10.9083C10.6593 11.1591 10.3617 11.358 10.0341 11.4937C9.70658 11.6294 9.35551 11.6993 9.00096 11.6994C8.28491 11.6994 7.59819 11.415 7.09187 10.9086C6.58555 10.4023 6.3011 9.71559 6.3011 8.99954C6.3011 8.28349 6.58555 7.59677 7.09187 7.09045C7.59819 6.58413 8.28491 6.29968 9.00096 6.29968M13.7257 3.14984C13.4274 3.14984 13.1412 3.26836 12.9303 3.47933C12.7193 3.69029 12.6008 3.97643 12.6008 4.27478C12.6008 4.57313 12.7193 4.85927 12.9303 5.07024C13.1412 5.2812 13.4274 5.39972 13.7257 5.39972C14.0241 5.39972 14.3102 5.2812 14.5212 5.07024C14.7321 4.85927 14.8507 4.57313 14.8507 4.27478C14.8507 3.97643 14.7321 3.69029 14.5212 3.47933C14.3102 3.26836 14.0241 3.14984 13.7257 3.14984Z" fill="#F2F3D9"></path>
</svg>
