<?xml version="1.0" encoding="UTF-8"?>
<svg xmlns="http://www.w3.org/2000/svg" width="519" height="471" viewBox="0 0 519 471" fill="none">
  <g clip-path="url(#clip0_5_117)">
    <mask id="mask0_5_117" style="mask-type:luminance" maskUnits="userSpaceOnUse" x="-71" y="-135" width="659" height="657">
      <path d="M587.137 -134.571H-70.3115V521.645H587.137V-134.571Z" fill="white"></path>
    </mask>
    <g mask="url(#mask0_5_117)">
      <path d="M253.022 360.809C253.022 360.809 263.276 363.333 256.495 349.876C249.717 336.419 240.87 325.697 236.954 324.187C233.035 322.68 246.344 316.908 258.713 328.232C258.713 328.232 267.306 336.699 279.052 361.163C290.801 385.627 305.199 366.903 308.228 367.382C308.228 367.382 279.55 412.026 253.022 360.809Z" fill="#883513" stroke="#2F1003" stroke-width="2.89562" stroke-miterlimit="10" stroke-linejoin="round"></path>
      <path d="M154.255 316.908C154.255 316.908 139.153 320.661 145.109 322.849C151.067 325.038 223.057 375.02 252.791 408.144C252.791 408.144 208.479 323.851 154.255 316.908Z" fill="#883513" stroke="#2F1003" stroke-width="2.89562" stroke-miterlimit="10" stroke-linejoin="round"></path>
      <path d="M361.592 321.897C361.592 321.897 334.473 314.674 324.604 334.698C314.734 354.721 298.822 390.122 273.315 375.895C247.808 361.67 198.775 302.694 154.003 316.79C154.003 316.79 183.731 331.756 201.857 350.734C219.98 369.711 290.978 452.979 306.174 469.662C321.368 486.345 357.402 529.752 361.163 531.027L458.187 529.819C458.187 529.819 371.373 451.185 359.092 442.064C346.811 432.944 340.467 427.347 340.541 414.502C340.616 401.658 340.339 398.878 338.286 388.116C336.233 377.354 335.685 364.304 343.922 346.403C352.16 328.503 361.332 326.637 362.088 323.188C362.088 323.188 362.673 322.201 361.592 321.897Z" fill="url(#paint0_linear_5_117)" stroke="url(#paint1_linear_5_117)" stroke-width="2.89562" stroke-miterlimit="10" stroke-linejoin="round"></path>
    </g>
    <path d="M88.7888 19.038C85.1032 19.9055 74.1954 24.8997 71.0888 26.794C70.0388 27.4342 76.0878 33.2289 75.1165 33.9704C70.4581 37.5273 66.7562 42.2118 64.3499 47.5514C63.8945 48.562 56.4818 42.6016 56.1224 43.6568C54.7691 47.6295 51.6195 60.2486 51.7909 64.6476C51.8255 65.5372 61.3905 65.07 61.4937 65.9688C62.1383 71.5742 64.0624 76.7157 66.9514 81.1425C67.4575 81.9182 58.9284 86.7683 59.4918 87.4988C62.2231 91.0402 71.4554 99.5929 75.2866 101.87C76.1645 102.393 80.279 93.2233 81.2019 93.6673C87.0098 96.4693 93.6682 97.7139 100.551 96.9243C101.503 96.8171 102.383 104.075 103.308 103.893C107.625 103.047 117.986 99.4332 121.542 97.2087C122.257 96.7603 116.648 90.874 117.327 90.3775C123.151 86.1252 126.784 81.9149 129.127 75.0664C129.373 74.348 137.383 77.7337 137.583 76.9972C138.581 73.3073 140.407 63.4411 140.126 59.436C140.089 58.9103 131.612 58.4718 131.551 57.9431C130.912 52.3803 129.013 47.2647 126.161 42.8608C125.86 42.3964 133.367 37.4993 133.046 37.0509C129.749 32.4526 121.071 25.1115 116.046 22.5489C115.057 22.0445 110.539 29.6356 109.502 29.2251C104.277 27.1573 98.482 26.3007 92.5084 26.985C91.1061 27.1457 90.1296 18.7223 88.7888 19.038ZM95.5228 43.7115C105.249 42.5972 114.036 49.5621 115.153 59.2701C116.269 68.978 109.293 77.763 99.5666 78.877C89.8403 79.9913 81.0515 73.0126 79.9352 63.3046C78.8188 53.5967 85.7968 44.8257 95.5228 43.7115Z" fill="#DB6332" stroke="#DB6332" stroke-width="2.89562" stroke-miterlimit="10" stroke-linejoin="round"></path>
    <path d="M92.284 21.037C88.6801 21.8855 78.0141 26.7688 74.9764 28.6211C73.9497 29.2471 79.8646 34.9134 78.915 35.6385C74.3595 39.1164 70.7398 43.6972 68.3868 48.9185C67.9417 49.9066 60.6934 44.0783 60.3418 45.1101C59.0186 48.9947 55.9389 61.3342 56.1064 65.6357C56.1403 66.5054 65.4932 66.0484 65.5942 66.9275C66.2245 72.4087 68.1059 77.4362 70.9307 81.7648C71.4256 82.5232 63.0858 87.267 63.6365 87.98C66.3073 91.4427 75.3347 99.8073 79.0811 102.034C79.9397 102.544 83.9629 93.5776 84.8653 94.0129C90.5444 96.7515 97.0553 97.9677 103.785 97.1977C104.717 97.0905 105.577 104.189 106.481 104.011C110.702 103.182 120.834 99.6498 124.311 97.4733C125.01 97.0358 119.526 91.2808 120.189 90.7952C125.884 86.637 129.437 82.5201 131.728 75.8232C131.969 75.1211 139.801 78.4317 139.996 77.7114C140.973 74.1033 142.758 64.4558 142.483 60.5395C142.447 60.0254 134.158 59.5967 134.099 59.0796C133.473 53.6402 131.617 48.6381 128.828 44.3318C128.533 43.8777 135.874 39.0891 135.56 38.6507C132.336 34.1543 123.851 26.976 118.937 24.4703C117.969 23.9768 113.552 31.3997 112.537 30.9984C107.429 28.9763 101.762 28.1388 95.9212 28.8081C94.55 28.9652 93.5951 20.7286 92.284 21.037ZM98.8688 45.1637C108.379 44.0741 116.972 50.8846 118.063 60.3772C119.155 69.87 112.333 78.4601 102.823 79.5496C93.3122 80.6392 84.7183 73.8152 83.6267 64.3224C82.5351 54.8295 89.3583 46.2532 98.8688 45.1637Z" fill="#1E1E1D" stroke="#DB6332" stroke-width="2.89562" stroke-miterlimit="10" stroke-linejoin="round"></path>
    <path d="M33.2264 64.2804C31.1138 63.7626 24.2257 63.4717 22.1403 63.6303C21.4353 63.6839 23.0123 68.2264 22.3215 68.3524C19.0067 68.9566 15.886 70.3873 13.2566 72.4912C12.7589 72.8893 10.5278 67.9062 10.0676 68.3522C8.33497 70.0314 3.41878 75.6655 2.35438 77.9605C2.13917 78.4247 7.15485 80.6812 6.9723 81.1681C5.83404 84.2046 5.472 87.337 5.79042 90.3556C5.84631 90.8827 0.212629 91.1408 0.309493 91.6593C0.779788 94.1835 3.26253 100.969 4.6263 103.134C4.93881 103.629 9.44496 100.013 9.80064 100.481C12.0379 103.43 15.1185 105.803 18.846 107.194C19.3621 107.389 17.9109 111.33 18.4316 111.479C20.862 112.173 27.1093 113.026 29.5105 112.816C29.9939 112.774 28.6661 108.299 29.143 108.222C33.2365 107.566 36.1978 106.361 39.1899 103.469C39.5037 103.165 42.7149 106.986 43.0099 106.663C44.487 105.035 48.005 100.464 48.91 98.3417C49.0288 98.0639 44.8069 95.6272 44.9143 95.3406C46.044 92.3286 46.4126 89.2159 46.1067 86.2192C46.0743 85.902 51.1973 85.3552 51.1502 85.0424C50.6681 81.83 48.1511 75.8103 46.2511 73.1881C45.8772 72.6719 41.578 75.3768 41.1548 74.896C39.0238 72.4752 36.2833 70.5249 33.048 69.3164C32.2887 69.0329 33.995 64.4687 33.2264 64.2804ZM30.2098 78.66C35.4773 80.6276 38.1489 86.4839 36.1775 91.7402C34.2062 96.9987 28.3367 99.6717 23.0693 97.7052C17.8016 95.7365 15.133 89.8743 17.1042 84.6159C19.0755 79.3589 24.9423 76.6923 30.2098 78.66Z" fill="#FFFFEC" stroke="#FFFFEC" stroke-width="2.89562" stroke-miterlimit="10" stroke-linejoin="round"></path>
    <path d="M35.3233 64.7878C33.2105 64.2701 26.3224 63.9791 24.2372 64.1375C23.5322 64.1911 25.1092 68.7339 24.4182 68.8597C21.1036 69.464 17.9829 70.8946 15.3535 72.9986C14.8558 73.3967 12.6247 68.4134 12.1645 68.8594C10.4316 70.5387 5.51568 76.1727 4.45127 78.468C4.23606 78.9321 9.25174 81.1886 9.06919 81.6753C7.93093 84.7121 7.56867 87.8444 7.88732 90.8608C7.9432 91.3902 2.30952 91.6461 2.40639 92.1667C2.87646 94.6909 5.35942 101.476 6.72319 103.64C7.0357 104.136 11.5419 100.52 11.8973 100.988C14.1348 103.937 17.2154 106.31 20.9429 107.702C21.4588 107.894 20.0078 111.838 20.5283 111.987C22.9587 112.68 29.206 113.533 31.6074 113.323C32.0908 113.282 30.763 108.806 31.2399 108.73C35.3332 108.073 38.2945 106.868 41.2868 103.976C41.6006 103.672 44.8118 107.494 45.1066 107.17C46.5839 105.543 50.1019 100.971 51.0069 98.8492C51.1257 98.5714 46.9038 96.1346 47.0112 95.8481C48.1407 92.8361 48.5093 89.7234 48.2034 86.7267C48.1712 86.4095 53.2942 85.8627 53.2471 85.5499C52.7647 82.3372 50.2478 76.3176 48.348 73.6953C47.9739 73.1793 43.6749 75.884 43.2517 75.4032C41.1207 72.9824 38.3802 71.0324 35.1449 69.8239C34.3856 69.5402 36.0919 64.9762 35.3233 64.7878ZM32.3067 79.1673C37.5742 81.1348 40.2456 86.9913 38.2744 92.2476C36.3031 97.5061 30.4336 100.179 25.1659 98.2126C19.8985 96.244 17.2299 90.3818 19.2011 85.1233C21.1724 79.8662 27.039 77.1997 32.3067 79.1673Z" fill="#1E1E1D" stroke="#FFFFEC" stroke-width="1.44781" stroke-miterlimit="10" stroke-linejoin="round"></path>
    <path d="M425.994 22.16C403.638 9.80428 375.484 17.8757 363.105 40.1889C350.727 62.502 358.809 90.6092 381.165 102.966C403.52 115.32 431.683 107.247 444.063 84.933C456.44 62.6205 448.349 34.5156 425.994 22.16ZM416.036 40.1084C428.462 46.9755 432.961 62.5934 426.079 74.995C419.2 87.396 403.546 91.8845 391.121 85.0161C378.697 78.1499 374.207 62.5291 381.088 50.1275C387.967 37.7259 403.612 33.2411 416.036 40.1084Z" fill="#1E1E1D" stroke="#FBFCE1" stroke-width="2.89562" stroke-miterlimit="10" stroke-linecap="round" stroke-linejoin="round"></path>
    <path d="M420.717 31.6742C403.625 22.228 382.101 28.3986 372.636 45.4576C363.173 62.5166 369.353 84.0057 386.444 93.4528C403.533 102.898 425.067 96.7252 434.53 79.6664C443.995 62.6074 437.806 41.1205 420.717 31.6742ZM413.104 45.3961C422.604 50.6463 426.042 62.5866 420.783 72.0681C415.523 81.5493 403.555 84.9811 394.055 79.73C384.557 74.4799 381.123 62.5374 386.385 53.0559C391.645 43.5747 403.604 40.146 413.104 45.3961Z" fill="#DB6332" stroke="#FBFCE1" stroke-width="2.89562" stroke-miterlimit="10" stroke-linecap="round" stroke-linejoin="round"></path>
    <path d="M438.88 64.2856L423.244 62.5385C423.253 65.768 422.459 69.0403 420.781 72.0661C415.521 81.5476 403.555 84.9789 394.055 79.7277C389.021 76.9449 385.71 72.2783 384.474 67.0981L369.822 73.0213C372.43 81.4124 378.134 88.8593 386.442 93.4529C403.533 102.898 425.067 96.7252 434.532 79.666C437.245 74.7737 438.628 69.5178 438.88 64.2856Z" fill="#FBFCE1" stroke="#FBFCE1" stroke-width="2.89562" stroke-miterlimit="10" stroke-linecap="round" stroke-linejoin="round"></path>
    <path d="M91.0287 85.377C91.0287 75.5675 98.9956 67.6154 108.824 67.6154H408.002C417.829 67.6154 425.797 75.5675 425.797 85.377V282.874C425.797 292.685 417.829 300.636 408.002 300.636H108.824C98.9956 300.636 91.0287 292.685 91.0287 282.874V85.377Z" fill="#1E1E1D" stroke="#FBFCE1" stroke-width="2.89562" stroke-miterlimit="10" stroke-linejoin="round"></path>
    <path d="M102.987 89.7453C102.987 84.3862 107.338 80.0444 112.705 80.0444H404.121C409.488 80.0444 413.838 84.3862 413.838 89.7453V280.094C413.838 285.453 409.488 289.795 404.121 289.795H112.705C107.338 289.795 102.987 285.453 102.987 280.094V89.7453Z" fill="#FBFCE1" fill-opacity="0.06" stroke="#FBFCE1" stroke-width="2.89562" stroke-miterlimit="10" stroke-linejoin="round"></path>
    <mask id="mask1_5_117" style="mask-type:alpha" maskUnits="userSpaceOnUse" x="101" y="78" width="315" height="214">
      <path d="M102.987 89.7453C102.987 84.3862 107.338 80.0444 112.705 80.0444H404.121C409.488 80.0444 413.838 84.3862 413.838 89.7453V280.094C413.838 285.453 409.488 289.795 404.121 289.795H112.705C107.338 289.795 102.987 285.453 102.987 280.094V89.7453Z" fill="#FBFCE1" fill-opacity="0.88" stroke="#FBFCE1" stroke-width="2.89562" stroke-miterlimit="10" stroke-linejoin="round"></path>
    </mask>
    <g mask="url(#mask1_5_117)">
      <g opacity="0.137582">
        <path d="M397.715 12.4066L428.852 60.5219L70.3658 291.646L39.2286 243.53L397.715 12.4066Z" fill="#FBFCE1" fill-opacity="0.48"></path>
        <path d="M442.961 70.1646L457.131 92.0617L101.448 321.377L87.2773 299.481L442.961 70.1646Z" fill="#FBFCE1" fill-opacity="0.48"></path>
      </g>
    </g>
    <path d="M67.6969 300.24L449.548 299.977C449.548 299.977 452.759 318.94 439.058 321.307L75.8132 321.377C75.8132 321.377 63.9035 315.018 67.6969 300.24Z" fill="#FBFCE1" stroke="#FBFCE1" stroke-width="2.89562" stroke-miterlimit="10" stroke-linejoin="round"></path>
    <path d="M60.1381 127.077V228.168" stroke="#1E1E1D" stroke-width="7.72166" stroke-miterlimit="10" stroke-linejoin="round"></path>
    <path d="M82.4292 305.63H83.5822V312.546H82.4292V305.63Z" fill="#1E1E1D" stroke="#1E1E1D" stroke-width="0.723906" stroke-miterlimit="10" stroke-linejoin="round"></path>
    <path d="M86.0654 305.647H87.2184V312.564H86.0654V305.647Z" fill="#1E1E1D" stroke="#1E1E1D" stroke-width="0.723906" stroke-miterlimit="10" stroke-linejoin="round"></path>
    <path d="M89.6068 305.63H90.7599V312.546H89.6068V305.63Z" fill="#1E1E1D" stroke="#1E1E1D" stroke-width="0.723906" stroke-miterlimit="10" stroke-linejoin="round"></path>
    <path d="M92.9606 305.63H94.1136V312.546H92.9606V305.63Z" fill="#1E1E1D" stroke="#1E1E1D" stroke-width="0.723906" stroke-miterlimit="10" stroke-linejoin="round"></path>
    <path d="M96.2245 305.63H97.3777V312.546H96.2245V305.63Z" fill="#1E1E1D" stroke="#1E1E1D" stroke-width="0.723906" stroke-miterlimit="10" stroke-linejoin="round"></path>
    <path d="M358.717 143.769C358.717 135.018 365.827 127.922 374.595 127.922H455.796C464.564 127.922 471.674 135.018 471.674 143.769V186.393C471.674 195.145 464.564 202.241 455.796 202.241H374.595C365.827 202.241 358.717 195.145 358.717 186.393V143.769Z" fill="#FBFCE1" stroke="#DB6332" stroke-width="2.89562" stroke-miterlimit="10" stroke-linejoin="round"></path>
    <path d="M322.987 230.408C322.987 222.275 329.595 215.68 337.745 215.68H503.886C512.037 215.68 518.644 222.275 518.644 230.408C518.644 238.542 512.037 245.137 503.886 245.137H337.745C329.595 245.137 322.987 238.542 322.987 230.408Z" fill="#FBFCE1" stroke="#1E1E1D" stroke-width="2.89562" stroke-miterlimit="10" stroke-linejoin="round"></path>
    <path d="M327.443 230.442C327.443 224.613 331.843 219.891 337.272 219.891H504.187C509.615 219.891 514.018 224.613 514.018 230.442C514.018 236.27 509.615 240.992 504.187 240.992H337.272C331.843 240.992 327.443 236.27 327.443 230.442Z" fill="#1E1E1D"></path>
    <path d="M489.098 222.069H503.485C508.101 222.069 511.839 225.803 511.839 230.408C511.839 235.014 508.101 238.748 503.485 238.748H489.098V222.069Z" fill="#FBFCE1"></path>
    <path d="M457.946 152.985L433.553 175.76L412.569 159.503L395.394 171.324L381.73 167.971L372.445 176.705" stroke="#1E1E1D" stroke-width="2.89562" stroke-miterlimit="10" stroke-linecap="round" stroke-linejoin="round"></path>
    <path d="M378.802 167.49C378.802 165.76 380.207 164.358 381.938 164.358C383.672 164.358 385.077 165.76 385.077 167.49C385.077 169.218 383.672 170.62 381.938 170.62C380.207 170.62 378.802 169.218 378.802 167.49Z" fill="#DB6332" stroke="#FBFCE1" stroke-width="1.44781" stroke-miterlimit="10" stroke-linejoin="round"></path>
    <path d="M391.557 170.325C391.557 168.595 392.962 167.193 394.693 167.193C396.426 167.193 397.831 168.595 397.831 170.325C397.831 172.053 396.426 173.455 394.693 173.455C392.962 173.455 391.557 172.053 391.557 170.325Z" fill="#DB6332" stroke="#FBFCE1" stroke-width="1.44781" stroke-miterlimit="10" stroke-linejoin="round"></path>
    <path d="M408.92 159.53C408.92 157.8 410.325 156.398 412.058 156.398C413.792 156.398 415.197 157.8 415.197 159.53C415.197 161.258 413.792 162.66 412.058 162.66C410.325 162.66 408.92 161.258 408.92 159.53Z" fill="#DB6332" stroke="#FBFCE1" stroke-width="1.44781" stroke-miterlimit="10" stroke-linejoin="round"></path>
    <path d="M430.585 173.768C430.585 172.038 431.99 170.635 433.724 170.635C435.457 170.635 436.862 172.038 436.862 173.768C436.862 175.496 435.457 176.898 433.724 176.898C431.99 176.898 430.585 175.496 430.585 173.768Z" fill="#DB6332" stroke="#FBFCE1" stroke-width="1.44781" stroke-miterlimit="10" stroke-linejoin="round"></path>
    <path d="M454.808 152.261C454.808 150.531 456.213 149.129 457.946 149.129C459.68 149.129 461.084 150.531 461.084 152.261C461.084 153.992 459.68 155.394 457.946 155.394C456.213 155.394 454.808 153.992 454.808 152.261Z" fill="#DB6332" stroke="#FBFCE1" stroke-width="1.44781" stroke-miterlimit="10" stroke-linejoin="round"></path>
    <path d="M495.05 229.012C495.05 227.207 496.516 225.742 498.327 225.742C500.135 225.742 501.601 227.207 501.601 229.012C501.601 230.819 500.135 232.282 498.327 232.282C496.516 232.282 495.05 230.819 495.05 229.012Z" stroke="#1E1E1D" stroke-width="2.89562" stroke-miterlimit="10" stroke-linejoin="round"></path>
    <path d="M503.584 234.424L500.47 231.659" stroke="#1E1E1D" stroke-width="2.89562" stroke-miterlimit="10" stroke-linecap="round" stroke-linejoin="round"></path>
    <path d="M271.612 132.338C265.163 147.691 239.263 174.789 227.589 179.273C214.357 179.437 203.507 189.374 201.951 202.177C198.517 203.08 195.363 204.655 192.635 206.762C188.554 204.141 183.707 202.604 178.491 202.604C164.034 202.604 152.312 214.282 152.312 228.686C152.312 229.935 152.432 231.153 152.601 232.356C146.086 232.575 140.184 235.161 135.719 239.286C131.054 232.12 122.975 227.369 113.764 227.369C99.3074 227.369 87.5848 239.043 87.5848 253.447C87.5848 257.214 88.401 260.792 89.8445 264.025C76.9401 265.638 66.951 276.583 66.951 289.878C66.951 293.1 67.5664 296.173 68.6381 299.021H283.926C284.073 298.941 284.226 298.866 284.373 298.783C284.465 298.868 284.568 298.938 284.662 299.021H414.11C416.919 294.865 418.561 289.861 418.561 284.471C418.561 270.067 406.838 258.395 392.381 258.395C384.877 258.395 378.132 261.558 373.359 266.598C369.447 262.468 364.205 259.624 358.308 258.728C358.7 257.22 358.932 255.652 358.932 254.022C358.932 243.691 350.526 235.316 340.155 235.316C338.262 235.316 336.439 235.6 334.716 236.119C333.27 223.078 322.181 212.932 308.708 212.932C303.61 212.932 298.883 214.413 294.866 216.927C277.803 187.537 290.718 142.566 290.718 142.566C278.993 142.566 271.612 132.338 271.612 132.338Z" fill="#1E1E1D" stroke="#FBFCE1" stroke-width="2.17172" stroke-miterlimit="10" stroke-linejoin="round"></path>
    <path d="M271.459 143.907C272.471 142.164 271.731 143.376 271.503 143.789C271.343 144.08 270.828 144.933 271.001 144.649C271.319 144.128 271.283 144.207 271.459 143.907Z" stroke="#FBFCE1" stroke-width="2.17172" stroke-miterlimit="10" stroke-linecap="round" stroke-linejoin="round"></path>
    <path d="M268.198 147.956C264.574 153.382 261.675 158.447 253.556 166.691" stroke="#FBFCE1" stroke-width="2.17172" stroke-miterlimit="10" stroke-linecap="round" stroke-linejoin="round"></path>
    <path d="M251.132 169.731C250.094 171.245 248.314 172.297 247.354 173.831" stroke="#FBFCE1" stroke-width="2.17172" stroke-miterlimit="10" stroke-linecap="round" stroke-linejoin="round"></path>
    <path d="M244.492 176.851C242.995 177.886 241.374 179.098 240.059 180.36" stroke="#FBFCE1" stroke-width="2.17172" stroke-miterlimit="10" stroke-linecap="round" stroke-linejoin="round"></path>
    <path d="M274.722 154.468C263.487 176.535 263.153 188.114 262.743 191.741C262.605 192.951 262.478 194.228 262.478 195.446C262.478 195.645 262.478 197.306 262.478 196.783" stroke="#FBFCE1" stroke-width="2.17172" stroke-miterlimit="10" stroke-linecap="round" stroke-linejoin="round"></path>
    <path d="M281.59 143.535C281.31 144.362 280.521 145.062 279.71 146.965" stroke="#FBFCE1" stroke-width="2.17172" stroke-miterlimit="10" stroke-linecap="round" stroke-linejoin="round"></path>
    <path d="M262.557 203.155C262.557 204.428 263.566 209.537 264.574 210.539" stroke="#FBFCE1" stroke-width="2.17172" stroke-miterlimit="10" stroke-linecap="round" stroke-linejoin="round"></path>
    <path d="M281.187 159.788C281.187 166.304 279.212 172.722 278.756 179.244C278.607 181.377 278.627 183.604 278.708 185.743C278.745 186.741 279.065 189.694 279.188 188.703" stroke="#FBFCE1" stroke-width="2.17172" stroke-miterlimit="10" stroke-linecap="round" stroke-linejoin="round"></path>
    <path d="M189.795 212.033C189.795 207.005 202.88 201.068 206.814 203.581" stroke="#FBFCE1" stroke-width="2.17172" stroke-miterlimit="10" stroke-linecap="round" stroke-linejoin="round"></path>
    <path d="M127.544 282.581C127.544 279.729 125.292 276.857 126.296 273.687C128.437 266.932 141.534 262.678 146.705 268.151C147.226 268.702 146.588 266.637 146.588 265.88C146.588 264.741 146.358 263.304 146.614 262.19C147.388 258.819 152.509 254.652 155.763 254.031C161.01 253.032 166.096 253.852 170.518 256.761C171.868 257.649 173.505 258.898 174.163 260.407C174.498 261.177 174.551 263.739 174.551 262.899C174.551 256.12 189.731 253.148 194.371 254.495C199.049 255.853 203.371 259.736 204.552 264.513C204.756 265.34 204.653 271.983 204.89 272.04C207.075 272.567 209.626 271.747 211.865 272.06C214.971 272.495 220.555 277.038 220.555 280.472" stroke="#FBFCE1" stroke-width="2.17172" stroke-miterlimit="10" stroke-linecap="round" stroke-linejoin="round"></path>
    <path d="M165.518 272.335C165.518 269.223 168.568 266.808 171.108 265.611C176.282 263.175 181.754 263.089 186.552 266.672C187.592 267.451 189.052 268.459 189.558 269.728" stroke="#FBFCE1" stroke-width="2.17172" stroke-miterlimit="10" stroke-linecap="round" stroke-linejoin="round"></path>
    <path d="M91.8737 277.093C89.4515 275.133 89.4927 271.246 90.162 268.525C91.5257 262.978 94.9052 258.682 100.716 257.22C101.978 256.903 103.681 256.407 104.987 256.811" stroke="#FBFCE1" stroke-width="2.17172" stroke-miterlimit="10" stroke-linecap="round" stroke-linejoin="round"></path>
    <path d="M253.096 266.696C253.096 267.311 253.705 265.609 254.142 265.172C254.797 264.518 255.774 264.084 256.627 263.752C259.263 262.72 263.565 262.234 266.282 263.161C269.291 264.187 272.839 266.442 273.845 269.64C274.071 270.36 273.495 274.461 274.06 274.853C274.095 274.875 279.035 273.786 279.824 273.86C285.944 274.422 288.568 279.816 288.568 285.099" stroke="#FBFCE1" stroke-width="2.17172" stroke-miterlimit="10" stroke-linecap="round" stroke-linejoin="round"></path>
    <path d="M202.784 223.331C203.077 223.874 202.801 222.087 202.979 221.496C203.242 220.608 203.895 219.764 204.484 219.064C206.312 216.905 209.862 214.433 212.696 213.958C215.832 213.433 220.029 213.729 222.437 216.065C222.978 216.59 224.427 220.47 225.111 220.545C225.152 220.551 228.979 217.246 229.706 216.935C235.358 214.523 240.236 218.02 242.754 222.666" stroke="#FBFCE1" stroke-width="2.17172" stroke-miterlimit="10" stroke-linecap="round" stroke-linejoin="round"></path>
    <path d="M277.187 244.995C277.187 237.991 288.686 235.767 293.442 235.767C305.267 235.767 313.036 242.48 313.036 254.254" stroke="#FBFCE1" stroke-width="2.17172" stroke-miterlimit="10" stroke-linecap="round" stroke-linejoin="round"></path>
    <path d="M298.909 260.978C300.404 257.562 306.926 255.989 310.132 255.656C317.623 254.876 326.669 260.103 328.648 267.862C329.163 269.879 328.753 272.106 328.753 274.16" stroke="#FBFCE1" stroke-width="2.17172" stroke-miterlimit="10" stroke-linecap="round" stroke-linejoin="round"></path>
    <path d="M324.366 259.285C324.366 253.561 336.038 253.305 339.54 253.788C348.893 255.081 354.659 264.012 354.659 272.69" stroke="#FBFCE1" stroke-width="2.17172" stroke-miterlimit="10" stroke-linecap="round" stroke-linejoin="round"></path>
    <path d="M348.847 288.039C348.847 276.765 360.657 271.622 370.512 273.849C374.347 274.715 381.802 278.084 381.802 282.988" stroke="#FBFCE1" stroke-width="2.17172" stroke-miterlimit="10" stroke-linecap="round" stroke-linejoin="round"></path>
    <path d="M392.155 265.85C395.73 264.701 400.479 266.403 403.586 268.026C404.675 268.595 405.668 269.339 406.569 270.17C407.003 270.57 407.796 272.033 407.796 271.445" stroke="#FBFCE1" stroke-width="2.17172" stroke-miterlimit="10" stroke-linecap="round" stroke-linejoin="round"></path>
    <path d="M410.365 275.57C410.384 275.527 410.77 275.993 410.834 276.08C411.208 276.616 411.522 277.185 411.804 277.773C411.888 277.946 412.19 278.681 412.194 278.615" stroke="#FBFCE1" stroke-width="2.17172" stroke-miterlimit="10" stroke-linecap="round" stroke-linejoin="round"></path>
    <path d="M165.517 213.737C162.484 213.737 160.045 218.136 159.585 220.7" stroke="#FBFCE1" stroke-width="2.17172" stroke-miterlimit="10" stroke-linecap="round" stroke-linejoin="round"></path>
    <path d="M158.257 224.937C158.257 226.284 158.132 227.608 158.132 228.946" stroke="#FBFCE1" stroke-width="2.17172" stroke-miterlimit="10" stroke-linecap="round" stroke-linejoin="round"></path>
    <path d="M298.37 221.489C300.647 220.851 302.374 220.022 304.835 220.022C304.964 220.022 305.561 219.932 305.576 220.109" stroke="#FBFCE1" stroke-width="2.17172" stroke-miterlimit="10" stroke-linecap="round" stroke-linejoin="round"></path>
    <path d="M310.261 219.608C313.161 219.608 314.611 220.157 317.094 221.212" stroke="#FBFCE1" stroke-width="2.17172" stroke-miterlimit="10" stroke-linecap="round" stroke-linejoin="round"></path>
    <path d="M115.291 232.037C117.664 232.037 120.975 232.617 123.051 233.881" stroke="#FBFCE1" stroke-width="2.17172" stroke-miterlimit="10" stroke-linecap="round" stroke-linejoin="round"></path>
    <path d="M110.848 232.656C108.929 232.656 105.862 233.905 104.459 235.25" stroke="#FBFCE1" stroke-width="2.17172" stroke-miterlimit="10" stroke-linecap="round" stroke-linejoin="round"></path>
    <path d="M123.051 217.476C123.051 213.357 126.403 210.014 130.539 210.014C134.675 210.014 138.027 213.357 138.027 217.476C138.027 221.597 134.675 224.937 130.539 224.937C126.403 224.937 123.051 221.597 123.051 217.476Z" fill="#1E1E1D" stroke="#FBFCE1" stroke-width="2.17172" stroke-miterlimit="10" stroke-linecap="round" stroke-linejoin="round"></path>
    <path d="M67.4778 253.336C67.4778 250.518 69.7699 248.235 72.5974 248.235C75.4246 248.235 77.7167 250.518 77.7167 253.336C77.7167 256.153 75.4246 258.437 72.5974 258.437C69.7699 258.437 67.4778 256.153 67.4778 253.336Z" fill="#1E1E1D" stroke="#FBFCE1" stroke-width="2.17172" stroke-miterlimit="10" stroke-linecap="round" stroke-linejoin="round"></path>
    <path d="M300.023 193.511C300.023 188.814 303.845 185.006 308.559 185.006C313.273 185.006 317.095 188.814 317.095 193.511C317.095 198.207 313.273 202.015 308.559 202.015C303.845 202.015 300.023 198.207 300.023 193.511Z" fill="#1E1E1D" stroke="#FBFCE1" stroke-width="2.17172" stroke-miterlimit="10" stroke-linecap="round" stroke-linejoin="round"></path>
    <path d="M368.283 249.398C368.283 247.161 370.107 245.345 372.353 245.345C374.601 245.345 376.422 247.161 376.422 249.398C376.422 251.638 374.601 253.454 372.353 253.454C370.107 253.454 368.283 251.638 368.283 249.398Z" fill="#1E1E1D" stroke="#FBFCE1" stroke-width="2.17172" stroke-miterlimit="10" stroke-linecap="round" stroke-linejoin="round"></path>
    <path d="M222.626 181.53C221.953 184.341 219.119 186.078 216.294 185.408C213.472 184.737 211.73 181.913 212.402 179.1C213.075 176.287 215.911 174.552 218.734 175.222C221.556 175.893 223.298 178.717 222.626 181.53Z" fill="#1E1E1D" stroke="#FBFCE1" stroke-width="2.17172" stroke-miterlimit="10" stroke-linecap="round" stroke-linejoin="round"></path>
    <path d="M152.237 206.6C151.878 208.103 150.363 209.03 148.856 208.671C147.348 208.313 146.418 206.806 146.777 205.303C147.137 203.8 148.65 202.873 150.157 203.231C151.665 203.59 152.596 205.097 152.237 206.6Z" fill="#1E1E1D" stroke="#FBFCE1" stroke-width="2.17172" stroke-miterlimit="10" stroke-linecap="round" stroke-linejoin="round"></path>
    <path d="M326.439 16.1455C326.439 16.1455 330.988 7.85904 339.11 3.75069C347.23 -0.357666 358.507 0.0986268 358.507 0.0986268C358.507 0.0986268 364.299 8.57781 365.316 17.5929C366.333 26.6082 362.991 35.773 362.991 35.773L321.333 113.061L284.781 93.4332L326.439 16.1455Z" fill="#DB6332"></path>
    <path d="M292.008 54.8839C292.008 54.8839 295.272 48.8855 299.492 45.0346C303.715 41.1837 308.655 39.7907 308.655 39.7907C308.655 39.7907 309.955 44.3674 309.054 50.0017C308.151 55.636 305.293 62.0177 305.293 62.0177L275.2 117.851C275.2 117.851 275.318 121.937 267.812 117.906C260.791 114.137 261.915 110.718 261.915 110.718L292.008 54.8839Z" fill="#DB6332"></path>
    <path d="M335.996 79.3294C335.996 79.3294 339.259 73.3309 343.482 69.48C347.705 65.6291 352.643 64.2361 352.643 64.2361C352.643 64.2361 353.942 68.8126 353.042 74.4469C352.141 80.0811 349.281 86.462 349.281 86.462L319.187 142.297C319.187 142.297 317.068 143.516 311.061 140.42C307.708 138.695 305.902 135.162 305.902 135.162L335.996 79.3294Z" fill="#DB6332"></path>
    <path d="M272.438 128.274L294.774 140.127L292.335 144.706C292.335 144.706 286.273 144.421 279.23 140.582C272.289 136.8 269.999 132.854 269.999 132.854L272.438 128.274Z" fill="#883513"></path>
    <path d="M273.407 121.688L301.221 136.177L298.024 142.293C298.024 142.293 290.393 142.203 281.625 137.502C272.984 132.87 270.207 127.804 270.207 127.804L273.407 121.688Z" fill="#DB6332"></path>
    <path d="M320.75 26.7041C320.75 26.7041 320.816 33.2183 336.274 41.6188C350.765 49.4916 357.3 46.3315 357.3 46.3315L306.516 138.587C306.516 138.587 302.685 141.453 286.238 132.487C270.777 124.057 269.964 118.96 269.964 118.96L320.75 26.7041Z" fill="#FBFCE1"></path>
    <path d="M267.512 113.061L284.781 79.7371L309.371 73.4236L285.535 116.827L267.512 113.061Z" fill="#883513" stroke="#883513" stroke-width="2.89562" stroke-miterlimit="10" stroke-linejoin="round"></path>
    <path d="M314.094 137.172L332.025 104.2L323.456 80.3443L300.853 124.4L314.094 137.172Z" fill="#883513" stroke="#883513" stroke-width="2.89562" stroke-miterlimit="10" stroke-linejoin="round"></path>
    <path d="M314.828 59.495C314.828 53.2032 319.937 48.1028 326.242 48.1028C332.544 48.1028 337.655 53.2032 337.655 59.495C337.655 65.7868 332.544 70.8873 326.242 70.8873C319.937 70.8873 314.828 65.7868 314.828 59.495Z" fill="#1E1E1D" stroke="#DB6332" stroke-width="4.34343" stroke-miterlimit="10" stroke-linejoin="round"></path>
    <mask id="mask2_5_117" style="mask-type:luminance" maskUnits="userSpaceOnUse" x="314" y="48" width="24" height="23">
      <path d="M314.828 59.495C314.828 53.2032 319.937 48.1028 326.242 48.1028C332.544 48.1028 337.655 53.2032 337.655 59.495C337.655 65.7868 332.544 70.8873 326.242 70.8873C319.937 70.8873 314.828 65.7868 314.828 59.495Z" fill="white"></path>
    </mask>
    <g mask="url(#mask2_5_117)">
      <path opacity="0.212781" d="M315.157 61.9586L333.219 50.8522L335.155 53.9867L317.092 65.0934L315.157 61.9586Z" fill="#FBFCE1"></path>
      <path opacity="0.212781" d="M317.414 66.5388L335.477 55.4321L336.233 56.6584L318.171 67.7648L317.414 66.5388Z" fill="#FBFCE1"></path>
    </g>
    <path d="M6.04724 113.163C6.04724 108.992 9.43507 105.61 13.6145 105.61H189.35C193.529 105.61 196.917 108.992 196.917 113.163V237.584C196.917 241.756 193.529 245.137 189.35 245.137H13.6145C9.43507 245.137 6.04724 241.756 6.04724 237.584V113.163Z" fill="#1E1E1D" stroke="#DB6332" stroke-width="4.34343" stroke-miterlimit="10" stroke-linejoin="round"></path>
    <path d="M5.89838 112.573C5.89838 108.402 9.28709 105.02 13.4671 105.02H189.416C193.597 105.02 196.985 108.402 196.985 112.573C196.985 112.573 197.003 121.745 196.996 121.745H6.09978C5.97946 121.745 5.89838 112.573 5.89838 112.573Z" fill="#DB6332" stroke="#DB6332" stroke-width="4.34343" stroke-miterlimit="10" stroke-linejoin="round"></path>
    <path d="M161.991 112.868C161.991 110.915 163.578 109.331 165.537 109.331C167.494 109.331 169.081 110.915 169.081 112.868C169.081 114.824 167.494 116.407 165.537 116.407C163.578 116.407 161.991 114.824 161.991 112.868Z" fill="#F2F3D9"></path>
    <path d="M173.411 112.868C173.411 110.915 174.998 109.331 176.955 109.331C178.914 109.331 180.501 110.915 180.501 112.868C180.501 114.824 178.914 116.407 176.955 116.407C174.998 116.407 173.411 114.824 173.411 112.868Z" fill="#FDC4AD"></path>
    <path d="M184.011 112.868C184.011 110.915 185.6 109.331 187.557 109.331C189.514 109.331 191.101 110.915 191.101 112.868C191.101 114.824 189.514 116.407 187.557 116.407C185.6 116.407 184.011 114.824 184.011 112.868Z" fill="#1E1E1D"></path>
    <path d="M60.1384 133.707V234.797" stroke="#474747" stroke-width="2.89562" stroke-miterlimit="10" stroke-linecap="round" stroke-linejoin="round"></path>
    <path d="M31.4667 145.298V147.699L22.9325 144.001V141.948L31.4667 138.249V140.667L25.5199 142.957L31.4667 145.298ZM36.7433 138.198L34.368 147.979C34.2888 148.302 34.2181 148.556 34.1559 148.743C34.0993 148.929 34.0088 149.074 33.8844 149.175C33.7656 149.283 33.5903 149.337 33.3584 149.337C32.7816 149.337 32.4932 149.088 32.4932 148.59C32.4932 148.46 32.5497 148.135 32.6628 147.614L35.0297 137.833C35.1541 137.313 35.2728 136.957 35.3859 136.764C35.4991 136.572 35.7196 136.476 36.0476 136.476C36.3304 136.476 36.5453 136.544 36.6924 136.679C36.8451 136.815 36.9214 137.002 36.9214 137.239C36.9214 137.415 36.862 137.734 36.7433 138.198ZM46.4821 144.001L37.9479 147.716V145.315L43.9116 142.974L37.9479 140.667V138.283L46.4821 141.965V144.001Z" fill="#DB6332"></path>
    <path d="M14.0574 166.814C14.0574 165.726 14.9406 164.845 16.0297 164.845H31.6599C32.7491 164.845 33.6323 165.726 33.6323 166.814V166.857C33.6323 167.944 32.7491 168.826 31.6599 168.826H16.0297C14.9406 168.826 14.0574 167.944 14.0574 166.857V166.814Z" fill="#6F6D6D"></path>
    <path d="M34.7336 166.814C34.7336 165.726 35.6165 164.845 36.7059 164.845H51.4167C52.5061 164.845 53.3891 165.726 53.3891 166.814C53.3891 167.901 52.5061 168.782 51.4167 168.782H36.7059C35.6165 168.782 34.7336 167.901 34.7336 166.814Z" fill="#6F6D6D"></path>
    <path d="M14.0576 175.581C14.0576 174.494 14.9408 173.612 16.03 173.612H24.2943C25.3837 173.612 26.2667 174.494 26.2667 175.581C26.2667 176.668 25.3837 177.549 24.2943 177.549H16.03C14.9408 177.549 14.0576 176.668 14.0576 175.581Z" fill="#6F6D6D"></path>
    <path d="M13.8762 211.607C13.8762 210.52 14.7591 209.638 15.8485 209.638H24.2945C25.3839 209.638 26.2669 210.52 26.2669 211.607C26.2669 212.694 25.3839 213.576 24.2945 213.576H15.8485C14.7591 213.576 13.8762 212.694 13.8762 211.607Z" fill="#DB6332"></path>
    <path d="M43.3979 175.581C43.3979 174.494 44.2811 173.612 45.3703 173.612H51.4168C52.5062 173.612 53.3892 174.494 53.3892 175.581C53.3892 176.668 52.5062 177.549 51.4168 177.549H45.3703C44.2811 177.549 43.3979 176.668 43.3979 175.581Z" fill="#6F6D6D"></path>
    <path d="M27.3364 175.581C27.3364 174.494 28.2196 173.612 29.3088 173.612H40.3638C41.4532 173.612 42.3361 174.494 42.3361 175.581C42.3361 176.668 41.4532 177.549 40.3638 177.549H29.3088C28.2196 177.549 27.3364 176.668 27.3364 175.581Z" fill="#DB6332"></path>
    <path d="M27.3364 211.607C27.3364 210.52 28.2135 209.638 29.2952 209.638H51.4306C52.5123 209.638 53.3891 210.52 53.3891 211.607C53.3891 212.694 52.5123 213.576 51.4306 213.576H29.2952C28.2135 213.576 27.3364 212.694 27.3364 211.607Z" fill="#6F6D6D"></path>
    <path d="M39.6008 184.361C39.6008 183.274 40.4838 182.392 41.5731 182.392H51.4169C52.5063 182.392 53.3892 183.274 53.3892 184.361C53.3892 185.448 52.5063 186.329 51.4169 186.329H41.5731C40.4838 186.329 39.6008 185.448 39.6008 184.361Z" fill="#DB6332"></path>
    <path d="M14.0576 184.361C14.0576 183.274 14.9408 182.392 16.03 182.392H36.5034C37.5926 182.392 38.4757 183.274 38.4757 184.361C38.4757 185.448 37.5926 186.329 36.5034 186.329H16.03C14.9408 186.329 14.0576 185.448 14.0576 184.361Z" fill="#6F6D6D"></path>
    <path d="M13.8762 193.331C13.8762 192.242 14.7591 191.363 15.8485 191.363H51.4169C52.5063 191.363 53.3892 192.242 53.3892 193.331C53.3892 194.418 52.5063 195.3 51.4169 195.3H15.8485C14.7591 195.3 13.8762 194.418 13.8762 193.331Z" fill="#DB6332"></path>
    <path d="M13.8762 202.046C13.8762 200.959 14.7591 200.077 15.8485 200.077H28.7608C29.85 200.077 30.7331 200.959 30.7331 202.046C30.7331 203.133 29.85 204.015 28.7608 204.015H15.8485C14.7591 204.015 13.8762 203.133 13.8762 202.046Z" fill="#6F6D6D"></path>
    <path d="M32.0635 202.046C32.0635 200.959 32.9464 200.077 34.0358 200.077H42.0889C43.1783 200.077 44.0612 200.959 44.0612 202.046C44.0612 203.133 43.1783 204.015 42.0889 204.015H34.0358C32.9464 204.015 32.0635 203.133 32.0635 202.046Z" fill="#6F6D6D"></path>
    <path d="M45.0716 202.046C45.0716 200.959 45.9548 200.077 47.0439 200.077H51.4168C52.5062 200.077 53.3892 200.959 53.3892 202.046C53.3892 203.133 52.5062 204.015 51.4168 204.015H47.0439C45.9548 204.015 45.0716 203.133 45.0716 202.046Z" fill="#6F6D6D"></path>
    <path d="M13.8762 219.908C13.8762 218.821 14.7591 217.939 15.8485 217.939H40.182C41.2714 217.939 42.1543 218.821 42.1543 219.908C42.1543 220.995 41.2714 221.877 40.182 221.877H15.8485C14.7591 221.877 13.8762 220.995 13.8762 219.908Z" fill="#6F6D6D"></path>
    <path d="M70.3747 218.924C70.3747 220.553 71.6992 221.877 73.3332 221.877H123.85C125.484 221.877 126.808 220.553 126.808 218.924V218.858C126.808 217.229 125.484 215.905 123.85 215.905H73.3332C71.6992 215.905 70.3747 217.229 70.3747 218.858V218.924Z" fill="#6F6D6D"></path>
    <path d="M129.982 218.924C129.982 220.553 131.307 221.877 132.941 221.877H180.807C182.442 221.877 183.766 220.553 183.766 218.924C183.766 217.292 182.442 215.971 180.807 215.971H132.941C131.307 215.971 129.982 217.292 129.982 218.924Z" fill="#6F6D6D"></path>
    <path d="M70.3747 205.773C70.3747 207.405 71.6992 208.726 73.3332 208.726H102.614C104.248 208.726 105.573 207.405 105.573 205.773C105.573 204.141 104.248 202.82 102.614 202.82H73.3332C71.6992 202.82 70.3747 204.141 70.3747 205.773Z" fill="#6F6D6D"></path>
    <path d="M69.8503 151.734C69.8503 153.363 71.1749 154.687 72.8089 154.687H102.614C104.248 154.687 105.573 153.363 105.573 151.734C105.573 150.102 104.248 148.781 102.614 148.781H72.8089C71.1749 148.781 69.8503 150.102 69.8503 151.734Z" fill="#DB6332"></path>
    <path d="M154.961 205.773C154.961 207.405 156.287 208.726 157.919 208.726H180.807C182.442 208.726 183.766 207.405 183.766 205.773C183.766 204.141 182.442 202.82 180.807 202.82H157.919C156.287 202.82 154.961 204.141 154.961 205.773Z" fill="#6F6D6D"></path>
    <path d="M108.657 205.773C108.657 207.405 109.981 208.726 111.615 208.726H148.943C150.576 208.726 151.902 207.405 151.902 205.773C151.902 204.141 150.576 202.82 148.943 202.82H111.615C109.981 202.82 108.657 204.141 108.657 205.773Z" fill="#DB6332"></path>
    <path d="M108.657 151.734C108.657 153.363 109.981 154.687 111.615 154.687H180.807C182.442 154.687 183.766 153.363 183.766 151.734C183.766 150.102 182.442 148.781 180.807 148.781H111.615C109.981 148.781 108.657 150.102 108.657 151.734Z" fill="#6F6D6D"></path>
    <path d="M144.014 192.603C144.014 194.235 145.339 195.556 146.973 195.556H180.808C182.442 195.556 183.766 194.235 183.766 192.603C183.766 190.973 182.442 189.65 180.808 189.65H146.973C145.339 189.65 144.014 190.973 144.014 192.603Z" fill="#DB6332"></path>
    <path d="M70.3747 192.603C70.3747 194.235 71.6992 195.556 73.3332 195.556H137.812C139.446 195.556 140.771 194.235 140.771 192.603C140.771 190.973 139.446 189.65 137.812 189.65H73.3332C71.6992 189.65 70.3747 190.973 70.3747 192.603Z" fill="#6F6D6D"></path>
    <path d="M69.8503 179.148C69.8503 180.78 71.1749 182.101 72.8089 182.101H180.807C182.442 182.101 183.766 180.78 183.766 179.148C183.766 177.516 182.442 176.195 180.807 176.195H72.8089C71.1749 176.195 69.8503 177.516 69.8503 179.148Z" fill="#DB6332"></path>
    <path d="M69.8503 166.074C69.8503 167.706 71.1749 169.027 72.8089 169.027H115.49C117.124 169.027 118.449 167.706 118.449 166.074C118.449 164.445 117.124 163.121 115.49 163.121H72.8089C71.1749 163.121 69.8503 164.445 69.8503 166.074Z" fill="#6F6D6D"></path>
    <path d="M122.285 166.074C122.285 167.706 123.609 169.027 125.243 169.027H153.916C155.55 169.027 156.874 167.706 156.874 166.074C156.874 164.445 155.55 163.121 153.916 163.121H125.243C123.609 163.121 122.285 164.445 122.285 166.074Z" fill="#6F6D6D"></path>
    <path d="M159.787 166.074C159.787 167.706 161.113 169.027 162.745 169.027H180.808C182.442 169.027 183.766 167.706 183.766 166.074C183.766 164.445 182.442 163.121 180.808 163.121H162.745C161.113 163.121 159.787 164.445 159.787 166.074Z" fill="#6F6D6D"></path>
    <path d="M69.8504 139.283C69.8504 140.913 71.175 142.236 72.809 142.236H148.418C150.052 142.236 151.376 140.913 151.376 139.283C151.376 137.651 150.052 136.33 148.418 136.33H72.809C71.175 136.33 69.8504 137.651 69.8504 139.283Z" fill="#6F6D6D"></path>
  </g>
  <defs>
    <linearGradient id="paint0_linear_5_117" x1="306.095" y1="314.63" x2="330.086" y2="461.609" gradientUnits="userSpaceOnUse">
      <stop stop-color="#DB6332"></stop>
      <stop offset="0.447917" stop-color="#DB6332" stop-opacity="0.958333"></stop>
      <stop offset="1" stop-color="#DB6332" stop-opacity="0"></stop>
    </linearGradient>
    <linearGradient id="paint1_linear_5_117" x1="269.648" y1="329.194" x2="315.528" y2="443.567" gradientUnits="userSpaceOnUse">
      <stop stop-color="#883513"></stop>
      <stop offset="1" stop-color="#883513" stop-opacity="0"></stop>
    </linearGradient>
    <clipPath id="clip0_5_117">
      <rect width="519" height="471" fill="white"></rect>
    </clipPath>
  </defs>
</svg>
