<?xml version="1.0" encoding="UTF-8"?>
<svg xmlns="http://www.w3.org/2000/svg" width="328" height="177" viewBox="0 0 328 177" fill="none">
  <g clip-path="url(#clip0_128_376)">
    <path d="M0.755615 173.151L327.244 175.371L0.755615 173.151Z" fill="#FBFCE1" fill-opacity="0.199747"></path>
    <path d="M0.755615 173.151L327.244 175.371" stroke="#FBFCE1" stroke-width="1.51122" stroke-miterlimit="10" stroke-linejoin="round"></path>
    <path d="M129.061 53.4627C129.909 48.7269 134.028 45.2798 138.839 45.2798H276.839C282.937 45.2798 287.596 50.7232 286.654 56.7484L271.921 151.012C271.16 155.881 266.944 159.457 262.015 159.412L122.092 158.137C115.94 158.081 111.318 152.505 112.403 146.451L129.061 53.4627Z" fill="#1E1E1D" stroke="#FBFCE1" stroke-width="1.51122" stroke-miterlimit="10" stroke-linejoin="round"></path>
    <path opacity="0.496108" d="M134.269 54.5801C134.722 52.0364 136.937 50.1855 139.521 50.1919L275.664 50.5297C278.933 50.538 281.422 53.4656 280.904 56.6939L266.155 148.617C265.738 151.217 263.482 153.121 260.849 153.095L123.27 151.75C119.979 151.718 117.506 148.736 118.083 145.496L134.269 54.5801Z" fill="#FBFCE1" fill-opacity="0.199747" stroke="#FBFCE1" stroke-width="1.51122" stroke-miterlimit="10" stroke-linejoin="round"></path>
    <mask id="mask0_128_376" style="mask-type:luminance" maskUnits="userSpaceOnUse" x="117" y="50" width="164" height="104">
      <path d="M134.269 54.5801C134.722 52.0364 136.937 50.1855 139.521 50.1919L275.664 50.5297C278.933 50.538 281.422 53.4656 280.904 56.6939L266.155 148.617C265.738 151.217 263.482 153.121 260.849 153.095L123.27 151.75C119.979 151.718 117.506 148.736 118.083 145.496L134.269 54.5801Z" fill="white"></path>
    </mask>
    <g mask="url(#mask0_128_376)">
      <path opacity="0.0896536" d="M102.403 132.917L257.604 19.4268L273.989 41.8332L118.788 155.324L102.403 132.917Z" fill="#FEFEE4"></path>
      <path opacity="0.0896536" d="M126.353 155.735L281.555 42.2446L286.776 49.3844L131.574 162.875L126.353 155.735Z" fill="#FEFEE4"></path>
    </g>
    <path d="M42.6796 158.739C43.4435 158.739 47.4558 158.771 48.2514 158.775L267.627 160.05C271.236 160.071 274.144 163.021 274.124 166.638C274.102 170.256 271.16 173.172 267.551 173.151L48.1755 171.876C45.3465 171.86 41.8677 168.6 41.3867 165.963C40.9341 163.483 41.4472 158.739 42.6796 158.739Z" fill="#DBDCC8" stroke="#1E1E1D" stroke-width="1.51122" stroke-miterlimit="10" stroke-linejoin="round"></path>
    <path d="M146.877 159.348L267.627 160.05C271.236 160.071 274.144 163.021 274.124 166.638C274.102 170.256 271.16 173.172 267.551 173.151L152.605 172.483C152.605 172.483 148.421 170.838 146.989 167.554C145.557 164.27 146.877 159.348 146.877 159.348Z" fill="#FEFEE4" stroke="#1E1E1D" stroke-width="1.51122" stroke-miterlimit="10" stroke-linejoin="round"></path>
    <path d="M146.683 159.413C146.372 159.867 145.606 165.225 147.113 168.266C148.739 171.549 152.659 172.514 152.659 172.514" stroke="#1E1E1D" stroke-width="1.51122" stroke-miterlimit="10" stroke-linejoin="round"></path>
    <path d="M257.015 167.579C257.015 166.845 257.61 166.25 258.344 166.25H262.626C263.36 166.25 263.955 166.845 263.955 167.579C263.955 168.313 263.36 168.908 262.626 168.908H258.344C257.61 168.908 257.015 168.313 257.015 167.579Z" fill="#272725"></path>
    <path d="M248.637 167.579C248.637 166.845 249.233 166.25 249.967 166.25H254.248C254.982 166.25 255.578 166.845 255.578 167.579C255.578 168.313 254.982 168.908 254.248 168.908H249.967C249.233 168.908 248.637 168.313 248.637 167.579Z" fill="#272725"></path>
    <path opacity="0.312354" d="M218.936 46.7806C219.52 44.479 221.592 42.8677 223.967 42.8677H243.976H303.685C307.057 42.8677 309.534 46.0333 308.723 49.3062L305.588 61.9525C305.011 64.2839 302.909 65.9142 300.507 65.8941L220.881 65.2307C217.515 65.2027 215.065 62.0269 215.894 58.7638L218.936 46.7806Z" fill="#1E1E1D" stroke="#1E1E1D" stroke-width="1.51122" stroke-miterlimit="10" stroke-linejoin="round"></path>
    <path d="M214.117 39.8011C214.701 37.4995 216.773 35.8882 219.148 35.8882H298.866C302.238 35.8882 304.714 39.0538 303.903 42.3267L300.769 54.973C300.191 57.3041 298.09 58.9347 295.688 58.9146L216.062 58.2512C212.696 58.2233 210.247 55.0474 211.075 51.7843L214.117 39.8011Z" fill="#FEFEE4" stroke="#E16633" stroke-width="1.51122" stroke-miterlimit="10" stroke-linejoin="round"></path>
    <path d="M220.074 43.2577C220.195 42.7812 220.623 42.4473 221.115 42.4473H227.495C228.191 42.4473 228.702 43.1001 228.536 43.7764L228.523 43.8297C228.404 44.3125 227.969 44.6502 227.472 44.6461L221.106 44.5928C220.411 44.5868 219.905 43.9317 220.074 43.2577Z" fill="#E16633"></path>
    <path d="M217.344 50.9676C217.464 50.4912 217.893 50.1572 218.384 50.1572H224.764C225.46 50.1572 225.972 50.8101 225.806 51.4863L225.793 51.5396C225.674 52.0224 225.239 52.3602 224.742 52.3561L218.375 52.3028C217.68 52.2967 217.174 51.6416 217.344 50.9676Z" fill="#B8B8AE"></path>
    <path d="M247.128 47.0615C247.312 46.7317 247.651 46.5288 248.017 46.5288H264.671C265.459 46.5288 265.955 47.4136 265.566 48.1269L265.532 48.19C265.348 48.5266 265.005 48.7341 264.633 48.7325L248.013 48.6695C247.222 48.6668 246.73 47.7737 247.128 47.0615Z" fill="#E16633"></path>
    <path d="M268.617 43.2518C268.737 42.7754 269.166 42.4414 269.657 42.4414H276.037C276.733 42.4414 277.245 43.0943 277.078 43.7705L277.065 43.8238C276.947 44.3066 276.512 44.6444 276.015 44.6402L269.648 44.587C268.953 44.5809 268.447 43.9258 268.617 43.2518Z" fill="#E16633"></path>
    <path d="M265.886 50.9612C266.006 50.4847 266.435 50.1504 266.926 50.1504H273.306C274.002 50.1504 274.514 50.8036 274.348 51.4795L274.335 51.5332C274.216 52.016 273.781 52.3538 273.284 52.3496L266.917 52.2963C266.223 52.2903 265.716 51.6352 265.886 50.9612Z" fill="#E16633"></path>
    <path d="M230.708 42.8519C230.911 42.5961 231.22 42.4473 231.546 42.4473H255.887C256.776 42.4473 257.277 43.4696 256.732 44.1727L256.682 44.2373C256.479 44.4995 256.166 44.6529 255.834 44.6518L231.543 44.5872C230.65 44.5849 230.153 43.552 230.708 42.8519Z" fill="#B8B8AE"></path>
    <path d="M227.978 50.5618C228.181 50.3061 228.489 50.1572 228.816 50.1572H253.156C254.046 50.1572 254.547 51.1796 254.002 51.8827L253.952 51.9473C253.749 52.2095 253.435 52.3628 253.103 52.3617L228.813 52.2971C227.919 52.2948 227.422 51.2619 227.978 50.5618Z" fill="#B8B8AE"></path>
    <path d="M219.073 46.9266C219.276 46.6708 219.584 46.522 219.911 46.522H244.251C245.141 46.522 245.642 47.5443 245.097 48.2474L245.047 48.312C244.844 48.5742 244.53 48.7276 244.198 48.7265L219.908 48.6619C219.014 48.6596 218.517 47.6267 219.073 46.9266Z" fill="#B8B8AE"></path>
    <path d="M259.11 43.2733C259.222 42.7863 259.656 42.4414 260.155 42.4414H265.809C266.496 42.4414 267.006 43.0791 266.856 43.7501L266.844 43.8019C266.733 44.2953 266.293 44.644 265.787 44.6395L260.146 44.5877C259.46 44.5813 258.955 43.942 259.11 43.2733Z" fill="#B8B8AE"></path>
    <path d="M256.379 50.9827C256.491 50.4957 256.925 50.1504 257.425 50.1504H263.078C263.766 50.1504 264.276 50.7885 264.125 51.4595L264.114 51.5112C264.003 52.0043 263.562 52.3534 263.057 52.3488L257.415 52.2971C256.729 52.2907 256.225 51.6514 256.379 50.9827Z" fill="#B8B8AE"></path>
    <path d="M266.914 47.3611C267.04 46.8737 267.531 46.5288 268.096 46.5288H274.484C275.261 46.5288 275.838 47.1665 275.667 47.8375L275.654 47.8893C275.529 48.3827 275.031 48.7314 274.46 48.7269L268.084 48.6751C267.31 48.6687 266.74 48.0295 266.914 47.3611Z" fill="#B8B8AE"></path>
    <path d="M282.974 40.9466C283.237 39.9643 284.127 39.2812 285.144 39.2812H297.343C298.814 39.2812 299.888 40.6704 299.518 42.0936L296.237 54.7199C295.972 55.7373 295.038 56.4355 293.987 56.4004L281.794 55.9942C280.348 55.9458 279.323 54.5638 279.698 53.1667L282.974 40.9466Z" fill="#B8B8AE"></path>
    <path opacity="0.281455" d="M114.301 77.4471C114.594 75.9484 115.907 74.8667 117.434 74.8667H207.719C209.721 74.8667 211.229 76.687 210.856 78.6534L197.871 147.146C197.58 148.683 196.218 149.782 194.654 149.742L104.428 147.462C102.454 147.412 100.998 145.598 101.376 143.659L114.301 77.4471Z" fill="#1E1E1D" stroke="#1E1E1D" stroke-width="2.26683" stroke-miterlimit="10" stroke-linejoin="round"></path>
    <path d="M108.039 70.0207C108.331 68.5216 109.644 67.4399 111.171 67.4399H201.457C203.458 67.4399 204.966 69.2606 204.593 71.2267L191.608 139.719C191.317 141.256 189.955 142.355 188.391 142.316L98.1659 140.035C96.1907 139.985 94.735 138.171 95.1136 136.232L108.039 70.0207Z" fill="#1E1E1D" stroke="#E16633" stroke-width="2.26683" stroke-miterlimit="10" stroke-linejoin="round"></path>
    <path opacity="0.294476" d="M235.05 81.2167C235.224 80.3262 236.004 79.6836 236.911 79.6836H290.559C291.748 79.6836 292.644 80.7653 292.423 81.9334L284.707 122.632C284.534 123.545 283.724 124.198 282.795 124.175L229.183 122.819C228.01 122.79 227.145 121.712 227.369 120.56L235.05 81.2167Z" fill="#E16633" stroke="#E16633" stroke-width="2.26683" stroke-miterlimit="10" stroke-linejoin="round"></path>
    <path opacity="0.294476" d="M209.785 111.539C209.918 110.852 210.52 110.357 211.219 110.357H252.554C253.471 110.357 254.161 111.19 253.99 112.091L248.045 143.449C247.912 144.152 247.288 144.656 246.573 144.638L205.264 143.593C204.36 143.571 203.694 142.74 203.867 141.852L209.785 111.539Z" fill="#FEFEE4" stroke="#FEFEE4" stroke-width="2.26683" stroke-miterlimit="10" stroke-linejoin="round"></path>
    <path d="M118.821 87.6205L118.695 88.8673L114.457 86.4996L114.565 85.4334L119.19 83.96L119.063 85.2154L115.855 86.0934L118.821 87.6205Z" fill="#DB6332"></path>
    <path d="M121.933 84.21L120.187 89.1645C120.129 89.3277 120.079 89.4562 120.039 89.5503C119.998 89.644 119.944 89.7146 119.875 89.7626C119.807 89.8106 119.712 89.8287 119.592 89.8166C119.292 89.7864 119.155 89.642 119.181 89.3836C119.188 89.316 119.235 89.1502 119.32 88.8857L121.062 83.9308C121.154 83.6671 121.234 83.4884 121.303 83.3943C121.372 83.3006 121.492 83.2621 121.662 83.2794C121.809 83.2942 121.917 83.3406 121.988 83.4192C122.059 83.4974 122.088 83.5983 122.075 83.7215C122.066 83.8125 122.019 83.9754 121.933 84.21Z" fill="#DB6332"></path>
    <path d="M126.681 87.733L122.055 89.2151L122.181 87.9684L125.4 87.065L122.424 85.5546L122.549 84.3169L126.788 86.6755L126.681 87.733Z" fill="#DB6332"></path>
    <path d="M134.331 83.3442C134.331 83.3442 129.09 110.782 126.743 123.068C124.396 135.354 124.944 132.488 124.944 132.488" stroke="#474747" stroke-width="0.75561" stroke-miterlimit="10" stroke-linecap="round" stroke-linejoin="round"></path>
    <path d="M108.232 95.7783C108.263 95.2411 108.724 94.8312 109.262 94.8625L116.97 95.3129C117.507 95.3442 117.917 95.8051 117.885 96.3424L117.884 96.3635C117.853 96.9008 117.392 97.3107 116.855 97.2793L109.146 96.829C108.61 96.7976 108.199 96.3367 108.231 95.7995L108.232 95.7783Z" fill="#6F6D6D"></path>
    <path d="M118.428 96.3741C118.46 95.8368 118.921 95.4265 119.458 95.4583L126.713 95.8818C127.25 95.9135 127.66 96.3744 127.629 96.9113C127.597 97.4485 127.136 97.8588 126.599 97.8275L119.344 97.4036C118.807 97.3722 118.397 96.9113 118.428 96.3741Z" fill="#6F6D6D"></path>
    <path d="M107.194 100.471C107.225 99.9335 107.686 99.5236 108.223 99.5549L112.299 99.7929C112.836 99.8243 113.246 100.285 113.215 100.822C113.183 101.36 112.722 101.77 112.185 101.738L108.109 101.5C107.572 101.469 107.162 101.008 107.194 100.471Z" fill="#6F6D6D"></path>
    <path d="M103.912 119.786C103.943 119.248 104.404 118.838 104.941 118.87L109.107 119.113C109.644 119.145 110.054 119.605 110.023 120.143C109.991 120.68 109.53 121.09 108.993 121.058L104.828 120.815C104.29 120.784 103.881 120.323 103.912 119.786Z" fill="#DB6332"></path>
    <path d="M121.663 101.316C121.694 100.779 122.155 100.368 122.693 100.4L125.675 100.574C126.211 100.606 126.622 101.066 126.59 101.604C126.559 102.141 126.098 102.551 125.561 102.52L122.579 102.345C122.042 102.314 121.632 101.853 121.663 101.316Z" fill="#6F6D6D"></path>
    <path d="M113.742 100.853C113.773 100.316 114.234 99.9059 114.772 99.9372L120.224 100.256C120.761 100.287 121.171 100.748 121.139 101.286C121.108 101.822 120.647 102.233 120.11 102.201L114.658 101.883C114.121 101.851 113.711 101.39 113.742 100.853Z" fill="#DB6332"></path>
    <path d="M110.55 120.173C110.581 119.636 111.039 119.226 111.573 119.257L122.489 119.895C123.022 119.926 123.43 120.387 123.398 120.924C123.367 121.461 122.909 121.871 122.376 121.84L111.459 121.202C110.926 121.171 110.519 120.71 110.55 120.173Z" fill="#6F6D6D"></path>
    <path d="M118.745 105.626C118.776 105.089 119.237 104.679 119.774 104.711L124.629 104.994C125.166 105.026 125.576 105.487 125.545 106.024C125.513 106.561 125.052 106.971 124.515 106.94L119.66 106.656C119.123 106.625 118.713 106.164 118.745 105.626Z" fill="#DB6332"></path>
    <path d="M106.148 104.891C106.179 104.353 106.64 103.943 107.177 103.975L117.274 104.565C117.811 104.596 118.221 105.057 118.19 105.594C118.159 106.131 117.698 106.542 117.16 106.51L107.064 105.92C106.527 105.889 106.116 105.428 106.148 104.891Z" fill="#6F6D6D"></path>
    <path d="M105.363 110.027C105.395 109.49 105.856 109.08 106.393 109.112L123.934 110.136C124.471 110.168 124.881 110.628 124.849 111.166C124.818 111.703 124.357 112.113 123.82 112.082L106.279 111.057C105.742 111.026 105.332 110.565 105.363 110.027Z" fill="#DB6332"></path>
    <path d="M104.901 114.573C104.933 114.036 105.394 113.626 105.931 113.657L112.299 114.029C112.836 114.06 113.246 114.521 113.215 115.059C113.183 115.596 112.722 116.006 112.185 115.974L105.817 115.602C105.28 115.571 104.87 115.11 104.901 114.573Z" fill="#6F6D6D"></path>
    <path d="M113.871 115.097C113.902 114.559 114.363 114.15 114.9 114.181L118.872 114.413C119.409 114.444 119.819 114.905 119.788 115.442C119.756 115.98 119.295 116.39 118.758 116.358L114.787 116.126C114.249 116.095 113.839 115.634 113.871 115.097Z" fill="#6F6D6D"></path>
    <path d="M120.286 115.472C120.317 114.934 120.778 114.525 121.315 114.556L123.472 114.682C124.009 114.713 124.419 115.174 124.388 115.712C124.356 116.249 123.896 116.659 123.358 116.627L121.202 116.501C120.665 116.47 120.255 116.009 120.286 115.472Z" fill="#6F6D6D"></path>
    <path d="M103.672 123.887C103.704 123.35 104.165 122.939 104.702 122.971L110.046 123.283L116.702 123.672C117.239 123.703 117.649 124.164 117.618 124.701C117.587 125.239 117.126 125.649 116.588 125.617L104.588 124.916C104.051 124.885 103.641 124.424 103.672 123.887Z" fill="#6F6D6D"></path>
    <path d="M107.87 70.9161C108.248 68.9005 110.007 67.4399 112.058 67.4399H200.169C202.832 67.4399 204.842 69.8545 204.36 72.473L203.627 74.9401C203.604 75.0656 107.219 74.39 107.327 73.8135L107.87 70.9161Z" fill="#E16633" stroke="#E16633" stroke-width="1.88902" stroke-miterlimit="10" stroke-linejoin="round"></path>
    <path d="M139.845 84.1404C139.977 83.667 140.414 83.3443 140.905 83.3568L147.283 83.5204C147.979 83.5381 148.474 84.2042 148.29 84.8759L148.276 84.9288C148.145 85.4083 147.701 85.7351 147.205 85.7181L140.842 85.5016C140.147 85.4778 139.658 84.8098 139.845 84.1404Z" fill="#E16633"></path>
    <path d="M137.21 92.9225C137.342 92.4491 137.779 92.1261 138.271 92.1385L144.648 92.3021C145.344 92.3203 145.839 92.9859 145.656 93.6577L145.641 93.7106C145.51 94.1904 145.067 94.5168 144.57 94.4998L138.207 94.2833C137.512 94.2595 137.023 93.5919 137.21 92.9225Z" fill="#E16633"></path>
    <path d="M133.93 109.489C134.062 109.015 134.499 108.692 134.99 108.705L141.368 108.869C142.064 108.887 142.559 109.552 142.375 110.224L142.361 110.277C142.23 110.757 141.786 111.083 141.289 111.066L134.926 110.85C134.232 110.826 133.743 110.158 133.93 109.489Z" fill="#E16633"></path>
    <path d="M134.987 103.862C135.12 103.389 135.557 103.066 136.048 103.078L142.426 103.242C143.122 103.26 143.617 103.926 143.433 104.597L143.419 104.651C143.287 105.13 142.844 105.457 142.347 105.44L135.984 105.223C135.289 105.199 134.8 104.532 134.987 103.862Z" fill="#6F6D6D"></path>
    <path d="M136.489 98.9246C136.622 98.4512 137.059 98.1281 137.55 98.141L143.928 98.3046C144.623 98.3223 145.118 98.988 144.935 99.6598L144.92 99.713C144.789 100.192 144.346 100.519 143.849 100.502L137.486 100.285C136.791 100.262 136.302 99.594 136.489 98.9246Z" fill="#E16633"></path>
    <path d="M129.676 131.339C129.817 130.868 130.261 130.554 130.752 130.576L137.125 130.866C137.82 130.898 138.302 131.574 138.105 132.242L138.089 132.295C137.949 132.771 137.499 133.089 137.003 133.062L130.645 132.719C129.951 132.682 129.475 132.004 129.676 131.339Z" fill="#6F6D6D"></path>
    <path d="M130.155 127.138C130.297 126.667 130.74 126.353 131.231 126.376L137.604 126.666C138.3 126.698 138.781 127.373 138.585 128.041L138.569 128.094C138.428 128.571 137.979 128.888 137.482 128.862L131.124 128.519C130.43 128.481 129.955 127.804 130.155 127.138Z" fill="#6F6D6D"></path>
    <path d="M131.558 122.068C131.699 121.597 132.143 121.284 132.634 121.306L139.007 121.596C139.703 121.628 140.184 122.304 139.987 122.972L139.972 123.024C139.831 123.501 139.381 123.819 138.885 123.792L132.527 123.449C131.833 123.411 131.358 122.734 131.558 122.068Z" fill="#6F6D6D"></path>
    <path d="M132.243 118.087C132.373 117.613 132.809 117.289 133.301 117.3L139.679 117.442C140.375 117.458 140.872 118.122 140.69 118.795L140.676 118.848C140.547 119.328 140.104 119.656 139.608 119.64L133.244 119.444C132.549 119.423 132.058 118.757 132.243 118.087Z" fill="#E16633"></path>
    <path d="M166.791 88.6363C166.984 88.3114 167.328 88.1172 167.695 88.1263L184.343 88.5536C185.131 88.5736 185.604 89.4709 185.197 90.1744L185.161 90.2363C184.969 90.568 184.62 90.7668 184.248 90.7558L167.636 90.2666C166.845 90.2431 166.376 89.3379 166.791 88.6363Z" fill="#E16633"></path>
    <path d="M185.737 94.1609C185.869 93.6875 186.306 93.3645 186.797 93.3773L193.175 93.5409C193.871 93.5587 194.366 94.2247 194.182 94.8961L194.168 94.9494C194.037 95.4288 193.593 95.7556 193.096 95.7386L186.733 95.5218C186.038 95.4983 185.55 94.8304 185.737 94.1609Z" fill="#E16633"></path>
    <path d="M182.456 110.727C182.588 110.253 183.025 109.93 183.517 109.943L189.894 110.107C190.591 110.125 191.085 110.791 190.902 111.462L190.887 111.515C190.756 111.995 190.313 112.322 189.816 112.305L183.453 112.088C182.758 112.064 182.269 111.396 182.456 110.727Z" fill="#E16633"></path>
    <path d="M183.514 105.101C183.646 104.627 184.083 104.304 184.574 104.317L190.952 104.48C191.648 104.498 192.143 105.164 191.959 105.836L191.945 105.889C191.814 106.369 191.37 106.695 190.874 106.678L184.511 106.462C183.816 106.438 183.327 105.77 183.514 105.101Z" fill="#E16633"></path>
    <path d="M180.05 124.271C180.192 123.801 180.635 123.487 181.126 123.509L187.499 123.799C188.195 123.831 188.676 124.507 188.479 125.175L188.464 125.228C188.323 125.704 187.873 126.022 187.377 125.995L181.02 125.652C180.325 125.614 179.85 124.937 180.05 124.271Z" fill="#E16633"></path>
    <path d="M180.63 119.717C180.775 119.247 181.22 118.936 181.711 118.961L188.082 119.29C188.778 119.326 189.255 120.005 189.054 120.671L189.039 120.724C188.895 121.2 188.443 121.515 187.947 121.485L181.592 121.104C180.898 121.062 180.426 120.382 180.63 119.717Z" fill="#E16633"></path>
    <path d="M150.486 84.0075C150.695 83.757 151.008 83.6161 151.334 83.6244L175.666 84.2485C176.555 84.2715 177.03 85.3063 176.467 85.9951L176.416 86.0586C176.206 86.3155 175.888 86.4606 175.557 86.4511L151.276 85.7635C150.382 85.7382 149.912 84.6932 150.486 84.0075Z" fill="#6F6D6D"></path>
    <path d="M147.851 92.7892C148.06 92.5391 148.373 92.3978 148.699 92.4061L173.031 93.0303C173.921 93.0533 174.395 94.0881 173.833 94.7768L173.781 94.8403C173.571 95.0972 173.253 95.2423 172.922 95.2328L148.641 94.5456C147.747 94.5203 147.277 93.4749 147.851 92.7892Z" fill="#6F6D6D"></path>
    <path d="M144.571 109.356C144.78 109.105 145.092 108.964 145.419 108.973L169.751 109.597C170.64 109.62 171.115 110.655 170.552 111.343L170.5 111.407C170.29 111.664 169.973 111.809 169.641 111.8L145.361 111.112C144.467 111.087 143.997 110.041 144.571 109.356Z" fill="#6F6D6D"></path>
    <path d="M145.39 104.009C145.559 103.597 145.965 103.333 146.409 103.344L157.085 103.618C157.831 103.637 158.329 104.395 158.051 105.088L158.028 105.146C157.861 105.564 157.45 105.833 157 105.819L146.348 105.486C145.601 105.463 145.107 104.7 145.39 104.009Z" fill="#6F6D6D"></path>
    <path d="M159.721 104.306C159.89 103.894 160.295 103.63 160.74 103.641L171.415 103.915C172.161 103.934 172.66 104.692 172.382 105.385L172.358 105.443C172.191 105.861 171.78 106.129 171.33 106.115L160.679 105.783C159.931 105.76 159.437 104.997 159.721 104.306Z" fill="#E16633"></path>
    <path d="M147.13 98.7917C147.339 98.5412 147.652 98.3999 147.978 98.4086L172.31 99.0327C173.2 99.0554 173.674 100.09 173.112 100.779L173.06 100.842C172.85 101.1 172.533 101.245 172.201 101.235L147.921 100.548C147.027 100.522 146.556 99.4774 147.13 98.7917Z" fill="#6F6D6D"></path>
    <path d="M140.797 127.216C141.011 126.97 141.326 126.835 141.652 126.85L165.967 127.958C166.856 127.999 167.31 129.043 166.734 129.72L166.68 129.783C166.465 130.036 166.145 130.174 165.814 130.158L141.552 128.988C140.659 128.945 140.21 127.89 140.797 127.216Z" fill="#E16633"></path>
    <path d="M141.975 122.383C142.161 121.996 142.56 121.758 142.989 121.777L155.171 122.332C155.934 122.367 156.416 123.167 156.091 123.858L156.063 123.917C155.878 124.311 155.474 124.553 155.04 124.531L142.886 123.917C142.121 123.878 141.643 123.073 141.975 122.383Z" fill="#6F6D6D"></path>
    <path d="M142.887 117.873C143.096 117.623 143.409 117.482 143.735 117.49L168.067 118.123C168.956 118.146 169.43 119.18 168.868 119.869L168.816 119.933C168.606 120.19 168.288 120.335 167.957 120.325L143.677 119.629C142.783 119.604 142.313 118.559 142.887 117.873Z" fill="#6F6D6D"></path>
    <path d="M138.75 87.7829C138.959 87.5324 139.271 87.3911 139.598 87.3998L163.93 88.0239C164.819 88.0466 165.294 89.0814 164.731 89.7705L164.68 89.8336C164.47 90.0909 164.152 90.236 163.82 90.2265L139.54 89.5389C138.646 89.5136 138.176 88.4686 138.75 87.7829Z" fill="#6F6D6D"></path>
    <path d="M133.848 113.249C134.032 113.126 134.25 113.062 134.472 113.068L178.811 114.205C179.847 114.231 180.244 115.568 179.39 116.155L179.297 116.219C179.111 116.348 178.888 116.414 178.662 116.408L134.416 115.206C133.375 115.178 132.984 113.83 133.848 113.249Z" fill="#6F6D6D"></path>
    <path d="M176.232 93.9388C176.357 93.4548 176.799 93.1208 177.299 93.1337L182.95 93.2787C183.637 93.2961 184.131 93.9467 183.963 94.6139L183.95 94.6653C183.827 95.1557 183.378 95.493 182.872 95.4753L177.234 95.2792C176.548 95.255 176.061 94.6029 176.232 93.9388Z" fill="#6F6D6D"></path>
    <path d="M172.952 110.505C173.076 110.021 173.519 109.687 174.019 109.7L179.67 109.845C180.357 109.862 180.851 110.513 180.683 111.18L180.67 111.231C180.546 111.722 180.097 112.059 179.592 112.042L173.954 111.845C173.268 111.821 172.78 111.169 172.952 110.505Z" fill="#6F6D6D"></path>
    <path d="M174.009 104.878C174.134 104.394 174.577 104.06 175.076 104.073L180.728 104.218C181.415 104.235 181.909 104.886 181.74 105.553L181.728 105.604C181.604 106.095 181.155 106.432 180.65 106.415L175.011 106.218C174.326 106.194 173.838 105.542 174.009 104.878Z" fill="#6F6D6D"></path>
    <path d="M175.511 99.9402C175.636 99.4563 176.078 99.1223 176.578 99.1351L182.229 99.2802C182.917 99.2979 183.41 99.9485 183.242 100.615L183.229 100.667C183.106 101.157 182.657 101.495 182.152 101.477L176.513 101.281C175.827 101.257 175.34 100.605 175.511 99.9402Z" fill="#6F6D6D"></path>
    <path d="M169.149 128.93C169.283 128.448 169.732 128.123 170.232 128.146L175.879 128.403C176.566 128.435 177.047 129.095 176.866 129.758L176.852 129.81C176.718 130.297 176.262 130.626 175.758 130.598L170.124 130.29C169.439 130.252 168.965 129.591 169.149 128.93Z" fill="#6F6D6D"></path>
    <path d="M158.245 122.985C158.453 122.673 158.809 122.492 159.184 122.509L177.188 123.329C178.015 123.367 178.488 124.288 178.036 124.982L177.996 125.044C177.789 125.363 177.427 125.548 177.047 125.529L159.083 124.647C158.253 124.606 157.784 123.677 158.245 122.985Z" fill="#6F6D6D"></path>
    <path d="M171.135 119.249C171.272 118.768 171.723 118.446 172.222 118.472L177.868 118.763C178.555 118.799 179.032 119.462 178.846 120.124L178.832 120.175C178.696 120.662 178.238 120.988 177.733 120.957L172.102 120.615C171.417 120.573 170.947 119.908 171.135 119.249Z" fill="#6F6D6D"></path>
    <path d="M181.184 115.105C181.323 114.621 181.822 114.289 182.387 114.303L188.773 114.467C189.55 114.487 190.11 115.139 189.922 115.806L189.907 115.857C189.77 116.347 189.263 116.683 188.692 116.664L182.32 116.449C181.546 116.422 180.992 115.769 181.184 115.105Z" fill="#6F6D6D"></path>
    <path d="M187.031 71.1974C187.031 70.2302 187.814 69.4463 188.782 69.4463C189.749 69.4463 190.533 70.2302 190.533 71.1974C190.533 72.1646 189.749 72.9485 188.782 72.9485C187.814 72.9485 187.031 72.1646 187.031 71.1974Z" fill="#F2F3D9"></path>
    <path d="M192.672 71.1974C192.672 70.2302 193.455 69.4463 194.423 69.4463C195.39 69.4463 196.174 70.2302 196.174 71.1974C196.174 72.1646 195.39 72.9485 194.423 72.9485C193.455 72.9485 192.672 72.1646 192.672 71.1974Z" fill="#FDC4AD"></path>
    <path d="M197.909 71.1974C197.909 70.2302 198.693 69.4463 199.66 69.4463C200.627 69.4463 201.411 70.2302 201.411 71.1974C201.411 72.1646 200.627 72.9485 199.66 72.9485C198.693 72.9485 197.909 72.1646 197.909 71.1974Z" fill="#1E1E1D"></path>
    <g opacity="0.346735">
      <path d="M300.356 125.851C300.356 125.851 310.424 131.993 309.186 117.735C307.948 103.476 301.333 94.8164 299.39 94.9788C299.39 94.9788 285.817 117.905 292.585 124.828C299.354 131.751 299.509 127.297 300.325 126.607C301.142 125.917 300.356 125.851 300.356 125.851Z" fill="#FFFFE7" stroke="#FBFCE1" stroke-width="0.75561" stroke-miterlimit="10" stroke-linejoin="round"></path>
      <path d="M306.34 130.963C306.34 130.963 296.224 135.489 296.443 127.848C296.662 120.207 308.042 103.999 326.452 107.904C326.452 107.904 324.19 107.67 322.817 116.367C321.444 125.064 315.29 147.513 306.34 130.963Z" fill="#1E1E1D" stroke="#FBFCE1" stroke-width="0.75561" stroke-miterlimit="10" stroke-linejoin="round"></path>
      <path d="M299.849 132.778C299.849 132.778 298.673 142.628 300.32 146.069C300.32 146.069 303.358 130.82 311.446 124.284" stroke="#FBFCE1" stroke-width="0.75561" stroke-miterlimit="10" stroke-linejoin="round"></path>
      <path d="M294.431 124.987C294.431 124.987 300.884 128.109 300.878 121.54C300.873 114.972 293.527 106.689 286.467 109.329C279.406 111.97 280.853 113.791 280.853 113.791C280.853 113.791 285.39 111.814 285.208 120.952C285.054 128.692 290.311 130.925 294.431 124.987Z" fill="#E16633" stroke="#FFFFE7" stroke-width="0.75561" stroke-miterlimit="10" stroke-linejoin="round"></path>
      <path d="M292.468 120.198C292.468 120.198 297.011 125.806 297.692 145.233" stroke="#FBFCE1" stroke-width="0.75561" stroke-miterlimit="10" stroke-linejoin="round"></path>
      <path d="M286.538 142.321V166.607H286.597C289.274 171.169 294.183 174.258 299.855 174.258C305.527 174.258 310.425 171.169 313.102 166.607H313.161V142.321H286.538Z" fill="#FEFEE4" stroke="#FEFEE4" stroke-width="0.75561" stroke-miterlimit="10" stroke-linejoin="round"></path>
    </g>
    <path d="M152.085 20.3306C148.542 20.3306 145.444 22.7292 144.549 26.1578C143.273 31.0493 146.927 35.8357 151.981 35.9052L188.198 36.3986C192.071 36.4519 195.397 33.6573 195.999 29.8308L196.075 29.328C196.819 24.6024 193.171 20.3306 188.388 20.3306H152.085ZM187.695 23.1018C190.603 23.1018 192.953 25.4612 192.953 28.3695C192.953 31.2778 190.603 33.6369 187.695 33.6369C184.786 33.6369 182.427 31.2778 182.427 28.3695C182.427 25.4612 184.786 23.1018 187.695 23.1018Z" fill="#E16633" fill-opacity="0.258401"></path>
    <path opacity="0.465736" d="M190.167 16.2151C193.71 16.2295 196.818 13.8433 197.726 10.4181C199.022 5.53232 195.389 0.730789 190.334 0.641249L154.12 0.00124766C150.247 -0.0675128 146.91 2.71314 146.292 6.53728L146.214 7.03975C145.451 11.7623 149.082 16.0489 153.865 16.0682L190.167 16.2151ZM154.569 13.2996C151.661 13.2879 149.321 10.9194 149.332 8.0111C149.344 5.10275 151.703 2.75318 154.611 2.76489C157.52 2.7766 159.869 5.14544 159.858 8.05378C159.846 10.9621 157.477 13.3113 154.569 13.2996Z" fill="#DB6332"></path>
  </g>
  <defs>
    <clipPath id="clip0_128_376">
      <rect width="328" height="176.127" fill="white"></rect>
    </clipPath>
  </defs>
</svg>
