<?xml version="1.0" encoding="UTF-8"?>
<svg xmlns="http://www.w3.org/2000/svg" width="214" height="158" viewBox="0 0 214 158" fill="none">
  <g clip-path="url(#clip0_125_1581)">
    <path d="M3.52234 11.492C3.52234 6.97124 7.18696 3.30664 11.7077 3.30664H201.79C206.311 3.30664 209.975 6.97124 209.975 11.492V146.323C209.975 150.843 206.311 154.508 201.79 154.508H11.7077C7.18696 154.508 3.52234 150.843 3.52234 146.323V11.492Z" fill="#2B2B2B" stroke="#F2F3D9" stroke-width="3.3089" stroke-miterlimit="10" stroke-linejoin="round"></path>
    <path d="M3.36185 10.8523C3.36185 6.33147 7.02645 2.66602 11.5481 2.66602H201.863C206.384 2.66602 210.05 6.33147 210.05 10.8523C210.05 10.8523 210.068 20.7914 210.061 20.7914H3.57941C3.44953 20.7914 3.36185 10.8523 3.36185 10.8523Z" fill="#F2F3D9" stroke="#F2F4D9" stroke-width="3.3089" stroke-miterlimit="10" stroke-linejoin="round"></path>
    <path d="M172.199 11.1716C172.199 9.0539 173.917 7.3374 176.033 7.3374C178.151 7.3374 179.868 9.0539 179.868 11.1716C179.868 13.2893 178.151 15.0058 176.033 15.0058C173.917 15.0058 172.199 13.2893 172.199 11.1716Z" fill="#FDC4AD"></path>
    <path d="M184.551 11.1716C184.551 9.0539 186.268 7.3374 188.386 7.3374C190.503 7.3374 192.22 9.0539 192.22 11.1716C192.22 13.2893 190.503 15.0058 188.386 15.0058C186.268 15.0058 184.551 13.2893 184.551 11.1716Z" fill="#E19577"></path>
    <path d="M196.018 11.1716C196.018 9.0539 197.735 7.3374 199.852 7.3374C201.97 7.3374 203.686 9.0539 203.686 11.1716C203.686 13.2893 201.97 15.0058 199.852 15.0058C197.735 15.0058 196.018 13.2893 196.018 11.1716Z" fill="#DB6332"></path>
    <path d="M35.4929 140.785C33.3967 140.784 31.6927 142.488 31.6927 144.584V154.511H66.2558V144.584C66.2558 142.488 64.5773 140.784 62.4811 140.785H35.4929ZM74.011 140.785C71.914 140.784 70.2364 142.488 70.2364 144.584V154.511H104.799V144.584C104.799 142.488 103.095 140.784 100.999 140.785H74.011ZM112.58 140.785C110.484 140.784 108.78 142.488 108.78 144.584V154.511H143.342V144.584C143.342 142.488 141.639 140.785 139.543 140.785H112.58ZM150.943 140.785C148.847 140.784 147.168 142.488 147.168 144.584V154.511H181.731V144.584C181.731 142.488 180.027 140.785 177.931 140.785H150.943Z" stroke="#F2F3D9" stroke-width="1.65445" stroke-miterlimit="10" stroke-linecap="round" stroke-linejoin="round"></path>
    <path d="M31.6893 104.104C31.6893 102.215 33.2197 100.684 35.1082 100.684H178.316C180.204 100.684 181.735 102.215 181.735 104.104V128.022C181.735 129.911 180.204 131.443 178.316 131.443H35.1082C33.2197 131.443 31.6893 129.911 31.6893 128.022V104.104Z" fill="#A3512F" stroke="#F2F3D9" stroke-width="1.65445" stroke-miterlimit="10" stroke-linecap="round" stroke-linejoin="round"></path>
    <path d="M33.07 50.8457L82.0277 89.5491" stroke="#F2F3D9" stroke-width="1.65445" stroke-miterlimit="10" stroke-linecap="round" stroke-linejoin="round"></path>
    <path d="M82.0277 50.8457L33.07 89.5491" stroke="#F2F3D9" stroke-width="1.65445" stroke-miterlimit="10" stroke-linecap="round" stroke-linejoin="round"></path>
    <path opacity="0.307701" d="M21.8114 128.646C21.8114 125.765 19.4745 123.428 16.5933 123.428C13.7112 123.428 11.3752 125.765 11.3752 128.646C11.3752 131.528 13.7112 133.865 16.5933 133.865C19.4745 133.865 21.8114 131.528 21.8114 128.646Z" fill="#F2F3D9" stroke="#F2F4D9" stroke-width="1.65445" stroke-miterlimit="10" stroke-linejoin="round"></path>
    <path d="M17.854 127.145L14.9132 129.073L17.7721 130.835" stroke="#F2F3D9" stroke-width="0.827225" stroke-miterlimit="10" stroke-linecap="round" stroke-linejoin="round"></path>
    <path opacity="0.307701" d="M191.613 128.646C191.613 125.765 193.95 123.428 196.831 123.428C199.713 123.428 202.049 125.765 202.049 128.646C202.049 131.528 199.713 133.865 196.831 133.865C193.95 133.865 191.613 131.528 191.613 128.646Z" fill="#F2F3D9" stroke="#F2F4D9" stroke-width="1.65445" stroke-miterlimit="10" stroke-linejoin="round"></path>
    <path d="M195.57 127.145L198.511 129.073L195.652 130.835" stroke="#F2F3D9" stroke-width="0.827225" stroke-miterlimit="10" stroke-linecap="round" stroke-linejoin="round"></path>
    <path d="M31.8399 53.2898C31.8399 51.2167 33.5208 49.5366 35.593 49.5366H79.5336C81.6066 49.5366 83.2867 51.2167 83.2867 53.2898V86.9454C83.2867 89.0184 81.6066 90.6985 79.5336 90.6985H35.593C33.5208 90.6985 31.8399 89.0184 31.8399 86.9454V53.2898Z" stroke="#F2F3D9" stroke-width="1.65445" stroke-miterlimit="10" stroke-linejoin="round"></path>
    <path d="M89.1468 56.0158C89.1468 55.5782 89.5008 55.2241 89.9376 55.2241H181.205C181.642 55.2241 181.996 55.5782 181.996 56.0158C181.996 56.4526 181.642 56.8066 181.205 56.8066H89.9376C89.5008 56.8066 89.1468 56.4526 89.1468 56.0158Z" fill="#DB6332"></path>
    <mask id="mask0_125_1581" style="mask-type:luminance" maskUnits="userSpaceOnUse" x="89" y="55" width="93" height="2">
      <path d="M181.996 55.2241H89.1468V56.8059H181.996V55.2241Z" fill="black"></path>
      <path d="M89.1468 56.0158C89.1468 55.5782 89.5008 55.2241 89.9376 55.2241H181.205C181.642 55.2241 181.996 55.5782 181.996 56.0158C181.996 56.4526 181.642 56.8066 181.205 56.8066H89.9376C89.5008 56.8066 89.1468 56.4526 89.1468 56.0158Z" fill="white"></path>
    </mask>
    <g mask="url(#mask0_125_1581)">
      <path d="M89.1468 56.0158C89.1468 55.5782 89.5008 55.2241 89.9376 55.2241H181.205C181.642 55.2241 181.996 55.5782 181.996 56.0158C181.996 56.4526 181.642 56.8066 181.205 56.8066H89.9376C89.5008 56.8066 89.1468 56.4526 89.1468 56.0158Z" stroke="#F2F3D9" stroke-width="1.65445" stroke-miterlimit="10" stroke-linecap="round" stroke-linejoin="round"></path>
    </g>
    <path opacity="0.68604" d="M31.8399 37.5889C31.8399 35.664 33.4009 34.103 35.3267 34.103H56.7501C58.6751 34.103 60.2361 35.664 60.2361 37.5889V38.1589C60.2361 40.0839 58.6751 41.6448 56.7501 41.6448H35.3267C33.4009 41.6448 31.8399 40.0839 31.8399 38.1589V37.5889Z" fill="#DB6332"></path>
    <path opacity="0.68604" d="M69.089 37.5297C69.089 35.6039 70.6491 34.043 72.5749 34.043H93.9984C95.9242 34.043 97.4851 35.6039 97.4851 37.5297V38.0988C97.4851 40.0246 95.9242 41.5848 93.9984 41.5848H72.5749C70.6491 41.5848 69.089 40.0246 69.089 38.0988V37.5297Z" fill="#50514C"></path>
    <path opacity="0.68604" d="M100.213 37.5889C100.213 35.664 101.774 34.103 103.699 34.103H125.123C127.049 34.103 128.61 35.664 128.61 37.5889V38.1589C128.61 40.0839 127.049 41.6448 125.123 41.6448H103.699C101.774 41.6448 100.213 40.0839 100.213 38.1589V37.5889Z" fill="#50514C"></path>
    <mask id="mask1_125_1581" style="mask-type:luminance" maskUnits="userSpaceOnUse" x="153" y="34" width="29" height="8">
      <path d="M181.786 34.103H153.39V41.6452H181.786V34.103Z" fill="black"></path>
      <path d="M153.39 37.5889C153.39 35.664 154.951 34.103 156.877 34.103H178.3C180.225 34.103 181.786 35.664 181.786 37.5889V38.1589C181.786 40.0839 180.225 41.6448 178.3 41.6448H156.877C154.951 41.6448 153.39 40.0839 153.39 38.1589V37.5889Z" fill="white"></path>
    </mask>
    <g mask="url(#mask1_125_1581)">
      <path d="M153.39 37.5889C153.39 35.664 154.951 34.103 156.877 34.103H178.3C180.225 34.103 181.786 35.664 181.786 37.5889V38.1589C181.786 40.0839 180.225 41.6448 178.3 41.6448H156.877C154.951 41.6448 153.39 40.0839 153.39 38.1589V37.5889Z" stroke="#F2F3D9" stroke-width="1.65445" stroke-miterlimit="10" stroke-linecap="round" stroke-linejoin="round"></path>
    </g>
    <path d="M88.9366 66.0568C88.9366 65.6134 89.2956 65.2544 89.739 65.2544H180.984C181.427 65.2544 181.786 65.6134 181.786 66.0568C181.786 66.5002 181.427 66.8592 180.984 66.8592H89.739C89.2956 66.8592 88.9366 66.5002 88.9366 66.0568Z" fill="#F2F4D9"></path>
    <mask id="mask2_125_1581" style="mask-type:luminance" maskUnits="userSpaceOnUse" x="88" y="65" width="94" height="2">
      <path d="M181.786 65.2544H88.9366V66.8596H181.786V65.2544Z" fill="black"></path>
      <path d="M88.9366 66.0568C88.9366 65.6134 89.2956 65.2544 89.739 65.2544H180.984C181.427 65.2544 181.786 65.6134 181.786 66.0568C181.786 66.5002 181.427 66.8592 180.984 66.8592H89.739C89.2956 66.8592 88.9366 66.5002 88.9366 66.0568Z" fill="white"></path>
    </mask>
    <g mask="url(#mask2_125_1581)">
      <path d="M88.9366 66.0568C88.9366 65.6134 89.2956 65.2544 89.739 65.2544H180.984C181.427 65.2544 181.786 65.6134 181.786 66.0568C181.786 66.5002 181.427 66.8592 180.984 66.8592H89.739C89.2956 66.8592 88.9366 66.5002 88.9366 66.0568Z" stroke="#F2F3D9" stroke-width="1.65445" stroke-miterlimit="10" stroke-linecap="round" stroke-linejoin="round"></path>
    </g>
    <path d="M89.1468 88.6514C89.1468 88.208 89.5066 87.8481 89.95 87.8481H181.193C181.636 87.8481 181.996 88.208 181.996 88.6514C181.996 89.0948 181.636 89.4546 181.193 89.4546H89.95C89.5066 89.4546 89.1468 89.0948 89.1468 88.6514Z" fill="#F2F4D9"></path>
    <mask id="mask3_125_1581" style="mask-type:luminance" maskUnits="userSpaceOnUse" x="89" y="87" width="93" height="3">
      <path d="M181.996 87.8481H89.1468V89.4551H181.996V87.8481Z" fill="black"></path>
      <path d="M89.1468 88.6514C89.1468 88.208 89.5066 87.8481 89.95 87.8481H181.193C181.636 87.8481 181.996 88.208 181.996 88.6514C181.996 89.0948 181.636 89.4546 181.193 89.4546H89.95C89.5066 89.4546 89.1468 89.0948 89.1468 88.6514Z" fill="white"></path>
    </mask>
    <g mask="url(#mask3_125_1581)">
      <path d="M89.1468 88.6514C89.1468 88.208 89.5066 87.8481 89.95 87.8481H181.193C181.636 87.8481 181.996 88.208 181.996 88.6514C181.996 89.0948 181.636 89.4546 181.193 89.4546H89.95C89.5066 89.4546 89.1468 89.0948 89.1468 88.6514Z" stroke="#F2F3D9" stroke-width="1.65445" stroke-miterlimit="10" stroke-linecap="round" stroke-linejoin="round"></path>
    </g>
    <path d="M89.1468 78.3196C89.1468 77.9018 89.4851 77.5635 89.9028 77.5635H181.24C181.658 77.5635 181.996 77.9018 181.996 78.3196C181.996 78.7373 181.658 79.0756 181.24 79.0756H89.9028C89.4851 79.0756 89.1468 78.7373 89.1468 78.3196Z" fill="#DB6332"></path>
    <mask id="mask4_125_1581" style="mask-type:luminance" maskUnits="userSpaceOnUse" x="89" y="77" width="93" height="3">
      <path d="M181.996 77.5635H89.1468V79.0759H181.996V77.5635Z" fill="black"></path>
      <path d="M89.1468 78.3196C89.1468 77.9018 89.4851 77.5635 89.9028 77.5635H181.24C181.658 77.5635 181.996 77.9018 181.996 78.3196C181.996 78.7373 181.658 79.0756 181.24 79.0756H89.9028C89.4851 79.0756 89.1468 78.7373 89.1468 78.3196Z" fill="white"></path>
    </mask>
    <g mask="url(#mask4_125_1581)">
      <path d="M89.1468 78.3196C89.1468 77.9018 89.4851 77.5635 89.9028 77.5635H181.24C181.658 77.5635 181.996 77.9018 181.996 78.3196C181.996 78.7373 181.658 79.0756 181.24 79.0756H89.9028C89.4851 79.0756 89.1468 78.7373 89.1468 78.3196Z" stroke="#F2F3D9" stroke-width="1.65445" stroke-miterlimit="10" stroke-linecap="round" stroke-linejoin="round"></path>
    </g>
  </g>
  <defs>
    <clipPath id="clip0_125_1581">
      <rect width="213.424" height="158" fill="white"></rect>
    </clipPath>
  </defs>
</svg>
